<?xml version="1.0" encoding="utf-8"?>
<svg xmlns="http://www.w3.org/2000/svg" xmlns:xlink="http://www.w3.org/1999/xlink" width="600" height="400" viewBox="0 0 2400 1600">
<defs>
  <clipPath id="clip620">
    <rect x="0" y="0" width="2400" height="1600"/>
  </clipPath>
</defs>
<path clip-path="url(#clip620)" d="
M0 1600 L2400 1600 L2400 0 L0 0  Z
  " fill="#ffffff" fill-rule="evenodd" fill-opacity="1"/>
<defs>
  <clipPath id="clip621">
    <rect x="480" y="0" width="1681" height="1600"/>
  </clipPath>
</defs>
<path clip-path="url(#clip620)" d="
M186.274 1423.18 L2352.76 1423.18 L2352.76 47.2441 L186.274 47.2441  Z
  " fill="#ffffff" fill-rule="evenodd" fill-opacity="1"/>
<defs>
  <clipPath id="clip622">
    <rect x="186" y="47" width="2167" height="1377"/>
  </clipPath>
</defs>
<polyline clip-path="url(#clip622)" style="stroke:#000000; stroke-linecap:butt; stroke-linejoin:round; stroke-width:2; stroke-opacity:0.1; fill:none" points="
  677.874,1423.18 677.874,47.2441 
  "/>
<polyline clip-path="url(#clip622)" style="stroke:#000000; stroke-linecap:butt; stroke-linejoin:round; stroke-width:2; stroke-opacity:0.1; fill:none" points="
  1215.73,1423.18 1215.73,47.2441 
  "/>
<polyline clip-path="url(#clip622)" style="stroke:#000000; stroke-linecap:butt; stroke-linejoin:round; stroke-width:2; stroke-opacity:0.1; fill:none" points="
  1753.58,1423.18 1753.58,47.2441 
  "/>
<polyline clip-path="url(#clip622)" style="stroke:#000000; stroke-linecap:butt; stroke-linejoin:round; stroke-width:2; stroke-opacity:0.1; fill:none" points="
  2291.44,1423.18 2291.44,47.2441 
  "/>
<polyline clip-path="url(#clip620)" style="stroke:#000000; stroke-linecap:butt; stroke-linejoin:round; stroke-width:4; stroke-opacity:1; fill:none" points="
  186.274,1423.18 2352.76,1423.18 
  "/>
<polyline clip-path="url(#clip620)" style="stroke:#000000; stroke-linecap:butt; stroke-linejoin:round; stroke-width:4; stroke-opacity:1; fill:none" points="
  677.874,1423.18 677.874,1404.28 
  "/>
<polyline clip-path="url(#clip620)" style="stroke:#000000; stroke-linecap:butt; stroke-linejoin:round; stroke-width:4; stroke-opacity:1; fill:none" points="
  1215.73,1423.18 1215.73,1404.28 
  "/>
<polyline clip-path="url(#clip620)" style="stroke:#000000; stroke-linecap:butt; stroke-linejoin:round; stroke-width:4; stroke-opacity:1; fill:none" points="
  1753.58,1423.18 1753.58,1404.28 
  "/>
<polyline clip-path="url(#clip620)" style="stroke:#000000; stroke-linecap:butt; stroke-linejoin:round; stroke-width:4; stroke-opacity:1; fill:none" points="
  2291.44,1423.18 2291.44,1404.28 
  "/>
<path clip-path="url(#clip620)" d="M668.152 1451.02 L686.508 1451.02 L686.508 1454.96 L672.434 1454.96 L672.434 1463.43 Q673.453 1463.08 674.471 1462.92 Q675.49 1462.73 676.508 1462.73 Q682.295 1462.73 685.675 1465.9 Q689.054 1469.08 689.054 1474.49 Q689.054 1480.07 685.582 1483.17 Q682.11 1486.25 675.791 1486.25 Q673.615 1486.25 671.346 1485.88 Q669.101 1485.51 666.693 1484.77 L666.693 1480.07 Q668.777 1481.2 670.999 1481.76 Q673.221 1482.32 675.698 1482.32 Q679.703 1482.32 682.041 1480.21 Q684.379 1478.1 684.379 1474.49 Q684.379 1470.88 682.041 1468.77 Q679.703 1466.67 675.698 1466.67 Q673.823 1466.67 671.948 1467.08 Q670.096 1467.5 668.152 1468.38 L668.152 1451.02 Z" fill="#000000" fill-rule="evenodd" fill-opacity="1" /><path clip-path="url(#clip620)" d="M1190.42 1481.64 L1198.06 1481.64 L1198.06 1455.28 L1189.75 1456.95 L1189.75 1452.69 L1198.01 1451.02 L1202.69 1451.02 L1202.69 1481.64 L1210.32 1481.64 L1210.32 1485.58 L1190.42 1485.58 L1190.42 1481.64 Z" fill="#000000" fill-rule="evenodd" fill-opacity="1" /><path clip-path="url(#clip620)" d="M1229.77 1454.1 Q1226.16 1454.1 1224.33 1457.66 Q1222.52 1461.2 1222.52 1468.33 Q1222.52 1475.44 1224.33 1479.01 Q1226.16 1482.55 1229.77 1482.55 Q1233.4 1482.55 1235.21 1479.01 Q1237.04 1475.44 1237.04 1468.33 Q1237.04 1461.2 1235.21 1457.66 Q1233.4 1454.1 1229.77 1454.1 M1229.77 1450.39 Q1235.58 1450.39 1238.63 1455 Q1241.71 1459.58 1241.71 1468.33 Q1241.71 1477.06 1238.63 1481.67 Q1235.58 1486.25 1229.77 1486.25 Q1223.96 1486.25 1220.88 1481.67 Q1217.82 1477.06 1217.82 1468.33 Q1217.82 1459.58 1220.88 1455 Q1223.96 1450.39 1229.77 1450.39 Z" fill="#000000" fill-rule="evenodd" fill-opacity="1" /><path clip-path="url(#clip620)" d="M1728.77 1481.64 L1736.41 1481.64 L1736.41 1455.28 L1728.1 1456.95 L1728.1 1452.69 L1736.36 1451.02 L1741.04 1451.02 L1741.04 1481.64 L1748.68 1481.64 L1748.68 1485.58 L1728.77 1485.58 L1728.77 1481.64 Z" fill="#000000" fill-rule="evenodd" fill-opacity="1" /><path clip-path="url(#clip620)" d="M1758.17 1451.02 L1776.52 1451.02 L1776.52 1454.96 L1762.45 1454.96 L1762.45 1463.43 Q1763.47 1463.08 1764.49 1462.92 Q1765.51 1462.73 1766.52 1462.73 Q1772.31 1462.73 1775.69 1465.9 Q1779.07 1469.08 1779.07 1474.49 Q1779.07 1480.07 1775.6 1483.17 Q1772.13 1486.25 1765.81 1486.25 Q1763.63 1486.25 1761.36 1485.88 Q1759.12 1485.51 1756.71 1484.77 L1756.71 1480.07 Q1758.79 1481.2 1761.02 1481.76 Q1763.24 1482.32 1765.71 1482.32 Q1769.72 1482.32 1772.06 1480.21 Q1774.39 1478.1 1774.39 1474.49 Q1774.39 1470.88 1772.06 1468.77 Q1769.72 1466.67 1765.71 1466.67 Q1763.84 1466.67 1761.96 1467.08 Q1760.11 1467.5 1758.17 1468.38 L1758.17 1451.02 Z" fill="#000000" fill-rule="evenodd" fill-opacity="1" /><path clip-path="url(#clip620)" d="M2270.21 1481.64 L2286.53 1481.64 L2286.53 1485.58 L2264.59 1485.58 L2264.59 1481.64 Q2267.25 1478.89 2271.83 1474.26 Q2276.44 1469.61 2277.62 1468.27 Q2279.87 1465.74 2280.75 1464.01 Q2281.65 1462.25 2281.65 1460.56 Q2281.65 1457.8 2279.7 1456.07 Q2277.78 1454.33 2274.68 1454.33 Q2272.48 1454.33 2270.03 1455.09 Q2267.6 1455.86 2264.82 1457.41 L2264.82 1452.69 Q2267.64 1451.55 2270.1 1450.97 Q2272.55 1450.39 2274.59 1450.39 Q2279.96 1450.39 2283.15 1453.08 Q2286.35 1455.77 2286.35 1460.26 Q2286.35 1462.39 2285.54 1464.31 Q2284.75 1466.2 2282.64 1468.8 Q2282.07 1469.47 2278.96 1472.69 Q2275.86 1475.88 2270.21 1481.64 Z" fill="#000000" fill-rule="evenodd" fill-opacity="1" /><path clip-path="url(#clip620)" d="M2306.35 1454.1 Q2302.74 1454.1 2300.91 1457.66 Q2299.1 1461.2 2299.1 1468.33 Q2299.1 1475.44 2300.91 1479.01 Q2302.74 1482.55 2306.35 1482.55 Q2309.98 1482.55 2311.79 1479.01 Q2313.62 1475.44 2313.62 1468.33 Q2313.62 1461.2 2311.79 1457.66 Q2309.98 1454.1 2306.35 1454.1 M2306.35 1450.39 Q2312.16 1450.39 2315.21 1455 Q2318.29 1459.58 2318.29 1468.33 Q2318.29 1477.06 2315.21 1481.67 Q2312.16 1486.25 2306.35 1486.25 Q2300.54 1486.25 2297.46 1481.67 Q2294.4 1477.06 2294.4 1468.33 Q2294.4 1459.58 2297.46 1455 Q2300.54 1450.39 2306.35 1450.39 Z" fill="#000000" fill-rule="evenodd" fill-opacity="1" /><path clip-path="url(#clip620)" d="M1106.87 1520.52 L1147.07 1520.52 L1147.07 1525.93 L1130.2 1525.93 L1130.2 1568.04 L1123.74 1568.04 L1123.74 1525.93 L1106.87 1525.93 L1106.87 1520.52 Z" fill="#000000" fill-rule="evenodd" fill-opacity="1" /><path clip-path="url(#clip620)" d="M1151.02 1532.4 L1156.87 1532.4 L1156.87 1568.04 L1151.02 1568.04 L1151.02 1532.4 M1151.02 1518.52 L1156.87 1518.52 L1156.87 1525.93 L1151.02 1525.93 L1151.02 1518.52 Z" fill="#000000" fill-rule="evenodd" fill-opacity="1" /><path clip-path="url(#clip620)" d="M1196.88 1539.24 Q1199.08 1535.29 1202.13 1533.41 Q1205.19 1531.54 1209.33 1531.54 Q1214.9 1531.54 1217.92 1535.45 Q1220.94 1539.33 1220.94 1546.53 L1220.94 1568.04 L1215.06 1568.04 L1215.06 1546.72 Q1215.06 1541.59 1213.24 1539.11 Q1211.43 1536.63 1207.7 1536.63 Q1203.15 1536.63 1200.51 1539.65 Q1197.87 1542.68 1197.87 1547.9 L1197.87 1568.04 L1191.98 1568.04 L1191.98 1546.72 Q1191.98 1541.56 1190.17 1539.11 Q1188.35 1536.63 1184.56 1536.63 Q1180.08 1536.63 1177.44 1539.68 Q1174.79 1542.71 1174.79 1547.9 L1174.79 1568.04 L1168.9 1568.04 L1168.9 1532.4 L1174.79 1532.4 L1174.79 1537.93 Q1176.8 1534.66 1179.6 1533.1 Q1182.4 1531.54 1186.25 1531.54 Q1190.13 1531.54 1192.84 1533.51 Q1195.58 1535.48 1196.88 1539.24 Z" fill="#000000" fill-rule="evenodd" fill-opacity="1" /><path clip-path="url(#clip620)" d="M1263.12 1548.76 L1263.12 1551.62 L1236.19 1551.62 Q1236.57 1557.67 1239.82 1560.85 Q1243.1 1564 1248.92 1564 Q1252.3 1564 1255.45 1563.17 Q1258.63 1562.35 1261.75 1560.69 L1261.75 1566.23 Q1258.6 1567.57 1255.29 1568.27 Q1251.98 1568.97 1248.57 1568.97 Q1240.04 1568.97 1235.04 1564 Q1230.08 1559.04 1230.08 1550.57 Q1230.08 1541.82 1234.79 1536.69 Q1239.53 1531.54 1247.55 1531.54 Q1254.75 1531.54 1258.92 1536.18 Q1263.12 1540.8 1263.12 1548.76 M1257.26 1547.04 Q1257.2 1542.23 1254.56 1539.37 Q1251.95 1536.5 1247.62 1536.5 Q1242.72 1536.5 1239.76 1539.27 Q1236.83 1542.04 1236.38 1547.07 L1257.26 1547.04 Z" fill="#000000" fill-rule="evenodd" fill-opacity="1" /><path clip-path="url(#clip620)" d="M1322.19 1522.08 L1322.19 1528.35 Q1318.53 1526.6 1315.28 1525.74 Q1312.04 1524.88 1309.01 1524.88 Q1303.76 1524.88 1300.9 1526.92 Q1298.07 1528.96 1298.07 1532.71 Q1298.07 1535.87 1299.94 1537.49 Q1301.85 1539.08 1307.14 1540.07 L1311.02 1540.86 Q1318.21 1542.23 1321.62 1545.7 Q1325.06 1549.14 1325.06 1554.93 Q1325.06 1561.84 1320.41 1565.4 Q1315.79 1568.97 1306.85 1568.97 Q1303.48 1568.97 1299.66 1568.2 Q1295.87 1567.44 1291.79 1565.94 L1291.79 1559.32 Q1295.71 1561.52 1299.47 1562.63 Q1303.22 1563.75 1306.85 1563.75 Q1312.36 1563.75 1315.35 1561.58 Q1318.34 1559.42 1318.34 1555.41 Q1318.34 1551.91 1316.18 1549.93 Q1314.04 1547.96 1309.14 1546.97 L1305.23 1546.21 Q1298.03 1544.78 1294.82 1541.72 Q1291.6 1538.67 1291.6 1533.22 Q1291.6 1526.92 1296.03 1523.29 Q1300.48 1519.66 1308.28 1519.66 Q1311.62 1519.66 1315.09 1520.27 Q1318.56 1520.87 1322.19 1522.08 Z" fill="#000000" fill-rule="evenodd" fill-opacity="1" /><path clip-path="url(#clip620)" d="M1340.62 1522.27 L1340.62 1532.4 L1352.68 1532.4 L1352.68 1536.95 L1340.62 1536.95 L1340.62 1556.3 Q1340.62 1560.66 1341.8 1561.9 Q1343.01 1563.14 1346.67 1563.14 L1352.68 1563.14 L1352.68 1568.04 L1346.67 1568.04 Q1339.89 1568.04 1337.31 1565.53 Q1334.73 1562.98 1334.73 1556.3 L1334.73 1536.95 L1330.43 1536.95 L1330.43 1532.4 L1334.73 1532.4 L1334.73 1522.27 L1340.62 1522.27 Z" fill="#000000" fill-rule="evenodd" fill-opacity="1" /><path clip-path="url(#clip620)" d="M1390.88 1548.76 L1390.88 1551.62 L1363.95 1551.62 Q1364.33 1557.67 1367.58 1560.85 Q1370.86 1564 1376.68 1564 Q1380.06 1564 1383.21 1563.17 Q1386.39 1562.35 1389.51 1560.69 L1389.51 1566.23 Q1386.36 1567.57 1383.05 1568.27 Q1379.74 1568.97 1376.33 1568.97 Q1367.8 1568.97 1362.8 1564 Q1357.84 1559.04 1357.84 1550.57 Q1357.84 1541.82 1362.55 1536.69 Q1367.29 1531.54 1375.31 1531.54 Q1382.51 1531.54 1386.68 1536.18 Q1390.88 1540.8 1390.88 1548.76 M1385.02 1547.04 Q1384.96 1542.23 1382.32 1539.37 Q1379.71 1536.5 1375.38 1536.5 Q1370.48 1536.5 1367.52 1539.27 Q1364.59 1542.04 1364.14 1547.07 L1385.02 1547.04 Z" fill="#000000" fill-rule="evenodd" fill-opacity="1" /><path clip-path="url(#clip620)" d="M1406.15 1562.7 L1406.15 1581.6 L1400.27 1581.6 L1400.27 1532.4 L1406.15 1532.4 L1406.15 1537.81 Q1408 1534.62 1410.8 1533.1 Q1413.63 1531.54 1417.55 1531.54 Q1424.04 1531.54 1428.08 1536.69 Q1432.16 1541.85 1432.16 1550.25 Q1432.16 1558.65 1428.08 1563.81 Q1424.04 1568.97 1417.55 1568.97 Q1413.63 1568.97 1410.8 1567.44 Q1408 1565.88 1406.15 1562.7 M1426.08 1550.25 Q1426.08 1543.79 1423.41 1540.13 Q1420.76 1536.44 1416.12 1536.44 Q1411.47 1536.44 1408.8 1540.13 Q1406.15 1543.79 1406.15 1550.25 Q1406.15 1556.71 1408.8 1560.4 Q1411.47 1564.07 1416.12 1564.07 Q1420.76 1564.07 1423.41 1560.4 Q1426.08 1556.71 1426.08 1550.25 Z" fill="#000000" fill-rule="evenodd" fill-opacity="1" /><polyline clip-path="url(#clip622)" style="stroke:#000000; stroke-linecap:butt; stroke-linejoin:round; stroke-width:2; stroke-opacity:0.1; fill:none" points="
  186.274,1384.32 2352.76,1384.32 
  "/>
<polyline clip-path="url(#clip622)" style="stroke:#000000; stroke-linecap:butt; stroke-linejoin:round; stroke-width:2; stroke-opacity:0.1; fill:none" points="
  186.274,1059.75 2352.76,1059.75 
  "/>
<polyline clip-path="url(#clip622)" style="stroke:#000000; stroke-linecap:butt; stroke-linejoin:round; stroke-width:2; stroke-opacity:0.1; fill:none" points="
  186.274,735.186 2352.76,735.186 
  "/>
<polyline clip-path="url(#clip622)" style="stroke:#000000; stroke-linecap:butt; stroke-linejoin:round; stroke-width:2; stroke-opacity:0.1; fill:none" points="
  186.274,410.621 2352.76,410.621 
  "/>
<polyline clip-path="url(#clip622)" style="stroke:#000000; stroke-linecap:butt; stroke-linejoin:round; stroke-width:2; stroke-opacity:0.1; fill:none" points="
  186.274,86.0559 2352.76,86.0559 
  "/>
<polyline clip-path="url(#clip620)" style="stroke:#000000; stroke-linecap:butt; stroke-linejoin:round; stroke-width:4; stroke-opacity:1; fill:none" points="
  186.274,1423.18 186.274,47.2441 
  "/>
<polyline clip-path="url(#clip620)" style="stroke:#000000; stroke-linecap:butt; stroke-linejoin:round; stroke-width:4; stroke-opacity:1; fill:none" points="
  186.274,1384.32 205.172,1384.32 
  "/>
<polyline clip-path="url(#clip620)" style="stroke:#000000; stroke-linecap:butt; stroke-linejoin:round; stroke-width:4; stroke-opacity:1; fill:none" points="
  186.274,1059.75 205.172,1059.75 
  "/>
<polyline clip-path="url(#clip620)" style="stroke:#000000; stroke-linecap:butt; stroke-linejoin:round; stroke-width:4; stroke-opacity:1; fill:none" points="
  186.274,735.186 205.172,735.186 
  "/>
<polyline clip-path="url(#clip620)" style="stroke:#000000; stroke-linecap:butt; stroke-linejoin:round; stroke-width:4; stroke-opacity:1; fill:none" points="
  186.274,410.621 205.172,410.621 
  "/>
<polyline clip-path="url(#clip620)" style="stroke:#000000; stroke-linecap:butt; stroke-linejoin:round; stroke-width:4; stroke-opacity:1; fill:none" points="
  186.274,86.0559 205.172,86.0559 
  "/>
<path clip-path="url(#clip620)" d="M62.9365 1370.12 Q59.3254 1370.12 57.4967 1373.68 Q55.6912 1377.22 55.6912 1384.35 Q55.6912 1391.46 57.4967 1395.02 Q59.3254 1398.56 62.9365 1398.56 Q66.5707 1398.56 68.3763 1395.02 Q70.205 1391.46 70.205 1384.35 Q70.205 1377.22 68.3763 1373.68 Q66.5707 1370.12 62.9365 1370.12 M62.9365 1366.41 Q68.7467 1366.41 71.8022 1371.02 Q74.8809 1375.6 74.8809 1384.35 Q74.8809 1393.08 71.8022 1397.68 Q68.7467 1402.27 62.9365 1402.27 Q57.1264 1402.27 54.0477 1397.68 Q50.9921 1393.08 50.9921 1384.35 Q50.9921 1375.6 54.0477 1371.02 Q57.1264 1366.41 62.9365 1366.41 Z" fill="#000000" fill-rule="evenodd" fill-opacity="1" /><path clip-path="url(#clip620)" d="M83.0984 1395.72 L87.9827 1395.72 L87.9827 1401.6 L83.0984 1401.6 L83.0984 1395.72 Z" fill="#000000" fill-rule="evenodd" fill-opacity="1" /><path clip-path="url(#clip620)" d="M108.168 1370.12 Q104.557 1370.12 102.728 1373.68 Q100.922 1377.22 100.922 1384.35 Q100.922 1391.46 102.728 1395.02 Q104.557 1398.56 108.168 1398.56 Q111.802 1398.56 113.608 1395.02 Q115.436 1391.46 115.436 1384.35 Q115.436 1377.22 113.608 1373.68 Q111.802 1370.12 108.168 1370.12 M108.168 1366.41 Q113.978 1366.41 117.033 1371.02 Q120.112 1375.6 120.112 1384.35 Q120.112 1393.08 117.033 1397.68 Q113.978 1402.27 108.168 1402.27 Q102.358 1402.27 99.2789 1397.68 Q96.2234 1393.08 96.2234 1384.35 Q96.2234 1375.6 99.2789 1371.02 Q102.358 1366.41 108.168 1366.41 Z" fill="#000000" fill-rule="evenodd" fill-opacity="1" /><path clip-path="url(#clip620)" d="M138.33 1370.12 Q134.719 1370.12 132.89 1373.68 Q131.084 1377.22 131.084 1384.35 Q131.084 1391.46 132.89 1395.02 Q134.719 1398.56 138.33 1398.56 Q141.964 1398.56 143.769 1395.02 Q145.598 1391.46 145.598 1384.35 Q145.598 1377.22 143.769 1373.68 Q141.964 1370.12 138.33 1370.12 M138.33 1366.41 Q144.14 1366.41 147.195 1371.02 Q150.274 1375.6 150.274 1384.35 Q150.274 1393.08 147.195 1397.68 Q144.14 1402.27 138.33 1402.27 Q132.519 1402.27 129.441 1397.68 Q126.385 1393.08 126.385 1384.35 Q126.385 1375.6 129.441 1371.02 Q132.519 1366.41 138.33 1366.41 Z" fill="#000000" fill-rule="evenodd" fill-opacity="1" /><path clip-path="url(#clip620)" d="M63.9319 1045.55 Q60.3208 1045.55 58.4921 1049.11 Q56.6865 1052.66 56.6865 1059.79 Q56.6865 1066.89 58.4921 1070.46 Q60.3208 1074 63.9319 1074 Q67.5661 1074 69.3717 1070.46 Q71.2004 1066.89 71.2004 1059.79 Q71.2004 1052.66 69.3717 1049.11 Q67.5661 1045.55 63.9319 1045.55 M63.9319 1041.85 Q69.742 1041.85 72.7976 1046.45 Q75.8763 1051.04 75.8763 1059.79 Q75.8763 1068.51 72.7976 1073.12 Q69.742 1077.7 63.9319 1077.7 Q58.1217 1077.7 55.043 1073.12 Q51.9875 1068.51 51.9875 1059.79 Q51.9875 1051.04 55.043 1046.45 Q58.1217 1041.85 63.9319 1041.85 Z" fill="#000000" fill-rule="evenodd" fill-opacity="1" /><path clip-path="url(#clip620)" d="M84.0938 1071.15 L88.978 1071.15 L88.978 1077.03 L84.0938 1077.03 L84.0938 1071.15 Z" fill="#000000" fill-rule="evenodd" fill-opacity="1" /><path clip-path="url(#clip620)" d="M103.191 1073.1 L119.51 1073.1 L119.51 1077.03 L97.566 1077.03 L97.566 1073.1 Q100.228 1070.34 104.811 1065.71 Q109.418 1061.06 110.598 1059.72 Q112.844 1057.19 113.723 1055.46 Q114.626 1053.7 114.626 1052.01 Q114.626 1049.25 112.682 1047.52 Q110.76 1045.78 107.658 1045.78 Q105.459 1045.78 103.006 1046.55 Q100.575 1047.31 97.7974 1048.86 L97.7974 1044.14 Q100.621 1043 103.075 1042.43 Q105.529 1041.85 107.566 1041.85 Q112.936 1041.85 116.131 1044.53 Q119.325 1047.22 119.325 1051.71 Q119.325 1053.84 118.515 1055.76 Q117.728 1057.66 115.621 1060.25 Q115.043 1060.92 111.941 1064.14 Q108.839 1067.33 103.191 1073.1 Z" fill="#000000" fill-rule="evenodd" fill-opacity="1" /><path clip-path="url(#clip620)" d="M129.371 1042.47 L147.728 1042.47 L147.728 1046.41 L133.654 1046.41 L133.654 1054.88 Q134.672 1054.53 135.691 1054.37 Q136.709 1054.18 137.728 1054.18 Q143.515 1054.18 146.894 1057.36 Q150.274 1060.53 150.274 1065.94 Q150.274 1071.52 146.802 1074.62 Q143.33 1077.7 137.01 1077.7 Q134.834 1077.7 132.566 1077.33 Q130.32 1076.96 127.913 1076.22 L127.913 1071.52 Q129.996 1072.66 132.219 1073.21 Q134.441 1073.77 136.918 1073.77 Q140.922 1073.77 143.26 1071.66 Q145.598 1069.55 145.598 1065.94 Q145.598 1062.33 143.26 1060.23 Q140.922 1058.12 136.918 1058.12 Q135.043 1058.12 133.168 1058.54 Q131.316 1058.95 129.371 1059.83 L129.371 1042.47 Z" fill="#000000" fill-rule="evenodd" fill-opacity="1" /><path clip-path="url(#clip620)" d="M62.9365 720.985 Q59.3254 720.985 57.4967 724.55 Q55.6912 728.091 55.6912 735.221 Q55.6912 742.327 57.4967 745.892 Q59.3254 749.434 62.9365 749.434 Q66.5707 749.434 68.3763 745.892 Q70.205 742.327 70.205 735.221 Q70.205 728.091 68.3763 724.55 Q66.5707 720.985 62.9365 720.985 M62.9365 717.281 Q68.7467 717.281 71.8022 721.888 Q74.8809 726.471 74.8809 735.221 Q74.8809 743.948 71.8022 748.554 Q68.7467 753.138 62.9365 753.138 Q57.1264 753.138 54.0477 748.554 Q50.9921 743.948 50.9921 735.221 Q50.9921 726.471 54.0477 721.888 Q57.1264 717.281 62.9365 717.281 Z" fill="#000000" fill-rule="evenodd" fill-opacity="1" /><path clip-path="url(#clip620)" d="M83.0984 746.587 L87.9827 746.587 L87.9827 752.466 L83.0984 752.466 L83.0984 746.587 Z" fill="#000000" fill-rule="evenodd" fill-opacity="1" /><path clip-path="url(#clip620)" d="M98.2141 717.906 L116.57 717.906 L116.57 721.841 L102.496 721.841 L102.496 730.314 Q103.515 729.966 104.534 729.804 Q105.552 729.619 106.571 729.619 Q112.358 729.619 115.737 732.79 Q119.117 735.962 119.117 741.378 Q119.117 746.957 115.645 750.059 Q112.172 753.138 105.853 753.138 Q103.677 753.138 101.409 752.767 Q99.1632 752.397 96.7558 751.656 L96.7558 746.957 Q98.8391 748.091 101.061 748.647 Q103.284 749.202 105.76 749.202 Q109.765 749.202 112.103 747.096 Q114.441 744.989 114.441 741.378 Q114.441 737.767 112.103 735.661 Q109.765 733.554 105.76 733.554 Q103.885 733.554 102.01 733.971 Q100.159 734.388 98.2141 735.267 L98.2141 717.906 Z" fill="#000000" fill-rule="evenodd" fill-opacity="1" /><path clip-path="url(#clip620)" d="M138.33 720.985 Q134.719 720.985 132.89 724.55 Q131.084 728.091 131.084 735.221 Q131.084 742.327 132.89 745.892 Q134.719 749.434 138.33 749.434 Q141.964 749.434 143.769 745.892 Q145.598 742.327 145.598 735.221 Q145.598 728.091 143.769 724.55 Q141.964 720.985 138.33 720.985 M138.33 717.281 Q144.14 717.281 147.195 721.888 Q150.274 726.471 150.274 735.221 Q150.274 743.948 147.195 748.554 Q144.14 753.138 138.33 753.138 Q132.519 753.138 129.441 748.554 Q126.385 743.948 126.385 735.221 Q126.385 726.471 129.441 721.888 Q132.519 717.281 138.33 717.281 Z" fill="#000000" fill-rule="evenodd" fill-opacity="1" /><path clip-path="url(#clip620)" d="M63.9319 396.42 Q60.3208 396.42 58.4921 399.985 Q56.6865 403.526 56.6865 410.656 Q56.6865 417.762 58.4921 421.327 Q60.3208 424.869 63.9319 424.869 Q67.5661 424.869 69.3717 421.327 Q71.2004 417.762 71.2004 410.656 Q71.2004 403.526 69.3717 399.985 Q67.5661 396.42 63.9319 396.42 M63.9319 392.716 Q69.742 392.716 72.7976 397.322 Q75.8763 401.906 75.8763 410.656 Q75.8763 419.383 72.7976 423.989 Q69.742 428.572 63.9319 428.572 Q58.1217 428.572 55.043 423.989 Q51.9875 419.383 51.9875 410.656 Q51.9875 401.906 55.043 397.322 Q58.1217 392.716 63.9319 392.716 Z" fill="#000000" fill-rule="evenodd" fill-opacity="1" /><path clip-path="url(#clip620)" d="M84.0938 422.021 L88.978 422.021 L88.978 427.901 L84.0938 427.901 L84.0938 422.021 Z" fill="#000000" fill-rule="evenodd" fill-opacity="1" /><path clip-path="url(#clip620)" d="M97.9826 393.341 L120.205 393.341 L120.205 395.332 L107.658 427.901 L102.774 427.901 L114.58 397.276 L97.9826 397.276 L97.9826 393.341 Z" fill="#000000" fill-rule="evenodd" fill-opacity="1" /><path clip-path="url(#clip620)" d="M129.371 393.341 L147.728 393.341 L147.728 397.276 L133.654 397.276 L133.654 405.748 Q134.672 405.401 135.691 405.239 Q136.709 405.054 137.728 405.054 Q143.515 405.054 146.894 408.225 Q150.274 411.396 150.274 416.813 Q150.274 422.392 146.802 425.494 Q143.33 428.572 137.01 428.572 Q134.834 428.572 132.566 428.202 Q130.32 427.832 127.913 427.091 L127.913 422.392 Q129.996 423.526 132.219 424.082 Q134.441 424.637 136.918 424.637 Q140.922 424.637 143.26 422.531 Q145.598 420.424 145.598 416.813 Q145.598 413.202 143.26 411.096 Q140.922 408.989 136.918 408.989 Q135.043 408.989 133.168 409.406 Q131.316 409.822 129.371 410.702 L129.371 393.341 Z" fill="#000000" fill-rule="evenodd" fill-opacity="1" /><path clip-path="url(#clip620)" d="M53.7467 99.4007 L61.3856 99.4007 L61.3856 73.0351 L53.0754 74.7018 L53.0754 70.4425 L61.3393 68.7759 L66.0152 68.7759 L66.0152 99.4007 L73.654 99.4007 L73.654 103.336 L53.7467 103.336 L53.7467 99.4007 Z" fill="#000000" fill-rule="evenodd" fill-opacity="1" /><path clip-path="url(#clip620)" d="M83.0984 97.4563 L87.9827 97.4563 L87.9827 103.336 L83.0984 103.336 L83.0984 97.4563 Z" fill="#000000" fill-rule="evenodd" fill-opacity="1" /><path clip-path="url(#clip620)" d="M108.168 71.8545 Q104.557 71.8545 102.728 75.4193 Q100.922 78.961 100.922 86.0906 Q100.922 93.197 102.728 96.7618 Q104.557 100.303 108.168 100.303 Q111.802 100.303 113.608 96.7618 Q115.436 93.197 115.436 86.0906 Q115.436 78.961 113.608 75.4193 Q111.802 71.8545 108.168 71.8545 M108.168 68.1509 Q113.978 68.1509 117.033 72.7573 Q120.112 77.3406 120.112 86.0906 Q120.112 94.8174 117.033 99.4238 Q113.978 104.007 108.168 104.007 Q102.358 104.007 99.2789 99.4238 Q96.2234 94.8174 96.2234 86.0906 Q96.2234 77.3406 99.2789 72.7573 Q102.358 68.1509 108.168 68.1509 Z" fill="#000000" fill-rule="evenodd" fill-opacity="1" /><path clip-path="url(#clip620)" d="M138.33 71.8545 Q134.719 71.8545 132.89 75.4193 Q131.084 78.961 131.084 86.0906 Q131.084 93.197 132.89 96.7618 Q134.719 100.303 138.33 100.303 Q141.964 100.303 143.769 96.7618 Q145.598 93.197 145.598 86.0906 Q145.598 78.961 143.769 75.4193 Q141.964 71.8545 138.33 71.8545 M138.33 68.1509 Q144.14 68.1509 147.195 72.7573 Q150.274 77.3406 150.274 86.0906 Q150.274 94.8174 147.195 99.4238 Q144.14 104.007 138.33 104.007 Q132.519 104.007 129.441 99.4238 Q126.385 94.8174 126.385 86.0906 Q126.385 77.3406 129.441 72.7573 Q132.519 68.1509 138.33 68.1509 Z" fill="#000000" fill-rule="evenodd" fill-opacity="1" /><polyline clip-path="url(#clip622)" style="stroke:#009af9; stroke-linecap:butt; stroke-linejoin:round; stroke-width:8; stroke-opacity:1; fill:none" points="
  247.59,735.186 355.161,86.3479 462.732,86.1857 570.303,86.3479 677.874,86.1857 785.445,87.0178 893.016,386.822 1000.59,580.174 1108.16,668.985 1215.73,715.786 
  1323.3,737.076 1430.87,711.784 1538.44,675.979 1646.01,554.671 1753.58,411.942 1861.16,88.1114 1968.73,86.1857 2076.3,86.1857 2183.87,86.1857 2291.44,86.1857 
  
  "/>
<polyline clip-path="url(#clip622)" style="stroke:#e26f46; stroke-linecap:butt; stroke-linejoin:round; stroke-width:8; stroke-opacity:1; fill:none" points="
  247.59,1384.19 355.161,1384.15 462.732,1384.12 570.303,1384.09 677.874,1384.06 785.445,1070.2 893.016,735.182 1000.59,720.27 1108.16,727.115 1215.73,756.753 
  1323.3,739.555 1430.87,741.059 1538.44,740.81 1646.01,736.744 1753.58,735.782 1861.16,1034.39 1968.73,1384.1 2076.3,1384.18 2183.87,1384.21 2291.44,1384.24 
  
  "/>
<path clip-path="url(#clip620)" d="
M1632 787.052 L2280.54 787.052 L2280.54 631.532 L1632 631.532  Z
  " fill="#ffffff" fill-rule="evenodd" fill-opacity="1"/>
<polyline clip-path="url(#clip620)" style="stroke:#000000; stroke-linecap:butt; stroke-linejoin:round; stroke-width:4; stroke-opacity:1; fill:none" points="
  1632,787.052 2280.54,787.052 2280.54,631.532 1632,631.532 1632,787.052 
  "/>
<polyline clip-path="url(#clip620)" style="stroke:#009af9; stroke-linecap:butt; stroke-linejoin:round; stroke-width:4; stroke-opacity:1; fill:none" points="
  1656.07,683.372 1800.5,683.372 
  "/>
<path clip-path="url(#clip620)" d="M1846.82 667.226 L1846.82 671.786 Q1844.16 670.513 1841.8 669.888 Q1839.43 669.263 1837.24 669.263 Q1833.42 669.263 1831.33 670.745 Q1829.27 672.226 1829.27 674.958 Q1829.27 677.249 1830.64 678.43 Q1832.03 679.587 1835.87 680.305 L1838.69 680.884 Q1843.93 681.879 1846.4 684.402 Q1848.9 686.902 1848.9 691.115 Q1848.9 696.138 1845.52 698.731 Q1842.17 701.323 1835.66 701.323 Q1833.21 701.323 1830.43 700.768 Q1827.68 700.212 1824.71 699.124 L1824.71 694.309 Q1827.56 695.907 1830.29 696.717 Q1833.02 697.527 1835.66 697.527 Q1839.67 697.527 1841.84 695.953 Q1844.02 694.379 1844.02 691.462 Q1844.02 688.916 1842.44 687.481 Q1840.89 686.046 1837.33 685.328 L1834.48 684.772 Q1829.25 683.731 1826.91 681.509 Q1824.57 679.286 1824.57 675.328 Q1824.57 670.745 1827.79 668.106 Q1831.03 665.467 1836.7 665.467 Q1839.13 665.467 1841.66 665.907 Q1844.18 666.347 1846.82 667.226 Z" fill="#000000" fill-rule="evenodd" fill-opacity="1" /><path clip-path="url(#clip620)" d="M1867.79 687.62 Q1862.63 687.62 1860.64 688.8 Q1858.65 689.981 1858.65 692.828 Q1858.65 695.096 1860.13 696.439 Q1861.63 697.758 1864.2 697.758 Q1867.74 697.758 1869.87 695.258 Q1872.03 692.735 1872.03 688.569 L1872.03 687.62 L1867.79 687.62 M1876.29 685.86 L1876.29 700.652 L1872.03 700.652 L1872.03 696.717 Q1870.57 699.078 1868.39 700.212 Q1866.22 701.323 1863.07 701.323 Q1859.09 701.323 1856.73 699.101 Q1854.39 696.856 1854.39 693.106 Q1854.39 688.731 1857.31 686.509 Q1860.25 684.286 1866.06 684.286 L1872.03 684.286 L1872.03 683.87 Q1872.03 680.93 1870.08 679.333 Q1868.16 677.712 1864.67 677.712 Q1862.44 677.712 1860.34 678.245 Q1858.23 678.777 1856.29 679.842 L1856.29 675.907 Q1858.62 675.004 1860.82 674.564 Q1863.02 674.101 1865.11 674.101 Q1870.73 674.101 1873.51 677.018 Q1876.29 679.934 1876.29 685.86 Z" fill="#000000" fill-rule="evenodd" fill-opacity="1" /><path clip-path="url(#clip620)" d="M1889.27 667.365 L1889.27 674.726 L1898.05 674.726 L1898.05 678.036 L1889.27 678.036 L1889.27 692.11 Q1889.27 695.282 1890.13 696.184 Q1891.01 697.087 1893.67 697.087 L1898.05 697.087 L1898.05 700.652 L1893.67 700.652 Q1888.74 700.652 1886.87 698.823 Q1884.99 696.971 1884.99 692.11 L1884.99 678.036 L1881.87 678.036 L1881.87 674.726 L1884.99 674.726 L1884.99 667.365 L1889.27 667.365 Z" fill="#000000" fill-rule="evenodd" fill-opacity="1" /><path clip-path="url(#clip620)" d="M1925.82 686.624 L1925.82 688.708 L1906.24 688.708 Q1906.52 693.106 1908.88 695.421 Q1911.26 697.712 1915.5 697.712 Q1917.95 697.712 1920.24 697.11 Q1922.56 696.508 1924.83 695.305 L1924.83 699.333 Q1922.54 700.305 1920.13 700.814 Q1917.72 701.323 1915.24 701.323 Q1909.04 701.323 1905.41 697.712 Q1901.8 694.101 1901.8 687.944 Q1901.8 681.578 1905.22 677.851 Q1908.67 674.101 1914.5 674.101 Q1919.74 674.101 1922.77 677.481 Q1925.82 680.837 1925.82 686.624 M1921.56 685.374 Q1921.52 681.879 1919.6 679.796 Q1917.7 677.712 1914.55 677.712 Q1910.99 677.712 1908.83 679.726 Q1906.7 681.74 1906.38 685.397 L1921.56 685.374 Z" fill="#000000" fill-rule="evenodd" fill-opacity="1" /><path clip-path="url(#clip620)" d="M1932.81 664.634 L1937.07 664.634 L1937.07 700.652 L1932.81 700.652 L1932.81 664.634 Z" fill="#000000" fill-rule="evenodd" fill-opacity="1" /><path clip-path="url(#clip620)" d="M1945.99 664.634 L1950.24 664.634 L1950.24 700.652 L1945.99 700.652 L1945.99 664.634 Z" fill="#000000" fill-rule="evenodd" fill-opacity="1" /><path clip-path="url(#clip620)" d="M1959.16 674.726 L1963.42 674.726 L1963.42 700.652 L1959.16 700.652 L1959.16 674.726 M1959.16 664.634 L1963.42 664.634 L1963.42 670.027 L1959.16 670.027 L1959.16 664.634 Z" fill="#000000" fill-rule="evenodd" fill-opacity="1" /><path clip-path="url(#clip620)" d="M1976.54 667.365 L1976.54 674.726 L1985.31 674.726 L1985.31 678.036 L1976.54 678.036 L1976.54 692.11 Q1976.54 695.282 1977.4 696.184 Q1978.28 697.087 1980.94 697.087 L1985.31 697.087 L1985.31 700.652 L1980.94 700.652 Q1976.01 700.652 1974.13 698.823 Q1972.26 696.971 1972.26 692.11 L1972.26 678.036 L1969.13 678.036 L1969.13 674.726 L1972.26 674.726 L1972.26 667.365 L1976.54 667.365 Z" fill="#000000" fill-rule="evenodd" fill-opacity="1" /><path clip-path="url(#clip620)" d="M2013.09 686.624 L2013.09 688.708 L1993.51 688.708 Q1993.79 693.106 1996.15 695.421 Q1998.53 697.712 2002.77 697.712 Q2005.22 697.712 2007.51 697.11 Q2009.83 696.508 2012.1 695.305 L2012.1 699.333 Q2009.8 700.305 2007.4 700.814 Q2004.99 701.323 2002.51 701.323 Q1996.31 701.323 1992.67 697.712 Q1989.06 694.101 1989.06 687.944 Q1989.06 681.578 1992.49 677.851 Q1995.94 674.101 2001.77 674.101 Q2007 674.101 2010.04 677.481 Q2013.09 680.837 2013.09 686.624 M2008.83 685.374 Q2008.79 681.879 2006.86 679.796 Q2004.97 677.712 2001.82 677.712 Q1998.25 677.712 1996.1 679.726 Q1993.97 681.74 1993.65 685.397 L2008.83 685.374 Z" fill="#000000" fill-rule="evenodd" fill-opacity="1" /><path clip-path="url(#clip620)" d="M2056.05 667.226 L2056.05 671.786 Q2053.39 670.513 2051.03 669.888 Q2048.67 669.263 2046.47 669.263 Q2042.65 669.263 2040.57 670.745 Q2038.51 672.226 2038.51 674.958 Q2038.51 677.249 2039.87 678.43 Q2041.26 679.587 2045.11 680.305 L2047.93 680.884 Q2053.16 681.879 2055.64 684.402 Q2058.14 686.902 2058.14 691.115 Q2058.14 696.138 2054.76 698.731 Q2051.4 701.323 2044.9 701.323 Q2042.44 701.323 2039.67 700.768 Q2036.91 700.212 2033.95 699.124 L2033.95 694.309 Q2036.79 695.907 2039.53 696.717 Q2042.26 697.527 2044.9 697.527 Q2048.9 697.527 2051.08 695.953 Q2053.25 694.379 2053.25 691.462 Q2053.25 688.916 2051.68 687.481 Q2050.13 686.046 2046.56 685.328 L2043.72 684.772 Q2038.48 683.731 2036.15 681.509 Q2033.81 679.286 2033.81 675.328 Q2033.81 670.745 2037.03 668.106 Q2040.27 665.467 2045.94 665.467 Q2048.37 665.467 2050.89 665.907 Q2053.42 666.347 2056.05 667.226 Z" fill="#000000" fill-rule="evenodd" fill-opacity="1" /><path clip-path="url(#clip620)" d="M2069.46 667.365 L2069.46 674.726 L2078.23 674.726 L2078.23 678.036 L2069.46 678.036 L2069.46 692.11 Q2069.46 695.282 2070.31 696.184 Q2071.19 697.087 2073.85 697.087 L2078.23 697.087 L2078.23 700.652 L2073.85 700.652 Q2068.92 700.652 2067.05 698.823 Q2065.17 696.971 2065.17 692.11 L2065.17 678.036 L2062.05 678.036 L2062.05 674.726 L2065.17 674.726 L2065.17 667.365 L2069.46 667.365 Z" fill="#000000" fill-rule="evenodd" fill-opacity="1" /><path clip-path="url(#clip620)" d="M2098.85 678.708 Q2098.14 678.291 2097.28 678.106 Q2096.45 677.897 2095.43 677.897 Q2091.82 677.897 2089.87 680.259 Q2087.95 682.597 2087.95 686.995 L2087.95 700.652 L2083.67 700.652 L2083.67 674.726 L2087.95 674.726 L2087.95 678.754 Q2089.29 676.393 2091.45 675.259 Q2093.6 674.101 2096.68 674.101 Q2097.12 674.101 2097.65 674.171 Q2098.18 674.217 2098.83 674.333 L2098.85 678.708 Z" fill="#000000" fill-rule="evenodd" fill-opacity="1" /><path clip-path="url(#clip620)" d="M2115.1 687.62 Q2109.94 687.62 2107.95 688.8 Q2105.96 689.981 2105.96 692.828 Q2105.96 695.096 2107.44 696.439 Q2108.95 697.758 2111.52 697.758 Q2115.06 697.758 2117.19 695.258 Q2119.34 692.735 2119.34 688.569 L2119.34 687.62 L2115.1 687.62 M2123.6 685.86 L2123.6 700.652 L2119.34 700.652 L2119.34 696.717 Q2117.88 699.078 2115.71 700.212 Q2113.53 701.323 2110.38 701.323 Q2106.4 701.323 2104.04 699.101 Q2101.7 696.856 2101.7 693.106 Q2101.7 688.731 2104.62 686.509 Q2107.56 684.286 2113.37 684.286 L2119.34 684.286 L2119.34 683.87 Q2119.34 680.93 2117.4 679.333 Q2115.48 677.712 2111.98 677.712 Q2109.76 677.712 2107.65 678.245 Q2105.54 678.777 2103.6 679.842 L2103.6 675.907 Q2105.94 675.004 2108.14 674.564 Q2110.34 674.101 2112.42 674.101 Q2118.04 674.101 2120.82 677.018 Q2123.6 679.934 2123.6 685.86 Z" fill="#000000" fill-rule="evenodd" fill-opacity="1" /><path clip-path="url(#clip620)" d="M2136.59 667.365 L2136.59 674.726 L2145.36 674.726 L2145.36 678.036 L2136.59 678.036 L2136.59 692.11 Q2136.59 695.282 2137.44 696.184 Q2138.32 697.087 2140.98 697.087 L2145.36 697.087 L2145.36 700.652 L2140.98 700.652 Q2136.05 700.652 2134.18 698.823 Q2132.3 696.971 2132.3 692.11 L2132.3 678.036 L2129.18 678.036 L2129.18 674.726 L2132.3 674.726 L2132.3 667.365 L2136.59 667.365 Z" fill="#000000" fill-rule="evenodd" fill-opacity="1" /><path clip-path="url(#clip620)" d="M2173.14 686.624 L2173.14 688.708 L2153.55 688.708 Q2153.83 693.106 2156.19 695.421 Q2158.58 697.712 2162.81 697.712 Q2165.27 697.712 2167.56 697.11 Q2169.87 696.508 2172.14 695.305 L2172.14 699.333 Q2169.85 700.305 2167.44 700.814 Q2165.04 701.323 2162.56 701.323 Q2156.35 701.323 2152.72 697.712 Q2149.11 694.101 2149.11 687.944 Q2149.11 681.578 2152.54 677.851 Q2155.98 674.101 2161.82 674.101 Q2167.05 674.101 2170.08 677.481 Q2173.14 680.837 2173.14 686.624 M2168.88 685.374 Q2168.83 681.879 2166.91 679.796 Q2165.01 677.712 2161.86 677.712 Q2158.3 677.712 2156.15 679.726 Q2154.02 681.74 2153.69 685.397 L2168.88 685.374 Z" fill="#000000" fill-rule="evenodd" fill-opacity="1" /><path clip-path="url(#clip620)" d="M2197.19 687.388 Q2197.19 682.759 2195.27 680.212 Q2193.37 677.666 2189.92 677.666 Q2186.49 677.666 2184.57 680.212 Q2182.67 682.759 2182.67 687.388 Q2182.67 691.995 2184.57 694.541 Q2186.49 697.087 2189.92 697.087 Q2193.37 697.087 2195.27 694.541 Q2197.19 691.995 2197.19 687.388 M2201.45 697.434 Q2201.45 704.055 2198.51 707.272 Q2195.57 710.513 2189.5 710.513 Q2187.26 710.513 2185.27 710.166 Q2183.28 709.842 2181.4 709.147 L2181.4 705.004 Q2183.28 706.022 2185.1 706.508 Q2186.93 706.995 2188.83 706.995 Q2193.02 706.995 2195.1 704.795 Q2197.19 702.62 2197.19 698.198 L2197.19 696.092 Q2195.87 698.383 2193.81 699.518 Q2191.75 700.652 2188.88 700.652 Q2184.11 700.652 2181.19 697.018 Q2178.28 693.383 2178.28 687.388 Q2178.28 681.37 2181.19 677.735 Q2184.11 674.101 2188.88 674.101 Q2191.75 674.101 2193.81 675.235 Q2195.87 676.37 2197.19 678.661 L2197.19 674.726 L2201.45 674.726 L2201.45 697.434 Z" fill="#000000" fill-rule="evenodd" fill-opacity="1" /><path clip-path="url(#clip620)" d="M2221.01 703.059 Q2219.2 707.689 2217.49 709.101 Q2215.78 710.513 2212.91 710.513 L2209.5 710.513 L2209.5 706.948 L2212 706.948 Q2213.76 706.948 2214.73 706.115 Q2215.71 705.282 2216.89 702.18 L2217.65 700.235 L2207.16 674.726 L2211.68 674.726 L2219.78 695.004 L2227.88 674.726 L2232.4 674.726 L2221.01 703.059 Z" fill="#000000" fill-rule="evenodd" fill-opacity="1" /><polyline clip-path="url(#clip620)" style="stroke:#e26f46; stroke-linecap:butt; stroke-linejoin:round; stroke-width:4; stroke-opacity:1; fill:none" points="
  1656.07,735.212 1800.5,735.212 
  "/>
<path clip-path="url(#clip620)" d="M1850.13 747.561 L1850.13 738.279 L1842.49 738.279 L1842.49 734.437 L1854.76 734.437 L1854.76 749.274 Q1852.05 751.196 1848.79 752.191 Q1845.52 753.163 1841.82 753.163 Q1833.72 753.163 1829.13 748.441 Q1824.57 743.696 1824.57 735.247 Q1824.57 726.775 1829.13 722.052 Q1833.72 717.307 1841.82 717.307 Q1845.2 717.307 1848.23 718.14 Q1851.29 718.974 1853.86 720.594 L1853.86 725.571 Q1851.26 723.372 1848.35 722.261 Q1845.43 721.15 1842.21 721.15 Q1835.87 721.15 1832.68 724.691 Q1829.5 728.233 1829.5 735.247 Q1829.5 742.237 1832.68 745.779 Q1835.87 749.321 1842.21 749.321 Q1844.69 749.321 1846.63 748.904 Q1848.58 748.464 1850.13 747.561 Z" fill="#000000" fill-rule="evenodd" fill-opacity="1" /><path clip-path="url(#clip620)" d="M1878.14 730.548 Q1877.42 730.131 1876.56 729.946 Q1875.73 729.737 1874.71 729.737 Q1871.1 729.737 1869.16 732.099 Q1867.24 734.437 1867.24 738.835 L1867.24 752.492 L1862.95 752.492 L1862.95 726.566 L1867.24 726.566 L1867.24 730.594 Q1868.58 728.233 1870.73 727.099 Q1872.88 725.941 1875.96 725.941 Q1876.4 725.941 1876.93 726.011 Q1877.47 726.057 1878.12 726.173 L1878.14 730.548 Z" fill="#000000" fill-rule="evenodd" fill-opacity="1" /><path clip-path="url(#clip620)" d="M1891.61 729.552 Q1888.18 729.552 1886.19 732.237 Q1884.2 734.899 1884.2 739.552 Q1884.2 744.205 1886.17 746.89 Q1888.16 749.552 1891.61 749.552 Q1895.01 749.552 1897 746.867 Q1898.99 744.182 1898.99 739.552 Q1898.99 734.946 1897 732.261 Q1895.01 729.552 1891.61 729.552 M1891.61 725.941 Q1897.17 725.941 1900.34 729.552 Q1903.51 733.163 1903.51 739.552 Q1903.51 745.918 1900.34 749.552 Q1897.17 753.163 1891.61 753.163 Q1886.03 753.163 1882.86 749.552 Q1879.71 745.918 1879.71 739.552 Q1879.71 733.163 1882.86 729.552 Q1886.03 725.941 1891.61 725.941 Z" fill="#000000" fill-rule="evenodd" fill-opacity="1" /><path clip-path="url(#clip620)" d="M1910.13 742.261 L1910.13 726.566 L1914.39 726.566 L1914.39 742.099 Q1914.39 745.779 1915.82 747.631 Q1917.26 749.46 1920.13 749.46 Q1923.58 749.46 1925.57 747.261 Q1927.58 745.061 1927.58 741.265 L1927.58 726.566 L1931.84 726.566 L1931.84 752.492 L1927.58 752.492 L1927.58 748.511 Q1926.03 750.872 1923.97 752.029 Q1921.93 753.163 1919.23 753.163 Q1914.76 753.163 1912.44 750.385 Q1910.13 747.608 1910.13 742.261 M1920.85 725.941 L1920.85 725.941 Z" fill="#000000" fill-rule="evenodd" fill-opacity="1" /><path clip-path="url(#clip620)" d="M1962.17 736.844 L1962.17 752.492 L1957.91 752.492 L1957.91 736.983 Q1957.91 733.302 1956.47 731.474 Q1955.04 729.645 1952.17 729.645 Q1948.72 729.645 1946.73 731.844 Q1944.74 734.043 1944.74 737.839 L1944.74 752.492 L1940.45 752.492 L1940.45 726.566 L1944.74 726.566 L1944.74 730.594 Q1946.26 728.256 1948.32 727.099 Q1950.41 725.941 1953.11 725.941 Q1957.58 725.941 1959.87 728.719 Q1962.17 731.474 1962.17 736.844 Z" fill="#000000" fill-rule="evenodd" fill-opacity="1" /><path clip-path="url(#clip620)" d="M1987.72 730.501 L1987.72 716.474 L1991.98 716.474 L1991.98 752.492 L1987.72 752.492 L1987.72 748.603 Q1986.38 750.918 1984.32 752.052 Q1982.28 753.163 1979.41 753.163 Q1974.71 753.163 1971.75 749.413 Q1968.81 745.663 1968.81 739.552 Q1968.81 733.441 1971.75 729.691 Q1974.71 725.941 1979.41 725.941 Q1982.28 725.941 1984.32 727.075 Q1986.38 728.187 1987.72 730.501 M1973.21 739.552 Q1973.21 744.251 1975.13 746.936 Q1977.07 749.598 1980.45 749.598 Q1983.83 749.598 1985.78 746.936 Q1987.72 744.251 1987.72 739.552 Q1987.72 734.853 1985.78 732.191 Q1983.83 729.506 1980.45 729.506 Q1977.07 729.506 1975.13 732.191 Q1973.21 734.853 1973.21 739.552 Z" fill="#000000" fill-rule="evenodd" fill-opacity="1" /><path clip-path="url(#clip620)" d="M2036.73 719.066 L2036.73 723.626 Q2034.06 722.353 2031.7 721.728 Q2029.34 721.103 2027.14 721.103 Q2023.32 721.103 2021.24 722.585 Q2019.18 724.066 2019.18 726.798 Q2019.18 729.089 2020.55 730.27 Q2021.93 731.427 2025.78 732.145 L2028.6 732.724 Q2033.83 733.719 2036.31 736.242 Q2038.81 738.742 2038.81 742.955 Q2038.81 747.978 2035.43 750.571 Q2032.07 753.163 2025.57 753.163 Q2023.11 753.163 2020.34 752.608 Q2017.58 752.052 2014.62 750.964 L2014.62 746.149 Q2017.47 747.747 2020.2 748.557 Q2022.93 749.367 2025.57 749.367 Q2029.57 749.367 2031.75 747.793 Q2033.92 746.219 2033.92 743.302 Q2033.92 740.756 2032.35 739.321 Q2030.8 737.886 2027.23 737.168 L2024.39 736.612 Q2019.16 735.571 2016.82 733.349 Q2014.48 731.126 2014.48 727.168 Q2014.48 722.585 2017.7 719.946 Q2020.94 717.307 2026.61 717.307 Q2029.04 717.307 2031.56 717.747 Q2034.09 718.187 2036.73 719.066 Z" fill="#000000" fill-rule="evenodd" fill-opacity="1" /><path clip-path="url(#clip620)" d="M2050.13 719.205 L2050.13 726.566 L2058.9 726.566 L2058.9 729.876 L2050.13 729.876 L2050.13 743.95 Q2050.13 747.122 2050.98 748.024 Q2051.86 748.927 2054.53 748.927 L2058.9 748.927 L2058.9 752.492 L2054.53 752.492 Q2049.6 752.492 2047.72 750.663 Q2045.85 748.811 2045.85 743.95 L2045.85 729.876 L2042.72 729.876 L2042.72 726.566 L2045.85 726.566 L2045.85 719.205 L2050.13 719.205 Z" fill="#000000" fill-rule="evenodd" fill-opacity="1" /><path clip-path="url(#clip620)" d="M2079.53 730.548 Q2078.81 730.131 2077.95 729.946 Q2077.12 729.737 2076.1 729.737 Q2072.49 729.737 2070.54 732.099 Q2068.62 734.437 2068.62 738.835 L2068.62 752.492 L2064.34 752.492 L2064.34 726.566 L2068.62 726.566 L2068.62 730.594 Q2069.97 728.233 2072.12 727.099 Q2074.27 725.941 2077.35 725.941 Q2077.79 725.941 2078.32 726.011 Q2078.85 726.057 2079.5 726.173 L2079.53 730.548 Z" fill="#000000" fill-rule="evenodd" fill-opacity="1" /><path clip-path="url(#clip620)" d="M2095.78 739.46 Q2090.61 739.46 2088.62 740.64 Q2086.63 741.821 2086.63 744.668 Q2086.63 746.936 2088.11 748.279 Q2089.62 749.598 2092.19 749.598 Q2095.73 749.598 2097.86 747.098 Q2100.01 744.575 2100.01 740.409 L2100.01 739.46 L2095.78 739.46 M2104.27 737.7 L2104.27 752.492 L2100.01 752.492 L2100.01 748.557 Q2098.55 750.918 2096.38 752.052 Q2094.2 753.163 2091.05 753.163 Q2087.07 753.163 2084.71 750.941 Q2082.37 748.696 2082.37 744.946 Q2082.37 740.571 2085.29 738.349 Q2088.23 736.126 2094.04 736.126 L2100.01 736.126 L2100.01 735.71 Q2100.01 732.77 2098.07 731.173 Q2096.15 729.552 2092.65 729.552 Q2090.43 729.552 2088.32 730.085 Q2086.22 730.617 2084.27 731.682 L2084.27 727.747 Q2086.61 726.844 2088.81 726.404 Q2091.01 725.941 2093.09 725.941 Q2098.72 725.941 2101.49 728.858 Q2104.27 731.774 2104.27 737.7 Z" fill="#000000" fill-rule="evenodd" fill-opacity="1" /><path clip-path="url(#clip620)" d="M2117.26 719.205 L2117.26 726.566 L2126.03 726.566 L2126.03 729.876 L2117.26 729.876 L2117.26 743.95 Q2117.26 747.122 2118.11 748.024 Q2118.99 748.927 2121.66 748.927 L2126.03 748.927 L2126.03 752.492 L2121.66 752.492 Q2116.73 752.492 2114.85 750.663 Q2112.98 748.811 2112.98 743.95 L2112.98 729.876 L2109.85 729.876 L2109.85 726.566 L2112.98 726.566 L2112.98 719.205 L2117.26 719.205 Z" fill="#000000" fill-rule="evenodd" fill-opacity="1" /><path clip-path="url(#clip620)" d="M2153.81 738.464 L2153.81 740.548 L2134.23 740.548 Q2134.5 744.946 2136.86 747.261 Q2139.25 749.552 2143.48 749.552 Q2145.94 749.552 2148.23 748.95 Q2150.54 748.348 2152.81 747.145 L2152.81 751.173 Q2150.52 752.145 2148.11 752.654 Q2145.71 753.163 2143.23 753.163 Q2137.03 753.163 2133.39 749.552 Q2129.78 745.941 2129.78 739.784 Q2129.78 733.418 2133.21 729.691 Q2136.66 725.941 2142.49 725.941 Q2147.72 725.941 2150.75 729.321 Q2153.81 732.677 2153.81 738.464 M2149.55 737.214 Q2149.5 733.719 2147.58 731.636 Q2145.68 729.552 2142.54 729.552 Q2138.97 729.552 2136.82 731.566 Q2134.69 733.58 2134.36 737.237 L2149.55 737.214 Z" fill="#000000" fill-rule="evenodd" fill-opacity="1" /><path clip-path="url(#clip620)" d="M2177.86 739.228 Q2177.86 734.599 2175.94 732.052 Q2174.04 729.506 2170.59 729.506 Q2167.16 729.506 2165.24 732.052 Q2163.35 734.599 2163.35 739.228 Q2163.35 743.835 2165.24 746.381 Q2167.16 748.927 2170.59 748.927 Q2174.04 748.927 2175.94 746.381 Q2177.86 743.835 2177.86 739.228 M2182.12 749.274 Q2182.12 755.895 2179.18 759.112 Q2176.24 762.353 2170.17 762.353 Q2167.93 762.353 2165.94 762.006 Q2163.95 761.682 2162.07 760.987 L2162.07 756.844 Q2163.95 757.862 2165.78 758.348 Q2167.6 758.835 2169.5 758.835 Q2173.69 758.835 2175.78 756.635 Q2177.86 754.46 2177.86 750.038 L2177.86 747.932 Q2176.54 750.223 2174.48 751.358 Q2172.42 752.492 2169.55 752.492 Q2164.78 752.492 2161.86 748.858 Q2158.95 745.223 2158.95 739.228 Q2158.95 733.21 2161.86 729.575 Q2164.78 725.941 2169.55 725.941 Q2172.42 725.941 2174.48 727.075 Q2176.54 728.21 2177.86 730.501 L2177.86 726.566 L2182.12 726.566 L2182.12 749.274 Z" fill="#000000" fill-rule="evenodd" fill-opacity="1" /><path clip-path="url(#clip620)" d="M2201.68 754.899 Q2199.87 759.529 2198.16 760.941 Q2196.45 762.353 2193.58 762.353 L2190.17 762.353 L2190.17 758.788 L2192.67 758.788 Q2194.43 758.788 2195.41 757.955 Q2196.38 757.122 2197.56 754.02 L2198.32 752.075 L2187.84 726.566 L2192.35 726.566 L2200.45 746.844 L2208.55 726.566 L2213.07 726.566 L2201.68 754.899 Z" fill="#000000" fill-rule="evenodd" fill-opacity="1" /></svg>
