<?xml version="1.0" encoding="utf-8"?>
<svg xmlns="http://www.w3.org/2000/svg" xmlns:xlink="http://www.w3.org/1999/xlink" width="600" height="400" viewBox="0 0 2400 1600">
<defs>
  <clipPath id="clip760">
    <rect x="0" y="0" width="2400" height="1600"/>
  </clipPath>
</defs>
<path clip-path="url(#clip760)" d="
M0 1600 L2400 1600 L2400 0 L0 0  Z
  " fill="#ffffff" fill-rule="evenodd" fill-opacity="1"/>
<defs>
  <clipPath id="clip761">
    <rect x="480" y="0" width="1681" height="1600"/>
  </clipPath>
</defs>
<path clip-path="url(#clip760)" d="
M156.598 1423.18 L2352.76 1423.18 L2352.76 47.2441 L156.598 47.2441  Z
  " fill="#ffffff" fill-rule="evenodd" fill-opacity="1"/>
<defs>
  <clipPath id="clip762">
    <rect x="156" y="47" width="2197" height="1377"/>
  </clipPath>
</defs>
<polyline clip-path="url(#clip762)" style="stroke:#000000; stroke-linecap:butt; stroke-linejoin:round; stroke-width:2; stroke-opacity:0.1; fill:none" points="
  654.932,1423.18 654.932,47.2441 
  "/>
<polyline clip-path="url(#clip762)" style="stroke:#000000; stroke-linecap:butt; stroke-linejoin:round; stroke-width:2; stroke-opacity:0.1; fill:none" points="
  1200.15,1423.18 1200.15,47.2441 
  "/>
<polyline clip-path="url(#clip762)" style="stroke:#000000; stroke-linecap:butt; stroke-linejoin:round; stroke-width:2; stroke-opacity:0.1; fill:none" points="
  1745.38,1423.18 1745.38,47.2441 
  "/>
<polyline clip-path="url(#clip762)" style="stroke:#000000; stroke-linecap:butt; stroke-linejoin:round; stroke-width:2; stroke-opacity:0.1; fill:none" points="
  2290.6,1423.18 2290.6,47.2441 
  "/>
<polyline clip-path="url(#clip760)" style="stroke:#000000; stroke-linecap:butt; stroke-linejoin:round; stroke-width:4; stroke-opacity:1; fill:none" points="
  156.598,1423.18 2352.76,1423.18 
  "/>
<polyline clip-path="url(#clip760)" style="stroke:#000000; stroke-linecap:butt; stroke-linejoin:round; stroke-width:4; stroke-opacity:1; fill:none" points="
  654.932,1423.18 654.932,1404.28 
  "/>
<polyline clip-path="url(#clip760)" style="stroke:#000000; stroke-linecap:butt; stroke-linejoin:round; stroke-width:4; stroke-opacity:1; fill:none" points="
  1200.15,1423.18 1200.15,1404.28 
  "/>
<polyline clip-path="url(#clip760)" style="stroke:#000000; stroke-linecap:butt; stroke-linejoin:round; stroke-width:4; stroke-opacity:1; fill:none" points="
  1745.38,1423.18 1745.38,1404.28 
  "/>
<polyline clip-path="url(#clip760)" style="stroke:#000000; stroke-linecap:butt; stroke-linejoin:round; stroke-width:4; stroke-opacity:1; fill:none" points="
  2290.6,1423.18 2290.6,1404.28 
  "/>
<path clip-path="url(#clip760)" d="M645.21 1451.02 L663.566 1451.02 L663.566 1454.96 L649.492 1454.96 L649.492 1463.43 Q650.511 1463.08 651.529 1462.92 Q652.548 1462.73 653.566 1462.73 Q659.353 1462.73 662.733 1465.9 Q666.112 1469.08 666.112 1474.49 Q666.112 1480.07 662.64 1483.17 Q659.168 1486.25 652.849 1486.25 Q650.673 1486.25 648.404 1485.88 Q646.159 1485.51 643.751 1484.77 L643.751 1480.07 Q645.835 1481.2 648.057 1481.76 Q650.279 1482.32 652.756 1482.32 Q656.761 1482.32 659.099 1480.21 Q661.437 1478.1 661.437 1474.49 Q661.437 1470.88 659.099 1468.77 Q656.761 1466.67 652.756 1466.67 Q650.881 1466.67 649.006 1467.08 Q647.154 1467.5 645.21 1468.38 L645.21 1451.02 Z" fill="#000000" fill-rule="evenodd" fill-opacity="1" /><path clip-path="url(#clip760)" d="M1174.84 1481.64 L1182.48 1481.64 L1182.48 1455.28 L1174.17 1456.95 L1174.17 1452.69 L1182.43 1451.02 L1187.11 1451.02 L1187.11 1481.64 L1194.75 1481.64 L1194.75 1485.58 L1174.84 1485.58 L1174.84 1481.64 Z" fill="#000000" fill-rule="evenodd" fill-opacity="1" /><path clip-path="url(#clip760)" d="M1214.19 1454.1 Q1210.58 1454.1 1208.75 1457.66 Q1206.95 1461.2 1206.95 1468.33 Q1206.95 1475.44 1208.75 1479.01 Q1210.58 1482.55 1214.19 1482.55 Q1217.83 1482.55 1219.63 1479.01 Q1221.46 1475.44 1221.46 1468.33 Q1221.46 1461.2 1219.63 1457.66 Q1217.83 1454.1 1214.19 1454.1 M1214.19 1450.39 Q1220 1450.39 1223.06 1455 Q1226.14 1459.58 1226.14 1468.33 Q1226.14 1477.06 1223.06 1481.67 Q1220 1486.25 1214.19 1486.25 Q1208.38 1486.25 1205.31 1481.67 Q1202.25 1477.06 1202.25 1468.33 Q1202.25 1459.58 1205.31 1455 Q1208.38 1450.39 1214.19 1450.39 Z" fill="#000000" fill-rule="evenodd" fill-opacity="1" /><path clip-path="url(#clip760)" d="M1720.56 1481.64 L1728.2 1481.64 L1728.2 1455.28 L1719.89 1456.95 L1719.89 1452.69 L1728.16 1451.02 L1732.83 1451.02 L1732.83 1481.64 L1740.47 1481.64 L1740.47 1485.58 L1720.56 1485.58 L1720.56 1481.64 Z" fill="#000000" fill-rule="evenodd" fill-opacity="1" /><path clip-path="url(#clip760)" d="M1749.96 1451.02 L1768.32 1451.02 L1768.32 1454.96 L1754.24 1454.96 L1754.24 1463.43 Q1755.26 1463.08 1756.28 1462.92 Q1757.3 1462.73 1758.32 1462.73 Q1764.1 1462.73 1767.48 1465.9 Q1770.86 1469.08 1770.86 1474.49 Q1770.86 1480.07 1767.39 1483.17 Q1763.92 1486.25 1757.6 1486.25 Q1755.42 1486.25 1753.16 1485.88 Q1750.91 1485.51 1748.5 1484.77 L1748.5 1480.07 Q1750.59 1481.2 1752.81 1481.76 Q1755.03 1482.32 1757.51 1482.32 Q1761.51 1482.32 1763.85 1480.21 Q1766.19 1478.1 1766.19 1474.49 Q1766.19 1470.88 1763.85 1468.77 Q1761.51 1466.67 1757.51 1466.67 Q1755.63 1466.67 1753.76 1467.08 Q1751.91 1467.5 1749.96 1468.38 L1749.96 1451.02 Z" fill="#000000" fill-rule="evenodd" fill-opacity="1" /><path clip-path="url(#clip760)" d="M2269.37 1481.64 L2285.69 1481.64 L2285.69 1485.58 L2263.75 1485.58 L2263.75 1481.64 Q2266.41 1478.89 2270.99 1474.26 Q2275.6 1469.61 2276.78 1468.27 Q2279.03 1465.74 2279.91 1464.01 Q2280.81 1462.25 2280.81 1460.56 Q2280.81 1457.8 2278.86 1456.07 Q2276.94 1454.33 2273.84 1454.33 Q2271.64 1454.33 2269.19 1455.09 Q2266.76 1455.86 2263.98 1457.41 L2263.98 1452.69 Q2266.8 1451.55 2269.26 1450.97 Q2271.71 1450.39 2273.75 1450.39 Q2279.12 1450.39 2282.31 1453.08 Q2285.51 1455.77 2285.51 1460.26 Q2285.51 1462.39 2284.7 1464.31 Q2283.91 1466.2 2281.8 1468.8 Q2281.23 1469.47 2278.12 1472.69 Q2275.02 1475.88 2269.37 1481.64 Z" fill="#000000" fill-rule="evenodd" fill-opacity="1" /><path clip-path="url(#clip760)" d="M2305.51 1454.1 Q2301.9 1454.1 2300.07 1457.66 Q2298.26 1461.2 2298.26 1468.33 Q2298.26 1475.44 2300.07 1479.01 Q2301.9 1482.55 2305.51 1482.55 Q2309.14 1482.55 2310.95 1479.01 Q2312.78 1475.44 2312.78 1468.33 Q2312.78 1461.2 2310.95 1457.66 Q2309.14 1454.1 2305.51 1454.1 M2305.51 1450.39 Q2311.32 1450.39 2314.37 1455 Q2317.45 1459.58 2317.45 1468.33 Q2317.45 1477.06 2314.37 1481.67 Q2311.32 1486.25 2305.51 1486.25 Q2299.7 1486.25 2296.62 1481.67 Q2293.56 1477.06 2293.56 1468.33 Q2293.56 1459.58 2296.62 1455 Q2299.7 1450.39 2305.51 1450.39 Z" fill="#000000" fill-rule="evenodd" fill-opacity="1" /><path clip-path="url(#clip760)" d="M1092.03 1520.52 L1132.23 1520.52 L1132.23 1525.93 L1115.36 1525.93 L1115.36 1568.04 L1108.9 1568.04 L1108.9 1525.93 L1092.03 1525.93 L1092.03 1520.52 Z" fill="#000000" fill-rule="evenodd" fill-opacity="1" /><path clip-path="url(#clip760)" d="M1136.18 1532.4 L1142.04 1532.4 L1142.04 1568.04 L1136.18 1568.04 L1136.18 1532.4 M1136.18 1518.52 L1142.04 1518.52 L1142.04 1525.93 L1136.18 1525.93 L1136.18 1518.52 Z" fill="#000000" fill-rule="evenodd" fill-opacity="1" /><path clip-path="url(#clip760)" d="M1182.04 1539.24 Q1184.24 1535.29 1187.3 1533.41 Q1190.35 1531.54 1194.49 1531.54 Q1200.06 1531.54 1203.08 1535.45 Q1206.11 1539.33 1206.11 1546.53 L1206.11 1568.04 L1200.22 1568.04 L1200.22 1546.72 Q1200.22 1541.59 1198.4 1539.11 Q1196.59 1536.63 1192.87 1536.63 Q1188.31 1536.63 1185.67 1539.65 Q1183.03 1542.68 1183.03 1547.9 L1183.03 1568.04 L1177.14 1568.04 L1177.14 1546.72 Q1177.14 1541.56 1175.33 1539.11 Q1173.51 1536.63 1169.73 1536.63 Q1165.24 1536.63 1162.6 1539.68 Q1159.96 1542.71 1159.96 1547.9 L1159.96 1568.04 L1154.07 1568.04 L1154.07 1532.4 L1159.96 1532.4 L1159.96 1537.93 Q1161.96 1534.66 1164.76 1533.1 Q1167.56 1531.54 1171.41 1531.54 Q1175.3 1531.54 1178 1533.51 Q1180.74 1535.48 1182.04 1539.24 Z" fill="#000000" fill-rule="evenodd" fill-opacity="1" /><path clip-path="url(#clip760)" d="M1248.28 1548.76 L1248.28 1551.62 L1221.35 1551.62 Q1221.73 1557.67 1224.98 1560.85 Q1228.26 1564 1234.08 1564 Q1237.46 1564 1240.61 1563.17 Q1243.79 1562.35 1246.91 1560.69 L1246.91 1566.23 Q1243.76 1567.57 1240.45 1568.27 Q1237.14 1568.97 1233.73 1568.97 Q1225.2 1568.97 1220.21 1564 Q1215.24 1559.04 1215.24 1550.57 Q1215.24 1541.82 1219.95 1536.69 Q1224.69 1531.54 1232.72 1531.54 Q1239.91 1531.54 1244.08 1536.18 Q1248.28 1540.8 1248.28 1548.76 M1242.42 1547.04 Q1242.36 1542.23 1239.72 1539.37 Q1237.11 1536.5 1232.78 1536.5 Q1227.88 1536.5 1224.92 1539.27 Q1221.99 1542.04 1221.54 1547.07 L1242.42 1547.04 Z" fill="#000000" fill-rule="evenodd" fill-opacity="1" /><path clip-path="url(#clip760)" d="M1307.35 1522.08 L1307.35 1528.35 Q1303.69 1526.6 1300.45 1525.74 Q1297.2 1524.88 1294.18 1524.88 Q1288.92 1524.88 1286.06 1526.92 Q1283.23 1528.96 1283.23 1532.71 Q1283.23 1535.87 1285.11 1537.49 Q1287.01 1539.08 1292.3 1540.07 L1296.18 1540.86 Q1303.37 1542.23 1306.78 1545.7 Q1310.22 1549.14 1310.22 1554.93 Q1310.22 1561.84 1305.57 1565.4 Q1300.96 1568.97 1292.01 1568.97 Q1288.64 1568.97 1284.82 1568.2 Q1281.03 1567.44 1276.96 1565.94 L1276.96 1559.32 Q1280.87 1561.52 1284.63 1562.63 Q1288.38 1563.75 1292.01 1563.75 Q1297.52 1563.75 1300.51 1561.58 Q1303.5 1559.42 1303.5 1555.41 Q1303.5 1551.91 1301.34 1549.93 Q1299.21 1547.96 1294.3 1546.97 L1290.39 1546.21 Q1283.2 1544.78 1279.98 1541.72 Q1276.77 1538.67 1276.77 1533.22 Q1276.77 1526.92 1281.19 1523.29 Q1285.65 1519.66 1293.44 1519.66 Q1296.79 1519.66 1300.26 1520.27 Q1303.72 1520.87 1307.35 1522.08 Z" fill="#000000" fill-rule="evenodd" fill-opacity="1" /><path clip-path="url(#clip760)" d="M1325.78 1522.27 L1325.78 1532.4 L1337.85 1532.4 L1337.85 1536.95 L1325.78 1536.95 L1325.78 1556.3 Q1325.78 1560.66 1326.96 1561.9 Q1328.17 1563.14 1331.83 1563.14 L1337.85 1563.14 L1337.85 1568.04 L1331.83 1568.04 Q1325.05 1568.04 1322.47 1565.53 Q1319.89 1562.98 1319.89 1556.3 L1319.89 1536.95 L1315.6 1536.95 L1315.6 1532.4 L1319.89 1532.4 L1319.89 1522.27 L1325.78 1522.27 Z" fill="#000000" fill-rule="evenodd" fill-opacity="1" /><path clip-path="url(#clip760)" d="M1376.04 1548.76 L1376.04 1551.62 L1349.11 1551.62 Q1349.49 1557.67 1352.74 1560.85 Q1356.02 1564 1361.84 1564 Q1365.22 1564 1368.37 1563.17 Q1371.55 1562.35 1374.67 1560.69 L1374.67 1566.23 Q1371.52 1567.57 1368.21 1568.27 Q1364.9 1568.97 1361.49 1568.97 Q1352.96 1568.97 1347.97 1564 Q1343 1559.04 1343 1550.57 Q1343 1541.82 1347.71 1536.69 Q1352.45 1531.54 1360.48 1531.54 Q1367.67 1531.54 1371.84 1536.18 Q1376.04 1540.8 1376.04 1548.76 M1370.18 1547.04 Q1370.12 1542.23 1367.48 1539.37 Q1364.87 1536.5 1360.54 1536.5 Q1355.64 1536.5 1352.68 1539.27 Q1349.75 1542.04 1349.3 1547.07 L1370.18 1547.04 Z" fill="#000000" fill-rule="evenodd" fill-opacity="1" /><path clip-path="url(#clip760)" d="M1391.32 1562.7 L1391.32 1581.6 L1385.43 1581.6 L1385.43 1532.4 L1391.32 1532.4 L1391.32 1537.81 Q1393.16 1534.62 1395.96 1533.1 Q1398.8 1531.54 1402.71 1531.54 Q1409.2 1531.54 1413.25 1536.69 Q1417.32 1541.85 1417.32 1550.25 Q1417.32 1558.65 1413.25 1563.81 Q1409.2 1568.97 1402.71 1568.97 Q1398.8 1568.97 1395.96 1567.44 Q1393.16 1565.88 1391.32 1562.7 M1411.24 1550.25 Q1411.24 1543.79 1408.57 1540.13 Q1405.93 1536.44 1401.28 1536.44 Q1396.63 1536.44 1393.96 1540.13 Q1391.32 1543.79 1391.32 1550.25 Q1391.32 1556.71 1393.96 1560.4 Q1396.63 1564.07 1401.28 1564.07 Q1405.93 1564.07 1408.57 1560.4 Q1411.24 1556.71 1411.24 1550.25 Z" fill="#000000" fill-rule="evenodd" fill-opacity="1" /><polyline clip-path="url(#clip762)" style="stroke:#000000; stroke-linecap:butt; stroke-linejoin:round; stroke-width:2; stroke-opacity:0.1; fill:none" points="
  156.598,1384.42 2352.76,1384.42 
  "/>
<polyline clip-path="url(#clip762)" style="stroke:#000000; stroke-linecap:butt; stroke-linejoin:round; stroke-width:2; stroke-opacity:0.1; fill:none" points="
  156.598,1016.98 2352.76,1016.98 
  "/>
<polyline clip-path="url(#clip762)" style="stroke:#000000; stroke-linecap:butt; stroke-linejoin:round; stroke-width:2; stroke-opacity:0.1; fill:none" points="
  156.598,649.536 2352.76,649.536 
  "/>
<polyline clip-path="url(#clip762)" style="stroke:#000000; stroke-linecap:butt; stroke-linejoin:round; stroke-width:2; stroke-opacity:0.1; fill:none" points="
  156.598,282.093 2352.76,282.093 
  "/>
<polyline clip-path="url(#clip760)" style="stroke:#000000; stroke-linecap:butt; stroke-linejoin:round; stroke-width:4; stroke-opacity:1; fill:none" points="
  156.598,1423.18 156.598,47.2441 
  "/>
<polyline clip-path="url(#clip760)" style="stroke:#000000; stroke-linecap:butt; stroke-linejoin:round; stroke-width:4; stroke-opacity:1; fill:none" points="
  156.598,1384.42 175.496,1384.42 
  "/>
<polyline clip-path="url(#clip760)" style="stroke:#000000; stroke-linecap:butt; stroke-linejoin:round; stroke-width:4; stroke-opacity:1; fill:none" points="
  156.598,1016.98 175.496,1016.98 
  "/>
<polyline clip-path="url(#clip760)" style="stroke:#000000; stroke-linecap:butt; stroke-linejoin:round; stroke-width:4; stroke-opacity:1; fill:none" points="
  156.598,649.536 175.496,649.536 
  "/>
<polyline clip-path="url(#clip760)" style="stroke:#000000; stroke-linecap:butt; stroke-linejoin:round; stroke-width:4; stroke-opacity:1; fill:none" points="
  156.598,282.093 175.496,282.093 
  "/>
<path clip-path="url(#clip760)" d="M63.4226 1370.22 Q59.8115 1370.22 57.9828 1373.79 Q56.1773 1377.33 56.1773 1384.46 Q56.1773 1391.56 57.9828 1395.13 Q59.8115 1398.67 63.4226 1398.67 Q67.0569 1398.67 68.8624 1395.13 Q70.6911 1391.56 70.6911 1384.46 Q70.6911 1377.33 68.8624 1373.79 Q67.0569 1370.22 63.4226 1370.22 M63.4226 1366.52 Q69.2328 1366.52 72.2883 1371.12 Q75.367 1375.71 75.367 1384.46 Q75.367 1393.18 72.2883 1397.79 Q69.2328 1402.37 63.4226 1402.37 Q57.6125 1402.37 54.5338 1397.79 Q51.4782 1393.18 51.4782 1384.46 Q51.4782 1375.71 54.5338 1371.12 Q57.6125 1366.52 63.4226 1366.52 Z" fill="#000000" fill-rule="evenodd" fill-opacity="1" /><path clip-path="url(#clip760)" d="M83.5845 1395.82 L88.4688 1395.82 L88.4688 1401.7 L83.5845 1401.7 L83.5845 1395.82 Z" fill="#000000" fill-rule="evenodd" fill-opacity="1" /><path clip-path="url(#clip760)" d="M108.654 1370.22 Q105.043 1370.22 103.214 1373.79 Q101.409 1377.33 101.409 1384.46 Q101.409 1391.56 103.214 1395.13 Q105.043 1398.67 108.654 1398.67 Q112.288 1398.67 114.094 1395.13 Q115.922 1391.56 115.922 1384.46 Q115.922 1377.33 114.094 1373.79 Q112.288 1370.22 108.654 1370.22 M108.654 1366.52 Q114.464 1366.52 117.52 1371.12 Q120.598 1375.71 120.598 1384.46 Q120.598 1393.18 117.52 1397.79 Q114.464 1402.37 108.654 1402.37 Q102.844 1402.37 99.765 1397.79 Q96.7095 1393.18 96.7095 1384.46 Q96.7095 1375.71 99.765 1371.12 Q102.844 1366.52 108.654 1366.52 Z" fill="#000000" fill-rule="evenodd" fill-opacity="1" /><path clip-path="url(#clip760)" d="M65.0198 1002.78 Q61.4087 1002.78 59.58 1006.34 Q57.7745 1009.88 57.7745 1017.01 Q57.7745 1024.12 59.58 1027.68 Q61.4087 1031.23 65.0198 1031.23 Q68.6541 1031.23 70.4596 1027.68 Q72.2883 1024.12 72.2883 1017.01 Q72.2883 1009.88 70.4596 1006.34 Q68.6541 1002.78 65.0198 1002.78 M65.0198 999.074 Q70.83 999.074 73.8855 1003.68 Q76.9642 1008.26 76.9642 1017.01 Q76.9642 1025.74 73.8855 1030.35 Q70.83 1034.93 65.0198 1034.93 Q59.2097 1034.93 56.131 1030.35 Q53.0754 1025.74 53.0754 1017.01 Q53.0754 1008.26 56.131 1003.68 Q59.2097 999.074 65.0198 999.074 Z" fill="#000000" fill-rule="evenodd" fill-opacity="1" /><path clip-path="url(#clip760)" d="M85.1818 1028.38 L90.066 1028.38 L90.066 1034.26 L85.1818 1034.26 L85.1818 1028.38 Z" fill="#000000" fill-rule="evenodd" fill-opacity="1" /><path clip-path="url(#clip760)" d="M104.279 1030.32 L120.598 1030.32 L120.598 1034.26 L98.6539 1034.26 L98.6539 1030.32 Q101.316 1027.57 105.899 1022.94 Q110.506 1018.29 111.686 1016.94 Q113.932 1014.42 114.811 1012.68 Q115.714 1010.93 115.714 1009.24 Q115.714 1006.48 113.77 1004.75 Q111.848 1003.01 108.746 1003.01 Q106.547 1003.01 104.094 1003.77 Q101.663 1004.54 98.8854 1006.09 L98.8854 1001.37 Q101.709 1000.23 104.163 999.653 Q106.617 999.074 108.654 999.074 Q114.024 999.074 117.219 1001.76 Q120.413 1004.44 120.413 1008.93 Q120.413 1011.06 119.603 1012.99 Q118.816 1014.88 116.709 1017.48 Q116.131 1018.15 113.029 1021.37 Q109.927 1024.56 104.279 1030.32 Z" fill="#000000" fill-rule="evenodd" fill-opacity="1" /><path clip-path="url(#clip760)" d="M62.9365 635.334 Q59.3254 635.334 57.4967 638.899 Q55.6912 642.441 55.6912 649.571 Q55.6912 656.677 57.4967 660.242 Q59.3254 663.783 62.9365 663.783 Q66.5707 663.783 68.3763 660.242 Q70.205 656.677 70.205 649.571 Q70.205 642.441 68.3763 638.899 Q66.5707 635.334 62.9365 635.334 M62.9365 631.631 Q68.7467 631.631 71.8022 636.237 Q74.8809 640.821 74.8809 649.571 Q74.8809 658.297 71.8022 662.904 Q68.7467 667.487 62.9365 667.487 Q57.1264 667.487 54.0477 662.904 Q50.9921 658.297 50.9921 649.571 Q50.9921 640.821 54.0477 636.237 Q57.1264 631.631 62.9365 631.631 Z" fill="#000000" fill-rule="evenodd" fill-opacity="1" /><path clip-path="url(#clip760)" d="M83.0984 660.936 L87.9827 660.936 L87.9827 666.816 L83.0984 666.816 L83.0984 660.936 Z" fill="#000000" fill-rule="evenodd" fill-opacity="1" /><path clip-path="url(#clip760)" d="M111.015 636.33 L99.2095 654.779 L111.015 654.779 L111.015 636.33 M109.788 632.256 L115.668 632.256 L115.668 654.779 L120.598 654.779 L120.598 658.668 L115.668 658.668 L115.668 666.816 L111.015 666.816 L111.015 658.668 L95.4132 658.668 L95.4132 654.154 L109.788 632.256 Z" fill="#000000" fill-rule="evenodd" fill-opacity="1" /><path clip-path="url(#clip760)" d="M63.2606 267.891 Q59.6495 267.891 57.8208 271.456 Q56.0152 274.998 56.0152 282.127 Q56.0152 289.234 57.8208 292.799 Q59.6495 296.34 63.2606 296.34 Q66.8948 296.34 68.7004 292.799 Q70.5291 289.234 70.5291 282.127 Q70.5291 274.998 68.7004 271.456 Q66.8948 267.891 63.2606 267.891 M63.2606 264.188 Q69.0707 264.188 72.1263 268.794 Q75.205 273.377 75.205 282.127 Q75.205 290.854 72.1263 295.461 Q69.0707 300.044 63.2606 300.044 Q57.4504 300.044 54.3717 295.461 Q51.3162 290.854 51.3162 282.127 Q51.3162 273.377 54.3717 268.794 Q57.4504 264.188 63.2606 264.188 Z" fill="#000000" fill-rule="evenodd" fill-opacity="1" /><path clip-path="url(#clip760)" d="M83.4225 293.493 L88.3067 293.493 L88.3067 299.373 L83.4225 299.373 L83.4225 293.493 Z" fill="#000000" fill-rule="evenodd" fill-opacity="1" /><path clip-path="url(#clip760)" d="M109.071 280.229 Q105.922 280.229 104.071 282.382 Q102.242 284.535 102.242 288.285 Q102.242 292.012 104.071 294.188 Q105.922 296.34 109.071 296.34 Q112.219 296.34 114.047 294.188 Q115.899 292.012 115.899 288.285 Q115.899 284.535 114.047 282.382 Q112.219 280.229 109.071 280.229 M118.353 265.577 L118.353 269.836 Q116.594 269.003 114.788 268.563 Q113.006 268.123 111.246 268.123 Q106.617 268.123 104.163 271.248 Q101.733 274.373 101.385 280.692 Q102.751 278.678 104.811 277.614 Q106.871 276.526 109.348 276.526 Q114.557 276.526 117.566 279.697 Q120.598 282.845 120.598 288.285 Q120.598 293.609 117.45 296.826 Q114.302 300.044 109.071 300.044 Q103.075 300.044 99.9039 295.461 Q96.7326 290.854 96.7326 282.127 Q96.7326 273.933 100.621 269.072 Q104.51 264.188 111.061 264.188 Q112.82 264.188 114.603 264.535 Q116.408 264.882 118.353 265.577 Z" fill="#000000" fill-rule="evenodd" fill-opacity="1" /><polyline clip-path="url(#clip762)" style="stroke:#009af9; stroke-linecap:butt; stroke-linejoin:round; stroke-width:8; stroke-opacity:1; fill:none" points="
  218.754,465.814 327.798,137.891 436.843,1060.66 545.887,1235.98 654.932,1295.98 763.976,1320.08 873.021,1339.55 982.066,1343.57 1091.11,1344.27 1200.15,1356.4 
  1309.2,1355.97 1418.24,1355.69 1527.29,1350.8 1636.33,1347.92 1745.38,1337.21 1854.42,1327.67 1963.47,1290.7 2072.51,1230.12 2181.56,1068.58 2290.6,86.1857 
  
  "/>
<polyline clip-path="url(#clip762)" style="stroke:#e26f46; stroke-linecap:butt; stroke-linejoin:round; stroke-width:8; stroke-opacity:1; fill:none" points="
  218.754,1384.24 327.798,472.668 436.843,434.728 545.887,404.521 654.932,432.368 763.976,441.78 873.021,460.052 982.066,386.365 1091.11,437.213 1200.15,434.791 
  1309.2,397.512 1418.24,452.454 1527.29,372.537 1636.33,435.296 1745.38,372.704 1854.42,356.758 1963.47,427.996 2072.51,355.711 2181.56,395.446 2290.6,464.225 
  
  "/>
<path clip-path="url(#clip760)" d="
M651.641 248.629 L1303.48 248.629 L1303.48 93.1086 L651.641 93.1086  Z
  " fill="#ffffff" fill-rule="evenodd" fill-opacity="1"/>
<polyline clip-path="url(#clip760)" style="stroke:#000000; stroke-linecap:butt; stroke-linejoin:round; stroke-width:4; stroke-opacity:1; fill:none" points="
  651.641,248.629 1303.48,248.629 1303.48,93.1086 651.641,93.1086 651.641,248.629 
  "/>
<polyline clip-path="url(#clip760)" style="stroke:#009af9; stroke-linecap:butt; stroke-linejoin:round; stroke-width:4; stroke-opacity:1; fill:none" points="
  676.043,144.949 822.453,144.949 
  "/>
<path clip-path="url(#clip760)" d="M869.1 128.803 L869.1 133.363 Q866.438 132.09 864.077 131.465 Q861.716 130.84 859.517 130.84 Q855.698 130.84 853.614 132.321 Q851.554 133.803 851.554 136.534 Q851.554 138.826 852.92 140.007 Q854.309 141.164 858.151 141.882 L860.975 142.46 Q866.207 143.456 868.684 145.979 Q871.184 148.479 871.184 152.692 Q871.184 157.715 867.804 160.307 Q864.448 162.9 857.943 162.9 Q855.489 162.9 852.712 162.344 Q849.957 161.789 846.994 160.701 L846.994 155.886 Q849.841 157.483 852.573 158.293 Q855.304 159.104 857.943 159.104 Q861.948 159.104 864.124 157.53 Q866.3 155.956 866.3 153.039 Q866.3 150.493 864.725 149.057 Q863.175 147.622 859.61 146.905 L856.763 146.349 Q851.531 145.307 849.193 143.085 Q846.855 140.863 846.855 136.905 Q846.855 132.321 850.073 129.682 Q853.313 127.044 858.985 127.044 Q861.415 127.044 863.938 127.483 Q866.462 127.923 869.1 128.803 Z" fill="#000000" fill-rule="evenodd" fill-opacity="1" /><path clip-path="url(#clip760)" d="M890.073 149.196 Q884.911 149.196 882.92 150.377 Q880.929 151.557 880.929 154.405 Q880.929 156.673 882.411 158.016 Q883.915 159.335 886.485 159.335 Q890.026 159.335 892.156 156.835 Q894.309 154.312 894.309 150.145 L894.309 149.196 L890.073 149.196 M898.568 147.437 L898.568 162.229 L894.309 162.229 L894.309 158.293 Q892.85 160.655 890.674 161.789 Q888.498 162.9 885.35 162.9 Q881.369 162.9 879.008 160.678 Q876.67 158.432 876.67 154.682 Q876.67 150.307 879.586 148.085 Q882.526 145.863 888.336 145.863 L894.309 145.863 L894.309 145.446 Q894.309 142.507 892.364 140.909 Q890.443 139.289 886.948 139.289 Q884.725 139.289 882.619 139.821 Q880.512 140.354 878.568 141.419 L878.568 137.483 Q880.906 136.581 883.105 136.141 Q885.304 135.678 887.387 135.678 Q893.012 135.678 895.79 138.594 Q898.568 141.511 898.568 147.437 Z" fill="#000000" fill-rule="evenodd" fill-opacity="1" /><path clip-path="url(#clip760)" d="M911.554 128.942 L911.554 136.303 L920.327 136.303 L920.327 139.613 L911.554 139.613 L911.554 153.687 Q911.554 156.858 912.41 157.761 Q913.29 158.664 915.952 158.664 L920.327 158.664 L920.327 162.229 L915.952 162.229 Q911.022 162.229 909.147 160.4 Q907.272 158.548 907.272 153.687 L907.272 139.613 L904.147 139.613 L904.147 136.303 L907.272 136.303 L907.272 128.942 L911.554 128.942 Z" fill="#000000" fill-rule="evenodd" fill-opacity="1" /><path clip-path="url(#clip760)" d="M948.105 148.201 L948.105 150.284 L928.521 150.284 Q928.799 154.682 931.16 156.997 Q933.545 159.289 937.781 159.289 Q940.234 159.289 942.526 158.687 Q944.841 158.085 947.109 156.881 L947.109 160.909 Q944.818 161.881 942.41 162.391 Q940.003 162.9 937.526 162.9 Q931.322 162.9 927.688 159.289 Q924.077 155.678 924.077 149.52 Q924.077 143.155 927.503 139.428 Q930.952 135.678 936.785 135.678 Q942.017 135.678 945.049 139.057 Q948.105 142.414 948.105 148.201 M943.845 146.951 Q943.799 143.456 941.878 141.372 Q939.98 139.289 936.832 139.289 Q933.267 139.289 931.114 141.303 Q928.984 143.317 928.66 146.974 L943.845 146.951 Z" fill="#000000" fill-rule="evenodd" fill-opacity="1" /><path clip-path="url(#clip760)" d="M955.095 126.21 L959.355 126.21 L959.355 162.229 L955.095 162.229 L955.095 126.21 Z" fill="#000000" fill-rule="evenodd" fill-opacity="1" /><path clip-path="url(#clip760)" d="M968.267 126.21 L972.526 126.21 L972.526 162.229 L968.267 162.229 L968.267 126.21 Z" fill="#000000" fill-rule="evenodd" fill-opacity="1" /><path clip-path="url(#clip760)" d="M981.438 136.303 L985.697 136.303 L985.697 162.229 L981.438 162.229 L981.438 136.303 M981.438 126.21 L985.697 126.21 L985.697 131.604 L981.438 131.604 L981.438 126.21 Z" fill="#000000" fill-rule="evenodd" fill-opacity="1" /><path clip-path="url(#clip760)" d="M998.822 128.942 L998.822 136.303 L1007.6 136.303 L1007.6 139.613 L998.822 139.613 L998.822 153.687 Q998.822 156.858 999.678 157.761 Q1000.56 158.664 1003.22 158.664 L1007.6 158.664 L1007.6 162.229 L1003.22 162.229 Q998.29 162.229 996.415 160.4 Q994.54 158.548 994.54 153.687 L994.54 139.613 L991.415 139.613 L991.415 136.303 L994.54 136.303 L994.54 128.942 L998.822 128.942 Z" fill="#000000" fill-rule="evenodd" fill-opacity="1" /><path clip-path="url(#clip760)" d="M1035.37 148.201 L1035.37 150.284 L1015.79 150.284 Q1016.07 154.682 1018.43 156.997 Q1020.81 159.289 1025.05 159.289 Q1027.5 159.289 1029.79 158.687 Q1032.11 158.085 1034.38 156.881 L1034.38 160.909 Q1032.09 161.881 1029.68 162.391 Q1027.27 162.9 1024.79 162.9 Q1018.59 162.9 1014.96 159.289 Q1011.35 155.678 1011.35 149.52 Q1011.35 143.155 1014.77 139.428 Q1018.22 135.678 1024.05 135.678 Q1029.28 135.678 1032.32 139.057 Q1035.37 142.414 1035.37 148.201 M1031.11 146.951 Q1031.07 143.456 1029.15 141.372 Q1027.25 139.289 1024.1 139.289 Q1020.53 139.289 1018.38 141.303 Q1016.25 143.317 1015.93 146.974 L1031.11 146.951 Z" fill="#000000" fill-rule="evenodd" fill-opacity="1" /><path clip-path="url(#clip760)" d="M1078.34 128.803 L1078.34 133.363 Q1075.67 132.09 1073.31 131.465 Q1070.95 130.84 1068.75 130.84 Q1064.93 130.84 1062.85 132.321 Q1060.79 133.803 1060.79 136.534 Q1060.79 138.826 1062.15 140.007 Q1063.54 141.164 1067.39 141.882 L1070.21 142.46 Q1075.44 143.456 1077.92 145.979 Q1080.42 148.479 1080.42 152.692 Q1080.42 157.715 1077.04 160.307 Q1073.68 162.9 1067.18 162.9 Q1064.72 162.9 1061.95 162.344 Q1059.19 161.789 1056.23 160.701 L1056.23 155.886 Q1059.08 157.483 1061.81 158.293 Q1064.54 159.104 1067.18 159.104 Q1071.18 159.104 1073.36 157.53 Q1075.53 155.956 1075.53 153.039 Q1075.53 150.493 1073.96 149.057 Q1072.41 147.622 1068.84 146.905 L1066 146.349 Q1060.77 145.307 1058.43 143.085 Q1056.09 140.863 1056.09 136.905 Q1056.09 132.321 1059.31 129.682 Q1062.55 127.044 1068.22 127.044 Q1070.65 127.044 1073.17 127.483 Q1075.7 127.923 1078.34 128.803 Z" fill="#000000" fill-rule="evenodd" fill-opacity="1" /><path clip-path="url(#clip760)" d="M1091.74 128.942 L1091.74 136.303 L1100.51 136.303 L1100.51 139.613 L1091.74 139.613 L1091.74 153.687 Q1091.74 156.858 1092.59 157.761 Q1093.47 158.664 1096.14 158.664 L1100.51 158.664 L1100.51 162.229 L1096.14 162.229 Q1091.21 162.229 1089.33 160.4 Q1087.46 158.548 1087.46 153.687 L1087.46 139.613 L1084.33 139.613 L1084.33 136.303 L1087.46 136.303 L1087.46 128.942 L1091.74 128.942 Z" fill="#000000" fill-rule="evenodd" fill-opacity="1" /><path clip-path="url(#clip760)" d="M1121.14 140.284 Q1120.42 139.868 1119.56 139.682 Q1118.73 139.474 1117.71 139.474 Q1114.1 139.474 1112.15 141.835 Q1110.23 144.173 1110.23 148.571 L1110.23 162.229 L1105.95 162.229 L1105.95 136.303 L1110.23 136.303 L1110.23 140.331 Q1111.58 137.969 1113.73 136.835 Q1115.88 135.678 1118.96 135.678 Q1119.4 135.678 1119.93 135.747 Q1120.46 135.794 1121.11 135.909 L1121.14 140.284 Z" fill="#000000" fill-rule="evenodd" fill-opacity="1" /><path clip-path="url(#clip760)" d="M1137.39 149.196 Q1132.22 149.196 1130.23 150.377 Q1128.24 151.557 1128.24 154.405 Q1128.24 156.673 1129.72 158.016 Q1131.23 159.335 1133.8 159.335 Q1137.34 159.335 1139.47 156.835 Q1141.62 154.312 1141.62 150.145 L1141.62 149.196 L1137.39 149.196 M1145.88 147.437 L1145.88 162.229 L1141.62 162.229 L1141.62 158.293 Q1140.16 160.655 1137.99 161.789 Q1135.81 162.9 1132.66 162.9 Q1128.68 162.9 1126.32 160.678 Q1123.98 158.432 1123.98 154.682 Q1123.98 150.307 1126.9 148.085 Q1129.84 145.863 1135.65 145.863 L1141.62 145.863 L1141.62 145.446 Q1141.62 142.507 1139.68 140.909 Q1137.76 139.289 1134.26 139.289 Q1132.04 139.289 1129.93 139.821 Q1127.83 140.354 1125.88 141.419 L1125.88 137.483 Q1128.22 136.581 1130.42 136.141 Q1132.62 135.678 1134.7 135.678 Q1140.33 135.678 1143.1 138.594 Q1145.88 141.511 1145.88 147.437 Z" fill="#000000" fill-rule="evenodd" fill-opacity="1" /><path clip-path="url(#clip760)" d="M1158.87 128.942 L1158.87 136.303 L1167.64 136.303 L1167.64 139.613 L1158.87 139.613 L1158.87 153.687 Q1158.87 156.858 1159.72 157.761 Q1160.6 158.664 1163.27 158.664 L1167.64 158.664 L1167.64 162.229 L1163.27 162.229 Q1158.33 162.229 1156.46 160.4 Q1154.59 158.548 1154.59 153.687 L1154.59 139.613 L1151.46 139.613 L1151.46 136.303 L1154.59 136.303 L1154.59 128.942 L1158.87 128.942 Z" fill="#000000" fill-rule="evenodd" fill-opacity="1" /><path clip-path="url(#clip760)" d="M1195.42 148.201 L1195.42 150.284 L1175.83 150.284 Q1176.11 154.682 1178.47 156.997 Q1180.86 159.289 1185.09 159.289 Q1187.55 159.289 1189.84 158.687 Q1192.15 158.085 1194.42 156.881 L1194.42 160.909 Q1192.13 161.881 1189.72 162.391 Q1187.32 162.9 1184.84 162.9 Q1178.64 162.9 1175 159.289 Q1171.39 155.678 1171.39 149.52 Q1171.39 143.155 1174.82 139.428 Q1178.27 135.678 1184.1 135.678 Q1189.33 135.678 1192.36 139.057 Q1195.42 142.414 1195.42 148.201 M1191.16 146.951 Q1191.11 143.456 1189.19 141.372 Q1187.29 139.289 1184.15 139.289 Q1180.58 139.289 1178.43 141.303 Q1176.3 143.317 1175.97 146.974 L1191.16 146.951 Z" fill="#000000" fill-rule="evenodd" fill-opacity="1" /><path clip-path="url(#clip760)" d="M1219.47 148.965 Q1219.47 144.335 1217.55 141.789 Q1215.65 139.243 1212.2 139.243 Q1208.77 139.243 1206.85 141.789 Q1204.96 144.335 1204.96 148.965 Q1204.96 153.571 1206.85 156.118 Q1208.77 158.664 1212.2 158.664 Q1215.65 158.664 1217.55 156.118 Q1219.47 153.571 1219.47 148.965 M1223.73 159.011 Q1223.73 165.631 1220.79 168.849 Q1217.85 172.09 1211.78 172.09 Q1209.54 172.09 1207.55 171.742 Q1205.56 171.418 1203.68 170.724 L1203.68 166.58 Q1205.56 167.599 1207.39 168.085 Q1209.21 168.571 1211.11 168.571 Q1215.3 168.571 1217.39 166.372 Q1219.47 164.196 1219.47 159.775 L1219.47 157.668 Q1218.15 159.96 1216.09 161.094 Q1214.03 162.229 1211.16 162.229 Q1206.39 162.229 1203.47 158.594 Q1200.56 154.96 1200.56 148.965 Q1200.56 142.946 1203.47 139.312 Q1206.39 135.678 1211.16 135.678 Q1214.03 135.678 1216.09 136.812 Q1218.15 137.946 1219.47 140.238 L1219.47 136.303 L1223.73 136.303 L1223.73 159.011 Z" fill="#000000" fill-rule="evenodd" fill-opacity="1" /><path clip-path="url(#clip760)" d="M1243.29 164.636 Q1241.48 169.266 1239.77 170.678 Q1238.06 172.09 1235.19 172.09 L1231.78 172.09 L1231.78 168.525 L1234.28 168.525 Q1236.04 168.525 1237.02 167.692 Q1237.99 166.858 1239.17 163.756 L1239.93 161.812 L1229.45 136.303 L1233.96 136.303 L1242.06 156.581 L1250.16 136.303 L1254.68 136.303 L1243.29 164.636 Z" fill="#000000" fill-rule="evenodd" fill-opacity="1" /><polyline clip-path="url(#clip760)" style="stroke:#e26f46; stroke-linecap:butt; stroke-linejoin:round; stroke-width:4; stroke-opacity:1; fill:none" points="
  676.043,196.789 822.453,196.789 
  "/>
<path clip-path="url(#clip760)" d="M872.411 209.138 L872.411 199.856 L864.772 199.856 L864.772 196.013 L877.04 196.013 L877.04 210.851 Q874.332 212.772 871.068 213.768 Q867.804 214.74 864.1 214.74 Q855.999 214.74 851.415 210.018 Q846.855 205.272 846.855 196.823 Q846.855 188.351 851.415 183.629 Q855.999 178.884 864.1 178.884 Q867.48 178.884 870.512 179.717 Q873.568 180.55 876.137 182.171 L876.137 187.147 Q873.545 184.948 870.628 183.837 Q867.712 182.726 864.494 182.726 Q858.151 182.726 854.957 186.268 Q851.786 189.809 851.786 196.823 Q851.786 203.814 854.957 207.356 Q858.151 210.897 864.494 210.897 Q866.971 210.897 868.915 210.481 Q870.86 210.041 872.411 209.138 Z" fill="#000000" fill-rule="evenodd" fill-opacity="1" /><path clip-path="url(#clip760)" d="M900.42 192.124 Q899.702 191.708 898.846 191.522 Q898.012 191.314 896.994 191.314 Q893.383 191.314 891.438 193.675 Q889.517 196.013 889.517 200.411 L889.517 214.069 L885.235 214.069 L885.235 188.143 L889.517 188.143 L889.517 192.171 Q890.86 189.809 893.012 188.675 Q895.165 187.518 898.244 187.518 Q898.684 187.518 899.216 187.587 Q899.748 187.634 900.397 187.749 L900.42 192.124 Z" fill="#000000" fill-rule="evenodd" fill-opacity="1" /><path clip-path="url(#clip760)" d="M913.892 191.129 Q910.466 191.129 908.475 193.814 Q906.484 196.476 906.484 201.129 Q906.484 205.782 908.452 208.467 Q910.443 211.129 913.892 211.129 Q917.295 211.129 919.285 208.444 Q921.276 205.758 921.276 201.129 Q921.276 196.522 919.285 193.837 Q917.295 191.129 913.892 191.129 M913.892 187.518 Q919.447 187.518 922.619 191.129 Q925.79 194.74 925.79 201.129 Q925.79 207.495 922.619 211.129 Q919.447 214.74 913.892 214.74 Q908.313 214.74 905.142 211.129 Q901.994 207.495 901.994 201.129 Q901.994 194.74 905.142 191.129 Q908.313 187.518 913.892 187.518 Z" fill="#000000" fill-rule="evenodd" fill-opacity="1" /><path clip-path="url(#clip760)" d="M932.41 203.837 L932.41 188.143 L936.67 188.143 L936.67 203.675 Q936.67 207.356 938.105 209.208 Q939.54 211.036 942.41 211.036 Q945.859 211.036 947.85 208.837 Q949.864 206.638 949.864 202.842 L949.864 188.143 L954.123 188.143 L954.123 214.069 L949.864 214.069 L949.864 210.087 Q948.313 212.448 946.253 213.606 Q944.216 214.74 941.507 214.74 Q937.04 214.74 934.725 211.962 Q932.41 209.184 932.41 203.837 M943.128 187.518 L943.128 187.518 Z" fill="#000000" fill-rule="evenodd" fill-opacity="1" /><path clip-path="url(#clip760)" d="M984.447 198.421 L984.447 214.069 L980.188 214.069 L980.188 198.559 Q980.188 194.879 978.753 193.05 Q977.317 191.222 974.447 191.222 Q970.998 191.222 969.007 193.421 Q967.017 195.62 967.017 199.416 L967.017 214.069 L962.734 214.069 L962.734 188.143 L967.017 188.143 L967.017 192.171 Q968.544 189.833 970.605 188.675 Q972.688 187.518 975.396 187.518 Q979.864 187.518 982.155 190.296 Q984.447 193.05 984.447 198.421 Z" fill="#000000" fill-rule="evenodd" fill-opacity="1" /><path clip-path="url(#clip760)" d="M1010 192.078 L1010 178.05 L1014.26 178.05 L1014.26 214.069 L1010 214.069 L1010 210.18 Q1008.66 212.495 1006.6 213.629 Q1004.56 214.74 1001.69 214.74 Q996.993 214.74 994.03 210.99 Q991.091 207.24 991.091 201.129 Q991.091 195.018 994.03 191.268 Q996.993 187.518 1001.69 187.518 Q1004.56 187.518 1006.6 188.652 Q1008.66 189.763 1010 192.078 M995.489 201.129 Q995.489 205.828 997.41 208.513 Q999.354 211.175 1002.73 211.175 Q1006.11 211.175 1008.06 208.513 Q1010 205.828 1010 201.129 Q1010 196.43 1008.06 193.768 Q1006.11 191.083 1002.73 191.083 Q999.354 191.083 997.41 193.768 Q995.489 196.43 995.489 201.129 Z" fill="#000000" fill-rule="evenodd" fill-opacity="1" /><path clip-path="url(#clip760)" d="M1059.01 180.643 L1059.01 185.203 Q1056.34 183.93 1053.98 183.305 Q1051.62 182.68 1049.42 182.68 Q1045.6 182.68 1043.52 184.161 Q1041.46 185.643 1041.46 188.374 Q1041.46 190.666 1042.83 191.847 Q1044.22 193.004 1048.06 193.722 L1050.88 194.3 Q1056.11 195.296 1058.59 197.819 Q1061.09 200.319 1061.09 204.532 Q1061.09 209.555 1057.71 212.147 Q1054.35 214.74 1047.85 214.74 Q1045.4 214.74 1042.62 214.184 Q1039.86 213.629 1036.9 212.541 L1036.9 207.726 Q1039.75 209.323 1042.48 210.133 Q1045.21 210.944 1047.85 210.944 Q1051.85 210.944 1054.03 209.37 Q1056.21 207.796 1056.21 204.879 Q1056.21 202.333 1054.63 200.897 Q1053.08 199.462 1049.52 198.745 L1046.67 198.189 Q1041.44 197.147 1039.1 194.925 Q1036.76 192.703 1036.76 188.745 Q1036.76 184.161 1039.98 181.522 Q1043.22 178.884 1048.89 178.884 Q1051.32 178.884 1053.84 179.323 Q1056.37 179.763 1059.01 180.643 Z" fill="#000000" fill-rule="evenodd" fill-opacity="1" /><path clip-path="url(#clip760)" d="M1072.41 180.782 L1072.41 188.143 L1081.18 188.143 L1081.18 191.453 L1072.41 191.453 L1072.41 205.527 Q1072.41 208.698 1073.27 209.601 Q1074.15 210.504 1076.81 210.504 L1081.18 210.504 L1081.18 214.069 L1076.81 214.069 Q1071.88 214.069 1070 212.24 Q1068.13 210.388 1068.13 205.527 L1068.13 191.453 L1065 191.453 L1065 188.143 L1068.13 188.143 L1068.13 180.782 L1072.41 180.782 Z" fill="#000000" fill-rule="evenodd" fill-opacity="1" /><path clip-path="url(#clip760)" d="M1101.81 192.124 Q1101.09 191.708 1100.23 191.522 Q1099.4 191.314 1098.38 191.314 Q1094.77 191.314 1092.83 193.675 Q1090.9 196.013 1090.9 200.411 L1090.9 214.069 L1086.62 214.069 L1086.62 188.143 L1090.9 188.143 L1090.9 192.171 Q1092.25 189.809 1094.4 188.675 Q1096.55 187.518 1099.63 187.518 Q1100.07 187.518 1100.6 187.587 Q1101.14 187.634 1101.78 187.749 L1101.81 192.124 Z" fill="#000000" fill-rule="evenodd" fill-opacity="1" /><path clip-path="url(#clip760)" d="M1118.06 201.036 Q1112.9 201.036 1110.9 202.217 Q1108.91 203.397 1108.91 206.245 Q1108.91 208.513 1110.4 209.856 Q1111.9 211.175 1114.47 211.175 Q1118.01 211.175 1120.14 208.675 Q1122.29 206.152 1122.29 201.985 L1122.29 201.036 L1118.06 201.036 M1126.55 199.277 L1126.55 214.069 L1122.29 214.069 L1122.29 210.133 Q1120.84 212.495 1118.66 213.629 Q1116.48 214.74 1113.34 214.74 Q1109.35 214.74 1106.99 212.518 Q1104.65 210.272 1104.65 206.522 Q1104.65 202.147 1107.57 199.925 Q1110.51 197.703 1116.32 197.703 L1122.29 197.703 L1122.29 197.286 Q1122.29 194.347 1120.35 192.749 Q1118.43 191.129 1114.93 191.129 Q1112.71 191.129 1110.6 191.661 Q1108.5 192.194 1106.55 193.259 L1106.55 189.323 Q1108.89 188.421 1111.09 187.981 Q1113.29 187.518 1115.37 187.518 Q1121 187.518 1123.77 190.434 Q1126.55 193.351 1126.55 199.277 Z" fill="#000000" fill-rule="evenodd" fill-opacity="1" /><path clip-path="url(#clip760)" d="M1139.54 180.782 L1139.54 188.143 L1148.31 188.143 L1148.31 191.453 L1139.54 191.453 L1139.54 205.527 Q1139.54 208.698 1140.4 209.601 Q1141.27 210.504 1143.94 210.504 L1148.31 210.504 L1148.31 214.069 L1143.94 214.069 Q1139.01 214.069 1137.13 212.24 Q1135.26 210.388 1135.26 205.527 L1135.26 191.453 L1132.13 191.453 L1132.13 188.143 L1135.26 188.143 L1135.26 180.782 L1139.54 180.782 Z" fill="#000000" fill-rule="evenodd" fill-opacity="1" /><path clip-path="url(#clip760)" d="M1176.09 200.041 L1176.09 202.124 L1156.51 202.124 Q1156.78 206.522 1159.15 208.837 Q1161.53 211.129 1165.77 211.129 Q1168.22 211.129 1170.51 210.527 Q1172.83 209.925 1175.09 208.721 L1175.09 212.749 Q1172.8 213.721 1170.4 214.231 Q1167.99 214.74 1165.51 214.74 Q1159.31 214.74 1155.67 211.129 Q1152.06 207.518 1152.06 201.36 Q1152.06 194.995 1155.49 191.268 Q1158.94 187.518 1164.77 187.518 Q1170 187.518 1173.03 190.897 Q1176.09 194.254 1176.09 200.041 M1171.83 198.791 Q1171.78 195.296 1169.86 193.212 Q1167.96 191.129 1164.82 191.129 Q1161.25 191.129 1159.1 193.143 Q1156.97 195.157 1156.65 198.814 L1171.83 198.791 Z" fill="#000000" fill-rule="evenodd" fill-opacity="1" /><path clip-path="url(#clip760)" d="M1200.14 200.805 Q1200.14 196.175 1198.22 193.629 Q1196.32 191.083 1192.87 191.083 Q1189.45 191.083 1187.52 193.629 Q1185.63 196.175 1185.63 200.805 Q1185.63 205.411 1187.52 207.958 Q1189.45 210.504 1192.87 210.504 Q1196.32 210.504 1198.22 207.958 Q1200.14 205.411 1200.14 200.805 M1204.4 210.851 Q1204.4 217.471 1201.46 220.689 Q1198.52 223.93 1192.46 223.93 Q1190.21 223.93 1188.22 223.582 Q1186.23 223.258 1184.35 222.564 L1184.35 218.42 Q1186.23 219.439 1188.06 219.925 Q1189.89 220.411 1191.78 220.411 Q1195.97 220.411 1198.06 218.212 Q1200.14 216.036 1200.14 211.615 L1200.14 209.508 Q1198.82 211.8 1196.76 212.934 Q1194.7 214.069 1191.83 214.069 Q1187.06 214.069 1184.15 210.434 Q1181.23 206.8 1181.23 200.805 Q1181.23 194.786 1184.15 191.152 Q1187.06 187.518 1191.83 187.518 Q1194.7 187.518 1196.76 188.652 Q1198.82 189.786 1200.14 192.078 L1200.14 188.143 L1204.4 188.143 L1204.4 210.851 Z" fill="#000000" fill-rule="evenodd" fill-opacity="1" /><path clip-path="url(#clip760)" d="M1223.96 216.476 Q1222.15 221.106 1220.44 222.518 Q1218.73 223.93 1215.86 223.93 L1212.46 223.93 L1212.46 220.365 L1214.96 220.365 Q1216.71 220.365 1217.69 219.532 Q1218.66 218.698 1219.84 215.596 L1220.6 213.652 L1210.12 188.143 L1214.63 188.143 L1222.73 208.421 L1230.83 188.143 L1235.35 188.143 L1223.96 216.476 Z" fill="#000000" fill-rule="evenodd" fill-opacity="1" /></svg>
