<?xml version="1.0" encoding="utf-8"?>
<svg xmlns="http://www.w3.org/2000/svg" xmlns:xlink="http://www.w3.org/1999/xlink" width="600" height="400" viewBox="0 0 2400 1600">
<defs>
  <clipPath id="clip770">
    <rect x="0" y="0" width="2400" height="1600"/>
  </clipPath>
</defs>
<path clip-path="url(#clip770)" d="
M0 1600 L2400 1600 L2400 0 L0 0  Z
  " fill="#ffffff" fill-rule="evenodd" fill-opacity="1"/>
<defs>
  <clipPath id="clip771">
    <rect x="480" y="0" width="1681" height="1600"/>
  </clipPath>
</defs>
<path clip-path="url(#clip770)" d="
M175.445 1423.18 L2352.76 1423.18 L2352.76 123.472 L175.445 123.472  Z
  " fill="#ffffff" fill-rule="evenodd" fill-opacity="1"/>
<defs>
  <clipPath id="clip772">
    <rect x="175" y="123" width="2178" height="1301"/>
  </clipPath>
</defs>
<polyline clip-path="url(#clip772)" style="stroke:#000000; stroke-linecap:butt; stroke-linejoin:round; stroke-width:2; stroke-opacity:0.1; fill:none" points="
  465.297,1423.18 465.297,123.472 
  "/>
<polyline clip-path="url(#clip772)" style="stroke:#000000; stroke-linecap:butt; stroke-linejoin:round; stroke-width:2; stroke-opacity:0.1; fill:none" points="
  921.756,1423.18 921.756,123.472 
  "/>
<polyline clip-path="url(#clip772)" style="stroke:#000000; stroke-linecap:butt; stroke-linejoin:round; stroke-width:2; stroke-opacity:0.1; fill:none" points="
  1378.22,1423.18 1378.22,123.472 
  "/>
<polyline clip-path="url(#clip772)" style="stroke:#000000; stroke-linecap:butt; stroke-linejoin:round; stroke-width:2; stroke-opacity:0.1; fill:none" points="
  1834.67,1423.18 1834.67,123.472 
  "/>
<polyline clip-path="url(#clip772)" style="stroke:#000000; stroke-linecap:butt; stroke-linejoin:round; stroke-width:2; stroke-opacity:0.1; fill:none" points="
  2291.13,1423.18 2291.13,123.472 
  "/>
<polyline clip-path="url(#clip770)" style="stroke:#000000; stroke-linecap:butt; stroke-linejoin:round; stroke-width:4; stroke-opacity:1; fill:none" points="
  175.445,1423.18 2352.76,1423.18 
  "/>
<polyline clip-path="url(#clip770)" style="stroke:#000000; stroke-linecap:butt; stroke-linejoin:round; stroke-width:4; stroke-opacity:1; fill:none" points="
  465.297,1423.18 465.297,1404.28 
  "/>
<polyline clip-path="url(#clip770)" style="stroke:#000000; stroke-linecap:butt; stroke-linejoin:round; stroke-width:4; stroke-opacity:1; fill:none" points="
  921.756,1423.18 921.756,1404.28 
  "/>
<polyline clip-path="url(#clip770)" style="stroke:#000000; stroke-linecap:butt; stroke-linejoin:round; stroke-width:4; stroke-opacity:1; fill:none" points="
  1378.22,1423.18 1378.22,1404.28 
  "/>
<polyline clip-path="url(#clip770)" style="stroke:#000000; stroke-linecap:butt; stroke-linejoin:round; stroke-width:4; stroke-opacity:1; fill:none" points="
  1834.67,1423.18 1834.67,1404.28 
  "/>
<polyline clip-path="url(#clip770)" style="stroke:#000000; stroke-linecap:butt; stroke-linejoin:round; stroke-width:4; stroke-opacity:1; fill:none" points="
  2291.13,1423.18 2291.13,1404.28 
  "/>
<path clip-path="url(#clip770)" d="M459.95 1481.64 L476.269 1481.64 L476.269 1485.58 L454.325 1485.58 L454.325 1481.64 Q456.987 1478.89 461.57 1474.26 Q466.176 1469.61 467.357 1468.27 Q469.602 1465.74 470.482 1464.01 Q471.385 1462.25 471.385 1460.56 Q471.385 1457.8 469.44 1456.07 Q467.519 1454.33 464.417 1454.33 Q462.218 1454.33 459.764 1455.09 Q457.334 1455.86 454.556 1457.41 L454.556 1452.69 Q457.38 1451.55 459.834 1450.97 Q462.288 1450.39 464.325 1450.39 Q469.695 1450.39 472.889 1453.08 Q476.084 1455.77 476.084 1460.26 Q476.084 1462.39 475.274 1464.31 Q474.487 1466.2 472.38 1468.8 Q471.801 1469.47 468.7 1472.69 Q465.598 1475.88 459.95 1481.64 Z" fill="#000000" fill-rule="evenodd" fill-opacity="1" /><path clip-path="url(#clip770)" d="M924.765 1455.09 L912.96 1473.54 L924.765 1473.54 L924.765 1455.09 M923.539 1451.02 L929.418 1451.02 L929.418 1473.54 L934.349 1473.54 L934.349 1477.43 L929.418 1477.43 L929.418 1485.58 L924.765 1485.58 L924.765 1477.43 L909.164 1477.43 L909.164 1472.92 L923.539 1451.02 Z" fill="#000000" fill-rule="evenodd" fill-opacity="1" /><path clip-path="url(#clip770)" d="M1378.62 1466.44 Q1375.47 1466.44 1373.62 1468.59 Q1371.79 1470.74 1371.79 1474.49 Q1371.79 1478.22 1373.62 1480.39 Q1375.47 1482.55 1378.62 1482.55 Q1381.77 1482.55 1383.6 1480.39 Q1385.45 1478.22 1385.45 1474.49 Q1385.45 1470.74 1383.6 1468.59 Q1381.77 1466.44 1378.62 1466.44 M1387.9 1451.78 L1387.9 1456.04 Q1386.14 1455.21 1384.34 1454.77 Q1382.56 1454.33 1380.8 1454.33 Q1376.17 1454.33 1373.71 1457.45 Q1371.28 1460.58 1370.94 1466.9 Q1372.3 1464.89 1374.36 1463.82 Q1376.42 1462.73 1378.9 1462.73 Q1384.11 1462.73 1387.12 1465.9 Q1390.15 1469.05 1390.15 1474.49 Q1390.15 1479.82 1387 1483.03 Q1383.85 1486.25 1378.62 1486.25 Q1372.63 1486.25 1369.45 1481.67 Q1366.28 1477.06 1366.28 1468.33 Q1366.28 1460.14 1370.17 1455.28 Q1374.06 1450.39 1380.61 1450.39 Q1382.37 1450.39 1384.15 1450.74 Q1385.96 1451.09 1387.9 1451.78 Z" fill="#000000" fill-rule="evenodd" fill-opacity="1" /><path clip-path="url(#clip770)" d="M1834.67 1469.17 Q1831.34 1469.17 1829.42 1470.95 Q1827.52 1472.73 1827.52 1475.86 Q1827.52 1478.98 1829.42 1480.77 Q1831.34 1482.55 1834.67 1482.55 Q1838.01 1482.55 1839.93 1480.77 Q1841.85 1478.96 1841.85 1475.86 Q1841.85 1472.73 1839.93 1470.95 Q1838.03 1469.17 1834.67 1469.17 M1830 1467.18 Q1826.99 1466.44 1825.3 1464.38 Q1823.63 1462.32 1823.63 1459.35 Q1823.63 1455.21 1826.57 1452.8 Q1829.54 1450.39 1834.67 1450.39 Q1839.84 1450.39 1842.78 1452.8 Q1845.72 1455.21 1845.72 1459.35 Q1845.72 1462.32 1844.03 1464.38 Q1842.36 1466.44 1839.37 1467.18 Q1842.75 1467.96 1844.63 1470.26 Q1846.53 1472.55 1846.53 1475.86 Q1846.53 1480.88 1843.45 1483.57 Q1840.39 1486.25 1834.67 1486.25 Q1828.96 1486.25 1825.88 1483.57 Q1822.82 1480.88 1822.82 1475.86 Q1822.82 1472.55 1824.72 1470.26 Q1826.62 1467.96 1830 1467.18 M1828.29 1459.79 Q1828.29 1462.48 1829.95 1463.98 Q1831.64 1465.49 1834.67 1465.49 Q1837.68 1465.49 1839.37 1463.98 Q1841.09 1462.48 1841.09 1459.79 Q1841.09 1457.11 1839.37 1455.6 Q1837.68 1454.1 1834.67 1454.1 Q1831.64 1454.1 1829.95 1455.6 Q1828.29 1457.11 1828.29 1459.79 Z" fill="#000000" fill-rule="evenodd" fill-opacity="1" /><path clip-path="url(#clip770)" d="M2265.82 1481.64 L2273.46 1481.64 L2273.46 1455.28 L2265.15 1456.95 L2265.15 1452.69 L2273.41 1451.02 L2278.09 1451.02 L2278.09 1481.64 L2285.73 1481.64 L2285.73 1485.58 L2265.82 1485.58 L2265.82 1481.64 Z" fill="#000000" fill-rule="evenodd" fill-opacity="1" /><path clip-path="url(#clip770)" d="M2305.17 1454.1 Q2301.56 1454.1 2299.73 1457.66 Q2297.93 1461.2 2297.93 1468.33 Q2297.93 1475.44 2299.73 1479.01 Q2301.56 1482.55 2305.17 1482.55 Q2308.81 1482.55 2310.61 1479.01 Q2312.44 1475.44 2312.44 1468.33 Q2312.44 1461.2 2310.61 1457.66 Q2308.81 1454.1 2305.17 1454.1 M2305.17 1450.39 Q2310.98 1450.39 2314.04 1455 Q2317.12 1459.58 2317.12 1468.33 Q2317.12 1477.06 2314.04 1481.67 Q2310.98 1486.25 2305.17 1486.25 Q2299.36 1486.25 2296.28 1481.67 Q2293.23 1477.06 2293.23 1468.33 Q2293.23 1459.58 2296.28 1455 Q2299.36 1450.39 2305.17 1450.39 Z" fill="#000000" fill-rule="evenodd" fill-opacity="1" /><path clip-path="url(#clip770)" d="M767.496 1561.26 L767.496 1548.5 L756.992 1548.5 L756.992 1543.22 L773.862 1543.22 L773.862 1563.62 Q770.138 1566.26 765.65 1567.63 Q761.162 1568.97 756.069 1568.97 Q744.929 1568.97 738.627 1562.47 Q732.357 1555.95 732.357 1544.33 Q732.357 1532.68 738.627 1526.19 Q744.929 1519.66 756.069 1519.66 Q760.716 1519.66 764.886 1520.81 Q769.087 1521.96 772.62 1524.18 L772.62 1531.03 Q769.055 1528 765.045 1526.48 Q761.035 1524.95 756.611 1524.95 Q747.889 1524.95 743.497 1529.82 Q739.137 1534.69 739.137 1544.33 Q739.137 1553.94 743.497 1558.81 Q747.889 1563.68 756.611 1563.68 Q760.016 1563.68 762.69 1563.11 Q765.363 1562.51 767.496 1561.26 Z" fill="#000000" fill-rule="evenodd" fill-opacity="1" /><path clip-path="url(#clip770)" d="M806.008 1537.87 Q805.022 1537.3 803.844 1537.04 Q802.698 1536.76 801.298 1536.76 Q796.333 1536.76 793.659 1540 Q791.017 1543.22 791.017 1549.27 L791.017 1568.04 L785.129 1568.04 L785.129 1532.4 L791.017 1532.4 L791.017 1537.93 Q792.863 1534.69 795.823 1533.13 Q798.783 1531.54 803.017 1531.54 Q803.621 1531.54 804.353 1531.63 Q805.085 1531.7 805.977 1531.85 L806.008 1537.87 Z" fill="#000000" fill-rule="evenodd" fill-opacity="1" /><path clip-path="url(#clip770)" d="M824.533 1536.5 Q819.822 1536.5 817.085 1540.19 Q814.347 1543.85 814.347 1550.25 Q814.347 1556.65 817.053 1560.34 Q819.79 1564 824.533 1564 Q829.211 1564 831.949 1560.31 Q834.686 1556.62 834.686 1550.25 Q834.686 1543.92 831.949 1540.23 Q829.211 1536.5 824.533 1536.5 M824.533 1531.54 Q832.171 1531.54 836.532 1536.5 Q840.892 1541.47 840.892 1550.25 Q840.892 1559 836.532 1564 Q832.171 1568.97 824.533 1568.97 Q816.862 1568.97 812.501 1564 Q808.173 1559 808.173 1550.25 Q808.173 1541.47 812.501 1536.5 Q816.862 1531.54 824.533 1531.54 Z" fill="#000000" fill-rule="evenodd" fill-opacity="1" /><path clip-path="url(#clip770)" d="M849.995 1553.98 L849.995 1532.4 L855.852 1532.4 L855.852 1553.75 Q855.852 1558.81 857.825 1561.36 Q859.799 1563.87 863.745 1563.87 Q868.488 1563.87 871.225 1560.85 Q873.994 1557.83 873.994 1552.61 L873.994 1532.4 L879.851 1532.4 L879.851 1568.04 L873.994 1568.04 L873.994 1562.57 Q871.862 1565.82 869.029 1567.41 Q866.228 1568.97 862.504 1568.97 Q856.361 1568.97 853.178 1565.15 Q849.995 1561.33 849.995 1553.98 M864.732 1531.54 L864.732 1531.54 Z" fill="#000000" fill-rule="evenodd" fill-opacity="1" /><path clip-path="url(#clip770)" d="M921.546 1546.53 L921.546 1568.04 L915.69 1568.04 L915.69 1546.72 Q915.69 1541.66 913.716 1539.14 Q911.743 1536.63 907.796 1536.63 Q903.054 1536.63 900.316 1539.65 Q897.579 1542.68 897.579 1547.9 L897.579 1568.04 L891.691 1568.04 L891.691 1532.4 L897.579 1532.4 L897.579 1537.93 Q899.68 1534.72 902.513 1533.13 Q905.377 1531.54 909.101 1531.54 Q915.244 1531.54 918.395 1535.36 Q921.546 1539.14 921.546 1546.53 Z" fill="#000000" fill-rule="evenodd" fill-opacity="1" /><path clip-path="url(#clip770)" d="M956.685 1537.81 L956.685 1518.52 L962.541 1518.52 L962.541 1568.04 L956.685 1568.04 L956.685 1562.7 Q954.839 1565.88 952.006 1567.44 Q949.205 1568.97 945.258 1568.97 Q938.797 1568.97 934.723 1563.81 Q930.681 1558.65 930.681 1550.25 Q930.681 1541.85 934.723 1536.69 Q938.797 1531.54 945.258 1531.54 Q949.205 1531.54 952.006 1533.1 Q954.839 1534.62 956.685 1537.81 M936.728 1550.25 Q936.728 1556.71 939.37 1560.4 Q942.044 1564.07 946.691 1564.07 Q951.337 1564.07 954.011 1560.4 Q956.685 1556.71 956.685 1550.25 Q956.685 1543.79 954.011 1540.13 Q951.337 1536.44 946.691 1536.44 Q942.044 1536.44 939.37 1540.13 Q936.728 1543.79 936.728 1550.25 Z" fill="#000000" fill-rule="evenodd" fill-opacity="1" /><path clip-path="url(#clip770)" d="M1024.07 1522.08 L1024.07 1528.35 Q1020.41 1526.6 1017.16 1525.74 Q1013.91 1524.88 1010.89 1524.88 Q1005.64 1524.88 1002.77 1526.92 Q999.94 1528.96 999.94 1532.71 Q999.94 1535.87 1001.82 1537.49 Q1003.73 1539.08 1009.01 1540.07 L1012.89 1540.86 Q1020.09 1542.23 1023.49 1545.7 Q1026.93 1549.14 1026.93 1554.93 Q1026.93 1561.84 1022.28 1565.4 Q1017.67 1568.97 1008.72 1568.97 Q1005.35 1568.97 1001.53 1568.2 Q997.743 1567.44 993.669 1565.94 L993.669 1559.32 Q997.584 1561.52 1001.34 1562.63 Q1005.1 1563.75 1008.72 1563.75 Q1014.23 1563.75 1017.22 1561.58 Q1020.21 1559.42 1020.21 1555.41 Q1020.21 1551.91 1018.05 1549.93 Q1015.92 1547.96 1011.02 1546.97 L1007.1 1546.21 Q999.908 1544.78 996.693 1541.72 Q993.478 1538.67 993.478 1533.22 Q993.478 1526.92 997.903 1523.29 Q1002.36 1519.66 1010.16 1519.66 Q1013.5 1519.66 1016.97 1520.27 Q1020.44 1520.87 1024.07 1522.08 Z" fill="#000000" fill-rule="evenodd" fill-opacity="1" /><path clip-path="url(#clip770)" d="M1042.49 1522.27 L1042.49 1532.4 L1054.56 1532.4 L1054.56 1536.95 L1042.49 1536.95 L1042.49 1556.3 Q1042.49 1560.66 1043.67 1561.9 Q1044.88 1563.14 1048.54 1563.14 L1054.56 1563.14 L1054.56 1568.04 L1048.54 1568.04 Q1041.76 1568.04 1039.18 1565.53 Q1036.61 1562.98 1036.61 1556.3 L1036.61 1536.95 L1032.31 1536.95 L1032.31 1532.4 L1036.61 1532.4 L1036.61 1522.27 L1042.49 1522.27 Z" fill="#000000" fill-rule="evenodd" fill-opacity="1" /><path clip-path="url(#clip770)" d="M1078.46 1550.12 Q1071.36 1550.12 1068.63 1551.75 Q1065.89 1553.37 1065.89 1557.29 Q1065.89 1560.4 1067.93 1562.25 Q1069.99 1564.07 1073.53 1564.07 Q1078.4 1564.07 1081.33 1560.63 Q1084.29 1557.16 1084.29 1551.43 L1084.29 1550.12 L1078.46 1550.12 M1090.14 1547.71 L1090.14 1568.04 L1084.29 1568.04 L1084.29 1562.63 Q1082.28 1565.88 1079.29 1567.44 Q1076.3 1568.97 1071.97 1568.97 Q1066.49 1568.97 1063.25 1565.91 Q1060.03 1562.82 1060.03 1557.67 Q1060.03 1551.65 1064.04 1548.6 Q1068.08 1545.54 1076.07 1545.54 L1084.29 1545.54 L1084.29 1544.97 Q1084.29 1540.93 1081.61 1538.73 Q1078.97 1536.5 1074.16 1536.5 Q1071.11 1536.5 1068.21 1537.23 Q1065.32 1537.97 1062.64 1539.43 L1062.64 1534.02 Q1065.86 1532.78 1068.88 1532.17 Q1071.9 1531.54 1074.77 1531.54 Q1082.5 1531.54 1086.32 1535.55 Q1090.14 1539.56 1090.14 1547.71 Z" fill="#000000" fill-rule="evenodd" fill-opacity="1" /><path clip-path="url(#clip770)" d="M1108 1522.27 L1108 1532.4 L1120.06 1532.4 L1120.06 1536.95 L1108 1536.95 L1108 1556.3 Q1108 1560.66 1109.18 1561.9 Q1110.38 1563.14 1114.04 1563.14 L1120.06 1563.14 L1120.06 1568.04 L1114.04 1568.04 Q1107.27 1568.04 1104.69 1565.53 Q1102.11 1562.98 1102.11 1556.3 L1102.11 1536.95 L1097.81 1536.95 L1097.81 1532.4 L1102.11 1532.4 L1102.11 1522.27 L1108 1522.27 Z" fill="#000000" fill-rule="evenodd" fill-opacity="1" /><path clip-path="url(#clip770)" d="M1127.76 1532.4 L1133.62 1532.4 L1133.62 1568.04 L1127.76 1568.04 L1127.76 1532.4 M1127.76 1518.52 L1133.62 1518.52 L1133.62 1525.93 L1127.76 1525.93 L1127.76 1518.52 Z" fill="#000000" fill-rule="evenodd" fill-opacity="1" /><path clip-path="url(#clip770)" d="M1159.69 1536.5 Q1154.98 1536.5 1152.24 1540.19 Q1149.5 1543.85 1149.5 1550.25 Q1149.5 1556.65 1152.21 1560.34 Q1154.94 1564 1159.69 1564 Q1164.37 1564 1167.1 1560.31 Q1169.84 1556.62 1169.84 1550.25 Q1169.84 1543.92 1167.1 1540.23 Q1164.37 1536.5 1159.69 1536.5 M1159.69 1531.54 Q1167.33 1531.54 1171.69 1536.5 Q1176.05 1541.47 1176.05 1550.25 Q1176.05 1559 1171.69 1564 Q1167.33 1568.97 1159.69 1568.97 Q1152.02 1568.97 1147.66 1564 Q1143.33 1559 1143.33 1550.25 Q1143.33 1541.47 1147.66 1536.5 Q1152.02 1531.54 1159.69 1531.54 Z" fill="#000000" fill-rule="evenodd" fill-opacity="1" /><path clip-path="url(#clip770)" d="M1215.39 1546.53 L1215.39 1568.04 L1209.53 1568.04 L1209.53 1546.72 Q1209.53 1541.66 1207.56 1539.14 Q1205.58 1536.63 1201.64 1536.63 Q1196.89 1536.63 1194.16 1539.65 Q1191.42 1542.68 1191.42 1547.9 L1191.42 1568.04 L1185.53 1568.04 L1185.53 1532.4 L1191.42 1532.4 L1191.42 1537.93 Q1193.52 1534.72 1196.35 1533.13 Q1199.22 1531.54 1202.94 1531.54 Q1209.08 1531.54 1212.24 1535.36 Q1215.39 1539.14 1215.39 1546.53 Z" fill="#000000" fill-rule="evenodd" fill-opacity="1" /><path clip-path="url(#clip770)" d="M1276.53 1522.08 L1276.53 1528.35 Q1272.87 1526.6 1269.62 1525.74 Q1266.38 1524.88 1263.35 1524.88 Q1258.1 1524.88 1255.24 1526.92 Q1252.4 1528.96 1252.4 1532.71 Q1252.4 1535.87 1254.28 1537.49 Q1256.19 1539.08 1261.47 1540.07 L1265.36 1540.86 Q1272.55 1542.23 1275.96 1545.7 Q1279.39 1549.14 1279.39 1554.93 Q1279.39 1561.84 1274.75 1565.4 Q1270.13 1568.97 1261.19 1568.97 Q1257.81 1568.97 1253.99 1568.2 Q1250.21 1567.44 1246.13 1565.94 L1246.13 1559.32 Q1250.05 1561.52 1253.8 1562.63 Q1257.56 1563.75 1261.19 1563.75 Q1266.69 1563.75 1269.69 1561.58 Q1272.68 1559.42 1272.68 1555.41 Q1272.68 1551.91 1270.51 1549.93 Q1268.38 1547.96 1263.48 1546.97 L1259.56 1546.21 Q1252.37 1544.78 1249.16 1541.72 Q1245.94 1538.67 1245.94 1533.22 Q1245.94 1526.92 1250.37 1523.29 Q1254.82 1519.66 1262.62 1519.66 Q1265.96 1519.66 1269.43 1520.27 Q1272.9 1520.87 1276.53 1522.08 Z" fill="#000000" fill-rule="evenodd" fill-opacity="1" /><path clip-path="url(#clip770)" d="M1314.82 1533.76 L1314.82 1539.24 Q1312.34 1537.87 1309.82 1537.2 Q1307.34 1536.5 1304.79 1536.5 Q1299.1 1536.5 1295.95 1540.13 Q1292.79 1543.73 1292.79 1550.25 Q1292.79 1556.78 1295.95 1560.4 Q1299.1 1564 1304.79 1564 Q1307.34 1564 1309.82 1563.33 Q1312.34 1562.63 1314.82 1561.26 L1314.82 1566.68 Q1312.37 1567.82 1309.73 1568.39 Q1307.12 1568.97 1304.16 1568.97 Q1296.1 1568.97 1291.36 1563.91 Q1286.62 1558.85 1286.62 1550.25 Q1286.62 1541.53 1291.39 1536.53 Q1296.2 1531.54 1304.54 1531.54 Q1307.24 1531.54 1309.82 1532.11 Q1312.4 1532.65 1314.82 1533.76 Z" fill="#000000" fill-rule="evenodd" fill-opacity="1" /><path clip-path="url(#clip770)" d="M1341.21 1550.12 Q1334.11 1550.12 1331.37 1551.75 Q1328.63 1553.37 1328.63 1557.29 Q1328.63 1560.4 1330.67 1562.25 Q1332.74 1564.07 1336.27 1564.07 Q1341.14 1564.07 1344.07 1560.63 Q1347.03 1557.16 1347.03 1551.43 L1347.03 1550.12 L1341.21 1550.12 M1352.89 1547.71 L1352.89 1568.04 L1347.03 1568.04 L1347.03 1562.63 Q1345.02 1565.88 1342.03 1567.44 Q1339.04 1568.97 1334.71 1568.97 Q1329.24 1568.97 1325.99 1565.91 Q1322.78 1562.82 1322.78 1557.67 Q1322.78 1551.65 1326.79 1548.6 Q1330.83 1545.54 1338.82 1545.54 L1347.03 1545.54 L1347.03 1544.97 Q1347.03 1540.93 1344.36 1538.73 Q1341.71 1536.5 1336.91 1536.5 Q1333.85 1536.5 1330.96 1537.23 Q1328.06 1537.97 1325.39 1539.43 L1325.39 1534.02 Q1328.6 1532.78 1331.62 1532.17 Q1334.65 1531.54 1337.51 1531.54 Q1345.25 1531.54 1349.07 1535.55 Q1352.89 1539.56 1352.89 1547.71 Z" fill="#000000" fill-rule="evenodd" fill-opacity="1" /><path clip-path="url(#clip770)" d="M1394.58 1546.53 L1394.58 1568.04 L1388.73 1568.04 L1388.73 1546.72 Q1388.73 1541.66 1386.75 1539.14 Q1384.78 1536.63 1380.83 1536.63 Q1376.09 1536.63 1373.35 1539.65 Q1370.61 1542.68 1370.61 1547.9 L1370.61 1568.04 L1364.73 1568.04 L1364.73 1532.4 L1370.61 1532.4 L1370.61 1537.93 Q1372.72 1534.72 1375.55 1533.13 Q1378.41 1531.54 1382.14 1531.54 Q1388.28 1531.54 1391.43 1535.36 Q1394.58 1539.14 1394.58 1546.53 Z" fill="#000000" fill-rule="evenodd" fill-opacity="1" /><path clip-path="url(#clip770)" d="M1435.9 1546.53 L1435.9 1568.04 L1430.04 1568.04 L1430.04 1546.72 Q1430.04 1541.66 1428.07 1539.14 Q1426.09 1536.63 1422.15 1536.63 Q1417.4 1536.63 1414.67 1539.65 Q1411.93 1542.68 1411.93 1547.9 L1411.93 1568.04 L1406.04 1568.04 L1406.04 1532.4 L1411.93 1532.4 L1411.93 1537.93 Q1414.03 1534.72 1416.86 1533.13 Q1419.73 1531.54 1423.45 1531.54 Q1429.59 1531.54 1432.74 1535.36 Q1435.9 1539.14 1435.9 1546.53 Z" fill="#000000" fill-rule="evenodd" fill-opacity="1" /><path clip-path="url(#clip770)" d="M1447.58 1532.4 L1453.43 1532.4 L1453.43 1568.04 L1447.58 1568.04 L1447.58 1532.4 M1447.58 1518.52 L1453.43 1518.52 L1453.43 1525.93 L1447.58 1525.93 L1447.58 1518.52 Z" fill="#000000" fill-rule="evenodd" fill-opacity="1" /><path clip-path="url(#clip770)" d="M1495.32 1546.53 L1495.32 1568.04 L1489.46 1568.04 L1489.46 1546.72 Q1489.46 1541.66 1487.49 1539.14 Q1485.52 1536.63 1481.57 1536.63 Q1476.83 1536.63 1474.09 1539.65 Q1471.35 1542.68 1471.35 1547.9 L1471.35 1568.04 L1465.46 1568.04 L1465.46 1532.4 L1471.35 1532.4 L1471.35 1537.93 Q1473.45 1534.72 1476.29 1533.13 Q1479.15 1531.54 1482.87 1531.54 Q1489.02 1531.54 1492.17 1535.36 Q1495.32 1539.14 1495.32 1546.53 Z" fill="#000000" fill-rule="evenodd" fill-opacity="1" /><path clip-path="url(#clip770)" d="M1530.46 1549.81 Q1530.46 1543.44 1527.82 1539.94 Q1525.21 1536.44 1520.46 1536.44 Q1515.75 1536.44 1513.11 1539.94 Q1510.5 1543.44 1510.5 1549.81 Q1510.5 1556.14 1513.11 1559.64 Q1515.75 1563.14 1520.46 1563.14 Q1525.21 1563.14 1527.82 1559.64 Q1530.46 1556.14 1530.46 1549.81 M1536.31 1563.62 Q1536.31 1572.72 1532.27 1577.15 Q1528.23 1581.6 1519.89 1581.6 Q1516.8 1581.6 1514.07 1581.13 Q1511.33 1580.68 1508.75 1579.72 L1508.75 1574.03 Q1511.33 1575.43 1513.84 1576.1 Q1516.36 1576.76 1518.97 1576.76 Q1524.73 1576.76 1527.59 1573.74 Q1530.46 1570.75 1530.46 1564.67 L1530.46 1561.77 Q1528.64 1564.92 1525.81 1566.48 Q1522.98 1568.04 1519.03 1568.04 Q1512.47 1568.04 1508.46 1563.05 Q1504.45 1558.05 1504.45 1549.81 Q1504.45 1541.53 1508.46 1536.53 Q1512.47 1531.54 1519.03 1531.54 Q1522.98 1531.54 1525.81 1533.1 Q1528.64 1534.66 1530.46 1537.81 L1530.46 1532.4 L1536.31 1532.4 L1536.31 1563.62 Z" fill="#000000" fill-rule="evenodd" fill-opacity="1" /><path clip-path="url(#clip770)" d="M1575.78 1545.35 L1575.78 1562.76 L1586.09 1562.76 Q1591.28 1562.76 1593.76 1560.63 Q1596.28 1558.46 1596.28 1554.04 Q1596.28 1549.58 1593.76 1547.48 Q1591.28 1545.35 1586.09 1545.35 L1575.78 1545.35 M1575.78 1525.81 L1575.78 1540.13 L1585.3 1540.13 Q1590.01 1540.13 1592.3 1538.38 Q1594.62 1536.6 1594.62 1532.97 Q1594.62 1529.37 1592.3 1527.59 Q1590.01 1525.81 1585.3 1525.81 L1575.78 1525.81 M1569.35 1520.52 L1585.78 1520.52 Q1593.13 1520.52 1597.11 1523.58 Q1601.09 1526.63 1601.09 1532.27 Q1601.09 1536.63 1599.05 1539.21 Q1597.01 1541.79 1593.06 1542.42 Q1597.81 1543.44 1600.42 1546.69 Q1603.06 1549.9 1603.06 1554.74 Q1603.06 1561.11 1598.73 1564.57 Q1594.4 1568.04 1586.41 1568.04 L1569.35 1568.04 L1569.35 1520.52 Z" fill="#000000" fill-rule="evenodd" fill-opacity="1" /><path clip-path="url(#clip770)" d="M1613.21 1553.98 L1613.21 1532.4 L1619.07 1532.4 L1619.07 1553.75 Q1619.07 1558.81 1621.04 1561.36 Q1623.02 1563.87 1626.96 1563.87 Q1631.7 1563.87 1634.44 1560.85 Q1637.21 1557.83 1637.21 1552.61 L1637.21 1532.4 L1643.07 1532.4 L1643.07 1568.04 L1637.21 1568.04 L1637.21 1562.57 Q1635.08 1565.82 1632.25 1567.41 Q1629.44 1568.97 1625.72 1568.97 Q1619.58 1568.97 1616.39 1565.15 Q1613.21 1561.33 1613.21 1553.98 M1627.95 1531.54 L1627.95 1531.54 Z" fill="#000000" fill-rule="evenodd" fill-opacity="1" /><path clip-path="url(#clip770)" d="M1678.59 1537.81 L1678.59 1518.52 L1684.44 1518.52 L1684.44 1568.04 L1678.59 1568.04 L1678.59 1562.7 Q1676.74 1565.88 1673.91 1567.44 Q1671.11 1568.97 1667.16 1568.97 Q1660.7 1568.97 1656.63 1563.81 Q1652.58 1558.65 1652.58 1550.25 Q1652.58 1541.85 1656.63 1536.69 Q1660.7 1531.54 1667.16 1531.54 Q1671.11 1531.54 1673.91 1533.1 Q1676.74 1534.62 1678.59 1537.81 M1658.63 1550.25 Q1658.63 1556.71 1661.27 1560.4 Q1663.95 1564.07 1668.59 1564.07 Q1673.24 1564.07 1675.91 1560.4 Q1678.59 1556.71 1678.59 1550.25 Q1678.59 1543.79 1675.91 1540.13 Q1673.24 1536.44 1668.59 1536.44 Q1663.95 1536.44 1661.27 1540.13 Q1658.63 1543.79 1658.63 1550.25 Z" fill="#000000" fill-rule="evenodd" fill-opacity="1" /><path clip-path="url(#clip770)" d="M1719.96 1549.81 Q1719.96 1543.44 1717.32 1539.94 Q1714.71 1536.44 1709.97 1536.44 Q1705.26 1536.44 1702.62 1539.94 Q1700.01 1543.44 1700.01 1549.81 Q1700.01 1556.14 1702.62 1559.64 Q1705.26 1563.14 1709.97 1563.14 Q1714.71 1563.14 1717.32 1559.64 Q1719.96 1556.14 1719.96 1549.81 M1725.82 1563.62 Q1725.82 1572.72 1721.78 1577.15 Q1717.74 1581.6 1709.4 1581.6 Q1706.31 1581.6 1703.57 1581.13 Q1700.84 1580.68 1698.26 1579.72 L1698.26 1574.03 Q1700.84 1575.43 1703.35 1576.1 Q1705.86 1576.76 1708.47 1576.76 Q1714.24 1576.76 1717.1 1573.74 Q1719.96 1570.75 1719.96 1564.67 L1719.96 1561.77 Q1718.15 1564.92 1715.32 1566.48 Q1712.49 1568.04 1708.54 1568.04 Q1701.98 1568.04 1697.97 1563.05 Q1693.96 1558.05 1693.96 1549.81 Q1693.96 1541.53 1697.97 1536.53 Q1701.98 1531.54 1708.54 1531.54 Q1712.49 1531.54 1715.32 1533.1 Q1718.15 1534.66 1719.96 1537.81 L1719.96 1532.4 L1725.82 1532.4 L1725.82 1563.62 Z" fill="#000000" fill-rule="evenodd" fill-opacity="1" /><path clip-path="url(#clip770)" d="M1768.38 1548.76 L1768.38 1551.62 L1741.45 1551.62 Q1741.83 1557.67 1745.08 1560.85 Q1748.36 1564 1754.18 1564 Q1757.55 1564 1760.71 1563.17 Q1763.89 1562.35 1767.01 1560.69 L1767.01 1566.23 Q1763.86 1567.57 1760.55 1568.27 Q1757.24 1568.97 1753.83 1568.97 Q1745.3 1568.97 1740.3 1564 Q1735.34 1559.04 1735.34 1550.57 Q1735.34 1541.82 1740.05 1536.69 Q1744.79 1531.54 1752.81 1531.54 Q1760.01 1531.54 1764.17 1536.18 Q1768.38 1540.8 1768.38 1548.76 M1762.52 1547.04 Q1762.46 1542.23 1759.81 1539.37 Q1757.2 1536.5 1752.88 1536.5 Q1747.97 1536.5 1745.01 1539.27 Q1742.09 1542.04 1741.64 1547.07 L1762.52 1547.04 Z" fill="#000000" fill-rule="evenodd" fill-opacity="1" /><path clip-path="url(#clip770)" d="M1783.78 1522.27 L1783.78 1532.4 L1795.84 1532.4 L1795.84 1536.95 L1783.78 1536.95 L1783.78 1556.3 Q1783.78 1560.66 1784.96 1561.9 Q1786.17 1563.14 1789.83 1563.14 L1795.84 1563.14 L1795.84 1568.04 L1789.83 1568.04 Q1783.05 1568.04 1780.47 1565.53 Q1777.89 1562.98 1777.89 1556.3 L1777.89 1536.95 L1773.6 1536.95 L1773.6 1532.4 L1777.89 1532.4 L1777.89 1522.27 L1783.78 1522.27 Z" fill="#000000" fill-rule="evenodd" fill-opacity="1" /><polyline clip-path="url(#clip772)" style="stroke:#000000; stroke-linecap:butt; stroke-linejoin:round; stroke-width:2; stroke-opacity:0.1; fill:none" points="
  175.445,1386.03 2352.76,1386.03 
  "/>
<polyline clip-path="url(#clip772)" style="stroke:#000000; stroke-linecap:butt; stroke-linejoin:round; stroke-width:2; stroke-opacity:0.1; fill:none" points="
  175.445,1075.37 2352.76,1075.37 
  "/>
<polyline clip-path="url(#clip772)" style="stroke:#000000; stroke-linecap:butt; stroke-linejoin:round; stroke-width:2; stroke-opacity:0.1; fill:none" points="
  175.445,764.714 2352.76,764.714 
  "/>
<polyline clip-path="url(#clip772)" style="stroke:#000000; stroke-linecap:butt; stroke-linejoin:round; stroke-width:2; stroke-opacity:0.1; fill:none" points="
  175.445,454.058 2352.76,454.058 
  "/>
<polyline clip-path="url(#clip772)" style="stroke:#000000; stroke-linecap:butt; stroke-linejoin:round; stroke-width:2; stroke-opacity:0.1; fill:none" points="
  175.445,143.401 2352.76,143.401 
  "/>
<polyline clip-path="url(#clip770)" style="stroke:#000000; stroke-linecap:butt; stroke-linejoin:round; stroke-width:4; stroke-opacity:1; fill:none" points="
  175.445,1423.18 175.445,123.472 
  "/>
<polyline clip-path="url(#clip770)" style="stroke:#000000; stroke-linecap:butt; stroke-linejoin:round; stroke-width:4; stroke-opacity:1; fill:none" points="
  175.445,1386.03 194.343,1386.03 
  "/>
<polyline clip-path="url(#clip770)" style="stroke:#000000; stroke-linecap:butt; stroke-linejoin:round; stroke-width:4; stroke-opacity:1; fill:none" points="
  175.445,1075.37 194.343,1075.37 
  "/>
<polyline clip-path="url(#clip770)" style="stroke:#000000; stroke-linecap:butt; stroke-linejoin:round; stroke-width:4; stroke-opacity:1; fill:none" points="
  175.445,764.714 194.343,764.714 
  "/>
<polyline clip-path="url(#clip770)" style="stroke:#000000; stroke-linecap:butt; stroke-linejoin:round; stroke-width:4; stroke-opacity:1; fill:none" points="
  175.445,454.058 194.343,454.058 
  "/>
<polyline clip-path="url(#clip770)" style="stroke:#000000; stroke-linecap:butt; stroke-linejoin:round; stroke-width:4; stroke-opacity:1; fill:none" points="
  175.445,143.401 194.343,143.401 
  "/>
<path clip-path="url(#clip770)" d="M127.501 1371.83 Q123.89 1371.83 122.061 1375.39 Q120.255 1378.93 120.255 1386.06 Q120.255 1393.17 122.061 1396.73 Q123.89 1400.27 127.501 1400.27 Q131.135 1400.27 132.941 1396.73 Q134.769 1393.17 134.769 1386.06 Q134.769 1378.93 132.941 1375.39 Q131.135 1371.83 127.501 1371.83 M127.501 1368.12 Q133.311 1368.12 136.367 1372.73 Q139.445 1377.31 139.445 1386.06 Q139.445 1394.79 136.367 1399.39 Q133.311 1403.98 127.501 1403.98 Q121.691 1403.98 118.612 1399.39 Q115.556 1394.79 115.556 1386.06 Q115.556 1377.31 118.612 1372.73 Q121.691 1368.12 127.501 1368.12 Z" fill="#000000" fill-rule="evenodd" fill-opacity="1" /><path clip-path="url(#clip770)" d="M123.126 1088.72 L139.445 1088.72 L139.445 1092.65 L117.501 1092.65 L117.501 1088.72 Q120.163 1085.96 124.746 1081.33 Q129.353 1076.68 130.533 1075.34 Q132.779 1072.81 133.658 1071.08 Q134.561 1069.32 134.561 1067.63 Q134.561 1064.87 132.617 1063.14 Q130.695 1061.4 127.593 1061.4 Q125.394 1061.4 122.941 1062.16 Q120.51 1062.93 117.732 1064.48 L117.732 1059.76 Q120.556 1058.62 123.01 1058.04 Q125.464 1057.47 127.501 1057.47 Q132.871 1057.47 136.066 1060.15 Q139.26 1062.84 139.26 1067.33 Q139.26 1069.46 138.45 1071.38 Q137.663 1073.28 135.556 1075.87 Q134.978 1076.54 131.876 1079.76 Q128.774 1082.95 123.126 1088.72 Z" fill="#000000" fill-rule="evenodd" fill-opacity="1" /><path clip-path="url(#clip770)" d="M129.862 751.508 L118.056 769.957 L129.862 769.957 L129.862 751.508 M128.635 747.434 L134.515 747.434 L134.515 769.957 L139.445 769.957 L139.445 773.846 L134.515 773.846 L134.515 781.994 L129.862 781.994 L129.862 773.846 L114.26 773.846 L114.26 769.332 L128.635 747.434 Z" fill="#000000" fill-rule="evenodd" fill-opacity="1" /><path clip-path="url(#clip770)" d="M127.917 452.194 Q124.769 452.194 122.918 454.347 Q121.089 456.5 121.089 460.25 Q121.089 463.977 122.918 466.152 Q124.769 468.305 127.917 468.305 Q131.066 468.305 132.894 466.152 Q134.746 463.977 134.746 460.25 Q134.746 456.5 132.894 454.347 Q131.066 452.194 127.917 452.194 M137.2 437.541 L137.2 441.801 Q135.441 440.967 133.635 440.528 Q131.853 440.088 130.093 440.088 Q125.464 440.088 123.01 443.213 Q120.58 446.338 120.232 452.657 Q121.598 450.643 123.658 449.578 Q125.718 448.49 128.195 448.49 Q133.404 448.49 136.413 451.662 Q139.445 454.81 139.445 460.25 Q139.445 465.574 136.297 468.791 Q133.149 472.009 127.917 472.009 Q121.922 472.009 118.751 467.426 Q115.58 462.819 115.58 454.092 Q115.58 445.898 119.468 441.037 Q123.357 436.153 129.908 436.153 Q131.667 436.153 133.45 436.5 Q135.255 436.847 137.2 437.541 Z" fill="#000000" fill-rule="evenodd" fill-opacity="1" /><path clip-path="url(#clip770)" d="M127.593 144.269 Q124.26 144.269 122.339 146.052 Q120.441 147.834 120.441 150.959 Q120.441 154.084 122.339 155.866 Q124.26 157.649 127.593 157.649 Q130.927 157.649 132.848 155.866 Q134.769 154.061 134.769 150.959 Q134.769 147.834 132.848 146.052 Q130.95 144.269 127.593 144.269 M122.918 142.279 Q119.908 141.538 118.218 139.478 Q116.552 137.417 116.552 134.454 Q116.552 130.311 119.492 127.904 Q122.455 125.496 127.593 125.496 Q132.755 125.496 135.695 127.904 Q138.635 130.311 138.635 134.454 Q138.635 137.417 136.945 139.478 Q135.279 141.538 132.292 142.279 Q135.672 143.066 137.547 145.357 Q139.445 147.649 139.445 150.959 Q139.445 155.982 136.367 158.667 Q133.311 161.352 127.593 161.352 Q121.876 161.352 118.797 158.667 Q115.742 155.982 115.742 150.959 Q115.742 147.649 117.64 145.357 Q119.538 143.066 122.918 142.279 M121.205 134.894 Q121.205 137.579 122.871 139.084 Q124.561 140.589 127.593 140.589 Q130.603 140.589 132.292 139.084 Q134.005 137.579 134.005 134.894 Q134.005 132.209 132.292 130.705 Q130.603 129.2 127.593 129.2 Q124.561 129.2 122.871 130.705 Q121.205 132.209 121.205 134.894 Z" fill="#000000" fill-rule="evenodd" fill-opacity="1" /><path clip-path="url(#clip770)" d="M16.4842 1145.13 L16.4842 1138.7 L64.0042 1138.7 L64.0042 1145.13 L16.4842 1145.13 Z" fill="#000000" fill-rule="evenodd" fill-opacity="1" /><path clip-path="url(#clip770)" d="M42.4881 1096.53 L64.0042 1096.53 L64.0042 1102.39 L42.679 1102.39 Q37.6183 1102.39 35.1038 1104.36 Q32.5894 1106.33 32.5894 1110.28 Q32.5894 1115.02 35.6131 1117.76 Q38.6368 1120.5 43.8567 1120.5 L64.0042 1120.5 L64.0042 1126.38 L28.3562 1126.38 L28.3562 1120.5 L33.8944 1120.5 Q30.6797 1118.4 29.0883 1115.56 Q27.4968 1112.7 27.4968 1108.97 Q27.4968 1102.83 31.3163 1099.68 Q35.1038 1096.53 42.4881 1096.53 Z" fill="#000000" fill-rule="evenodd" fill-opacity="1" /><path clip-path="url(#clip770)" d="M18.2347 1079.05 L28.3562 1079.05 L28.3562 1066.99 L32.9077 1066.99 L32.9077 1079.05 L52.2594 1079.05 Q56.6199 1079.05 57.8613 1077.88 Q59.1026 1076.67 59.1026 1073.01 L59.1026 1066.99 L64.0042 1066.99 L64.0042 1073.01 Q64.0042 1079.79 61.4897 1082.37 Q58.9434 1084.94 52.2594 1084.94 L32.9077 1084.94 L32.9077 1089.24 L28.3562 1089.24 L28.3562 1084.94 L18.2347 1084.94 L18.2347 1079.05 Z" fill="#000000" fill-rule="evenodd" fill-opacity="1" /><path clip-path="url(#clip770)" d="M33.8307 1038.63 Q33.2578 1039.62 33.0032 1040.8 Q32.7167 1041.94 32.7167 1043.34 Q32.7167 1048.31 35.9632 1050.98 Q39.1779 1053.62 45.2253 1053.62 L64.0042 1053.62 L64.0042 1059.51 L28.3562 1059.51 L28.3562 1053.62 L33.8944 1053.62 Q30.6479 1051.78 29.0883 1048.82 Q27.4968 1045.86 27.4968 1041.62 Q27.4968 1041.02 27.5923 1040.29 Q27.656 1039.56 27.8151 1038.66 L33.8307 1038.63 Z" fill="#000000" fill-rule="evenodd" fill-opacity="1" /><path clip-path="url(#clip770)" d="M49.9359 1033.09 L28.3562 1033.09 L28.3562 1027.24 L49.7131 1027.24 Q54.7739 1027.24 57.3202 1025.26 Q59.8346 1023.29 59.8346 1019.34 Q59.8346 1014.6 56.8109 1011.86 Q53.7872 1009.1 48.5673 1009.1 L28.3562 1009.1 L28.3562 1003.24 L64.0042 1003.24 L64.0042 1009.1 L58.5296 1009.1 Q61.7762 1011.23 63.3676 1014.06 Q64.9272 1016.86 64.9272 1020.59 Q64.9272 1026.73 61.1078 1029.91 Q57.2883 1033.09 49.9359 1033.09 M27.4968 1018.36 L27.4968 1018.36 Z" fill="#000000" fill-rule="evenodd" fill-opacity="1" /><path clip-path="url(#clip770)" d="M33.7671 967.719 L14.479 967.719 L14.479 961.862 L64.0042 961.862 L64.0042 967.719 L58.657 967.719 Q61.8398 969.565 63.3994 972.398 Q64.9272 975.198 64.9272 979.145 Q64.9272 985.606 59.771 989.68 Q54.6147 993.723 46.212 993.723 Q37.8093 993.723 32.6531 989.68 Q27.4968 985.606 27.4968 979.145 Q27.4968 975.198 29.0564 972.398 Q30.5842 969.565 33.7671 967.719 M46.212 987.675 Q52.6732 987.675 56.3653 985.033 Q60.0256 982.36 60.0256 977.713 Q60.0256 973.066 56.3653 970.392 Q52.6732 967.719 46.212 967.719 Q39.7508 967.719 36.0905 970.392 Q32.3984 973.066 32.3984 977.713 Q32.3984 982.36 36.0905 985.033 Q39.7508 987.675 46.212 987.675 Z" fill="#000000" fill-rule="evenodd" fill-opacity="1" /><path clip-path="url(#clip770)" d="M44.7161 919.308 L47.5806 919.308 L47.5806 946.234 Q53.6281 945.853 56.8109 942.606 Q59.9619 939.328 59.9619 933.503 Q59.9619 930.129 59.1344 926.978 Q58.3069 923.795 56.6518 920.676 L62.1899 920.676 Q63.5267 923.827 64.227 927.137 Q64.9272 930.448 64.9272 933.853 Q64.9272 942.383 59.9619 947.38 Q54.9967 952.346 46.5303 952.346 Q37.7774 952.346 32.6531 947.635 Q27.4968 942.892 27.4968 934.872 Q27.4968 927.678 32.1438 923.509 Q36.7589 919.308 44.7161 919.308 M42.9973 925.164 Q38.1912 925.228 35.3266 927.869 Q32.4621 930.479 32.4621 934.808 Q32.4621 939.71 35.2312 942.67 Q38.0002 945.598 43.0292 946.044 L42.9973 925.164 Z" fill="#000000" fill-rule="evenodd" fill-opacity="1" /><path clip-path="url(#clip770)" d="M33.8307 889.039 Q33.2578 890.025 33.0032 891.203 Q32.7167 892.349 32.7167 893.749 Q32.7167 898.714 35.9632 901.388 Q39.1779 904.03 45.2253 904.03 L64.0042 904.03 L64.0042 909.918 L28.3562 909.918 L28.3562 904.03 L33.8944 904.03 Q30.6479 902.184 29.0883 899.224 Q27.4968 896.264 27.4968 892.03 Q27.4968 891.426 27.5923 890.694 Q27.656 889.962 27.8151 889.07 L33.8307 889.039 Z" fill="#000000" fill-rule="evenodd" fill-opacity="1" /><path clip-path="url(#clip770)" d="M18.0438 833.434 L24.314 833.434 Q22.5634 837.094 21.704 840.341 Q20.8447 843.587 20.8447 846.611 Q20.8447 851.863 22.8817 854.727 Q24.9187 857.56 28.6745 857.56 Q31.8255 857.56 33.4488 855.682 Q35.0402 853.773 36.0269 848.489 L36.8226 844.606 Q38.1912 837.413 41.6605 834.007 Q45.098 830.57 50.8908 830.57 Q57.7976 830.57 61.3624 835.217 Q64.9272 839.832 64.9272 848.776 Q64.9272 852.149 64.1633 855.969 Q63.3994 859.756 61.9035 863.83 L55.2831 863.83 Q57.4793 859.916 58.5933 856.16 Q59.7073 852.404 59.7073 848.776 Q59.7073 843.269 57.543 840.277 Q55.3786 837.285 51.3682 837.285 Q47.8671 837.285 45.8937 839.45 Q43.9204 841.582 42.9337 846.484 L42.1698 850.399 Q40.7375 857.592 37.682 860.807 Q34.6264 864.021 29.1837 864.021 Q22.8817 864.021 19.2532 859.597 Q15.6248 855.141 15.6248 847.343 Q15.6248 844.001 16.2295 840.532 Q16.8343 837.063 18.0438 833.434 Z" fill="#000000" fill-rule="evenodd" fill-opacity="1" /><path clip-path="url(#clip770)" d="M46.0847 804.598 Q46.0847 811.695 47.7079 814.433 Q49.3312 817.17 53.2461 817.17 Q56.3653 817.17 58.2114 815.133 Q60.0256 813.064 60.0256 809.531 Q60.0256 804.661 56.5881 801.733 Q53.1188 798.773 47.3897 798.773 L46.0847 798.773 L46.0847 804.598 M43.6657 792.916 L64.0042 792.916 L64.0042 798.773 L58.5933 798.773 Q61.8398 800.778 63.3994 803.77 Q64.9272 806.762 64.9272 811.091 Q64.9272 816.565 61.8716 819.812 Q58.7843 823.026 53.6281 823.026 Q47.6125 823.026 44.5569 819.016 Q41.5014 814.974 41.5014 806.985 L41.5014 798.773 L40.9285 798.773 Q36.8862 798.773 34.6901 801.446 Q32.4621 804.088 32.4621 808.894 Q32.4621 811.95 33.1941 814.846 Q33.9262 817.743 35.3903 820.416 L29.9795 820.416 Q28.7381 817.202 28.1334 814.178 Q27.4968 811.154 27.4968 808.29 Q27.4968 800.555 31.5072 796.736 Q35.5176 792.916 43.6657 792.916 Z" fill="#000000" fill-rule="evenodd" fill-opacity="1" /><path clip-path="url(#clip770)" d="M18.2347 775.061 L28.3562 775.061 L28.3562 762.998 L32.9077 762.998 L32.9077 775.061 L52.2594 775.061 Q56.6199 775.061 57.8613 773.883 Q59.1026 772.673 59.1026 769.013 L59.1026 762.998 L64.0042 762.998 L64.0042 769.013 Q64.0042 775.793 61.4897 778.371 Q58.9434 780.949 52.2594 780.949 L32.9077 780.949 L32.9077 785.246 L28.3562 785.246 L28.3562 780.949 L18.2347 780.949 L18.2347 775.061 Z" fill="#000000" fill-rule="evenodd" fill-opacity="1" /><path clip-path="url(#clip770)" d="M44.7161 724.803 L47.5806 724.803 L47.5806 751.73 Q53.6281 751.348 56.8109 748.102 Q59.9619 744.824 59.9619 738.999 Q59.9619 735.625 59.1344 732.474 Q58.3069 729.291 56.6518 726.172 L62.1899 726.172 Q63.5267 729.323 64.227 732.633 Q64.9272 735.943 64.9272 739.349 Q64.9272 747.879 59.9619 752.876 Q54.9967 757.841 46.5303 757.841 Q37.7774 757.841 32.6531 753.131 Q27.4968 748.388 27.4968 740.368 Q27.4968 733.174 32.1438 729.005 Q36.7589 724.803 44.7161 724.803 M42.9973 730.66 Q38.1912 730.723 35.3266 733.365 Q32.4621 735.975 32.4621 740.304 Q32.4621 745.205 35.2312 748.166 Q38.0002 751.094 43.0292 751.539 L42.9973 730.66 Z" fill="#000000" fill-rule="evenodd" fill-opacity="1" /><path clip-path="url(#clip770)" d="M14.479 715.191 L14.479 709.335 L64.0042 709.335 L64.0042 715.191 L14.479 715.191 Z" fill="#000000" fill-rule="evenodd" fill-opacity="1" /><path clip-path="url(#clip770)" d="M14.479 697.081 L14.479 691.224 L64.0042 691.224 L64.0042 697.081 L14.479 697.081 Z" fill="#000000" fill-rule="evenodd" fill-opacity="1" /><path clip-path="url(#clip770)" d="M28.3562 678.97 L28.3562 673.114 L64.0042 673.114 L64.0042 678.97 L28.3562 678.97 M14.479 678.97 L14.479 673.114 L21.895 673.114 L21.895 678.97 L14.479 678.97 Z" fill="#000000" fill-rule="evenodd" fill-opacity="1" /><path clip-path="url(#clip770)" d="M18.2347 655.067 L28.3562 655.067 L28.3562 643.004 L32.9077 643.004 L32.9077 655.067 L52.2594 655.067 Q56.6199 655.067 57.8613 653.889 Q59.1026 652.68 59.1026 649.02 L59.1026 643.004 L64.0042 643.004 L64.0042 649.02 Q64.0042 655.799 61.4897 658.377 Q58.9434 660.955 52.2594 660.955 L32.9077 660.955 L32.9077 665.252 L28.3562 665.252 L28.3562 660.955 L18.2347 660.955 L18.2347 655.067 Z" fill="#000000" fill-rule="evenodd" fill-opacity="1" /><path clip-path="url(#clip770)" d="M44.7161 604.81 L47.5806 604.81 L47.5806 631.737 Q53.6281 631.355 56.8109 628.108 Q59.9619 624.83 59.9619 619.005 Q59.9619 615.632 59.1344 612.48 Q58.3069 609.298 56.6518 606.178 L62.1899 606.178 Q63.5267 609.329 64.227 612.64 Q64.9272 615.95 64.9272 619.355 Q64.9272 627.886 59.9619 632.883 Q54.9967 637.848 46.5303 637.848 Q37.7774 637.848 32.6531 633.137 Q27.4968 628.395 27.4968 620.374 Q27.4968 613.181 32.1438 609.011 Q36.7589 604.81 44.7161 604.81 M42.9973 610.666 Q38.1912 610.73 35.3266 613.372 Q32.4621 615.982 32.4621 620.31 Q32.4621 625.212 35.2312 628.172 Q38.0002 631.1 43.0292 631.546 L42.9973 610.666 Z" fill="#000000" fill-rule="evenodd" fill-opacity="1" /><path clip-path="url(#clip770)" d="M18.0438 545.736 L24.314 545.736 Q22.5634 549.396 21.704 552.643 Q20.8447 555.889 20.8447 558.913 Q20.8447 564.165 22.8817 567.029 Q24.9187 569.862 28.6745 569.862 Q31.8255 569.862 33.4488 567.984 Q35.0402 566.074 36.0269 560.791 L36.8226 556.908 Q38.1912 549.715 41.6605 546.309 Q45.098 542.871 50.8908 542.871 Q57.7976 542.871 61.3624 547.518 Q64.9272 552.134 64.9272 561.077 Q64.9272 564.451 64.1633 568.271 Q63.3994 572.058 61.9035 576.132 L55.2831 576.132 Q57.4793 572.217 58.5933 568.462 Q59.7073 564.706 59.7073 561.077 Q59.7073 555.571 57.543 552.579 Q55.3786 549.587 51.3682 549.587 Q47.8671 549.587 45.8937 551.752 Q43.9204 553.884 42.9337 558.786 L42.1698 562.701 Q40.7375 569.894 37.682 573.109 Q34.6264 576.323 29.1837 576.323 Q22.8817 576.323 19.2532 571.899 Q15.6248 567.443 15.6248 559.645 Q15.6248 556.303 16.2295 552.834 Q16.8343 549.365 18.0438 545.736 Z" fill="#000000" fill-rule="evenodd" fill-opacity="1" /><path clip-path="url(#clip770)" d="M29.7248 507.446 L35.1993 507.446 Q33.8307 509.929 33.1623 512.443 Q32.4621 514.926 32.4621 517.472 Q32.4621 523.17 36.0905 526.321 Q39.6872 529.472 46.212 529.472 Q52.7369 529.472 56.3653 526.321 Q59.9619 523.17 59.9619 517.472 Q59.9619 514.926 59.2935 512.443 Q58.5933 509.929 57.2247 507.446 L62.6355 507.446 Q63.7814 509.897 64.3543 512.539 Q64.9272 515.149 64.9272 518.109 Q64.9272 526.162 59.8664 530.904 Q54.8057 535.646 46.212 535.646 Q37.491 535.646 32.4939 530.872 Q27.4968 526.066 27.4968 517.727 Q27.4968 515.022 28.0697 512.443 Q28.6108 509.865 29.7248 507.446 Z" fill="#000000" fill-rule="evenodd" fill-opacity="1" /><path clip-path="url(#clip770)" d="M32.4621 483.448 Q32.4621 488.158 36.1542 490.895 Q39.8145 493.633 46.212 493.633 Q52.6095 493.633 56.3017 490.927 Q59.9619 488.19 59.9619 483.448 Q59.9619 478.769 56.2698 476.032 Q52.5777 473.294 46.212 473.294 Q39.8781 473.294 36.186 476.032 Q32.4621 478.769 32.4621 483.448 M27.4968 483.448 Q27.4968 475.809 32.4621 471.448 Q37.4273 467.088 46.212 467.088 Q54.9649 467.088 59.9619 471.448 Q64.9272 475.809 64.9272 483.448 Q64.9272 491.118 59.9619 495.479 Q54.9649 499.807 46.212 499.807 Q37.4273 499.807 32.4621 495.479 Q27.4968 491.118 27.4968 483.448 Z" fill="#000000" fill-rule="evenodd" fill-opacity="1" /><path clip-path="url(#clip770)" d="M33.8307 436.723 Q33.2578 437.71 33.0032 438.888 Q32.7167 440.033 32.7167 441.434 Q32.7167 446.399 35.9632 449.073 Q39.1779 451.715 45.2253 451.715 L64.0042 451.715 L64.0042 457.603 L28.3562 457.603 L28.3562 451.715 L33.8944 451.715 Q30.6479 449.869 29.0883 446.908 Q27.4968 443.948 27.4968 439.715 Q27.4968 439.11 27.5923 438.378 Q27.656 437.646 27.8151 436.755 L33.8307 436.723 Z" fill="#000000" fill-rule="evenodd" fill-opacity="1" /><path clip-path="url(#clip770)" d="M44.7161 401.521 L47.5806 401.521 L47.5806 428.448 Q53.6281 428.066 56.8109 424.819 Q59.9619 421.541 59.9619 415.716 Q59.9619 412.343 59.1344 409.192 Q58.3069 406.009 56.6518 402.89 L62.1899 402.89 Q63.5267 406.041 64.227 409.351 Q64.9272 412.661 64.9272 416.067 Q64.9272 424.597 59.9619 429.594 Q54.9967 434.559 46.5303 434.559 Q37.7774 434.559 32.6531 429.848 Q27.4968 425.106 27.4968 417.085 Q27.4968 409.892 32.1438 405.722 Q36.7589 401.521 44.7161 401.521 M42.9973 407.377 Q38.1912 407.441 35.3266 410.083 Q32.4621 412.693 32.4621 417.021 Q32.4621 421.923 35.2312 424.883 Q38.0002 427.811 43.0292 428.257 L42.9973 407.377 Z" fill="#000000" fill-rule="evenodd" fill-opacity="1" /><path clip-path="url(#clip770)" d="M600.036 65.6895 L613.404 65.6895 L613.404 19.5497 L598.861 22.4663 L598.861 15.0127 L613.323 12.096 L621.506 12.096 L621.506 65.6895 L634.874 65.6895 L634.874 72.576 L600.036 72.576 L600.036 65.6895 Z" fill="#000000" fill-rule="evenodd" fill-opacity="1" /><path clip-path="url(#clip770)" d="M668.901 17.4837 Q662.582 17.4837 659.382 23.7221 Q656.222 29.92 656.222 42.3968 Q656.222 54.833 659.382 61.0714 Q662.582 67.2693 668.901 67.2693 Q675.261 67.2693 678.421 61.0714 Q681.621 54.833 681.621 42.3968 Q681.621 29.92 678.421 23.7221 Q675.261 17.4837 668.901 17.4837 M668.901 11.0023 Q679.069 11.0023 684.416 19.0636 Q689.804 27.0843 689.804 42.3968 Q689.804 57.6687 684.416 65.73 Q679.069 73.7508 668.901 73.7508 Q658.733 73.7508 653.346 65.73 Q647.999 57.6687 647.999 42.3968 Q647.999 27.0843 653.346 19.0636 Q658.733 11.0023 668.901 11.0023 Z" fill="#000000" fill-rule="evenodd" fill-opacity="1" /><path clip-path="url(#clip770)" d="M766.082 14.0809 L766.082 22.0612 Q761.424 19.8332 757.292 18.7395 Q753.16 17.6457 749.312 17.6457 Q742.628 17.6457 738.982 20.2383 Q735.377 22.8309 735.377 27.611 Q735.377 31.6214 737.767 33.6873 Q740.197 35.7128 746.922 36.9686 L751.864 37.9813 Q761.019 39.7232 765.353 44.1387 Q769.728 48.5136 769.728 55.8863 Q769.728 64.6767 763.814 69.2137 Q757.94 73.7508 746.557 73.7508 Q742.263 73.7508 737.402 72.7785 Q732.581 71.8063 727.396 69.9024 L727.396 61.4765 Q732.379 64.2716 737.159 65.6895 Q741.939 67.1073 746.557 67.1073 Q753.565 67.1073 757.373 64.3527 Q761.181 61.598 761.181 56.4939 Q761.181 52.0379 758.426 49.5264 Q755.712 47.0148 749.474 45.759 L744.491 44.7868 Q735.336 42.9639 731.245 39.075 Q727.153 35.1862 727.153 28.2591 Q727.153 20.2383 732.784 15.6203 Q738.455 11.0023 748.38 11.0023 Q752.633 11.0023 757.049 11.7719 Q761.464 12.5416 766.082 14.0809 Z" fill="#000000" fill-rule="evenodd" fill-opacity="1" /><path clip-path="url(#clip770)" d="M789.537 14.324 L789.537 27.2059 L804.89 27.2059 L804.89 32.9987 L789.537 32.9987 L789.537 57.6282 Q789.537 63.1779 791.036 64.7578 Q792.575 66.3376 797.234 66.3376 L804.89 66.3376 L804.89 72.576 L797.234 72.576 Q788.605 72.576 785.324 69.3758 Q782.043 66.1351 782.043 57.6282 L782.043 32.9987 L776.574 32.9987 L776.574 27.2059 L782.043 27.2059 L782.043 14.324 L789.537 14.324 Z" fill="#000000" fill-rule="evenodd" fill-opacity="1" /><path clip-path="url(#clip770)" d="M853.501 48.0275 L853.501 51.6733 L819.23 51.6733 Q819.716 59.3701 823.848 63.421 Q828.021 67.4314 835.434 67.4314 Q839.728 67.4314 843.738 66.3781 Q847.789 65.3249 851.759 63.2184 L851.759 70.267 Q847.749 71.9684 843.536 72.8596 Q839.323 73.7508 834.988 73.7508 Q824.132 73.7508 817.772 67.4314 Q811.453 61.1119 811.453 50.3365 Q811.453 39.1965 817.448 32.6746 Q823.484 26.1121 833.692 26.1121 Q842.847 26.1121 848.154 32.0264 Q853.501 37.9003 853.501 48.0275 M846.047 45.84 Q845.966 39.7232 842.604 36.0774 Q839.282 32.4315 833.773 32.4315 Q827.535 32.4315 823.767 35.9558 Q820.04 39.4801 819.473 45.8805 L846.047 45.84 Z" fill="#000000" fill-rule="evenodd" fill-opacity="1" /><path clip-path="url(#clip770)" d="M872.945 65.7705 L872.945 89.8329 L865.451 89.8329 L865.451 27.2059 L872.945 27.2059 L872.945 34.0924 Q875.295 30.0415 878.86 28.0971 Q882.465 26.1121 887.447 26.1121 Q895.711 26.1121 900.856 32.6746 Q906.041 39.2371 906.041 49.9314 Q906.041 60.6258 900.856 67.1883 Q895.711 73.7508 887.447 73.7508 Q882.465 73.7508 878.86 71.8063 Q875.295 69.8214 872.945 65.7705 M898.304 49.9314 Q898.304 41.7081 894.901 37.0496 Q891.539 32.3505 885.625 32.3505 Q879.71 32.3505 876.307 37.0496 Q872.945 41.7081 872.945 49.9314 Q872.945 58.1548 876.307 62.8538 Q879.71 67.5124 885.625 67.5124 Q891.539 67.5124 894.901 62.8538 Q898.304 58.1548 898.304 49.9314 Z" fill="#000000" fill-rule="evenodd" fill-opacity="1" /><path clip-path="url(#clip770)" d="M945.092 12.096 L957.285 12.096 L972.719 53.2532 L988.234 12.096 L1000.43 12.096 L1000.43 72.576 L992.447 72.576 L992.447 19.4686 L976.851 60.9499 L968.628 60.9499 L953.032 19.4686 L953.032 72.576 L945.092 72.576 L945.092 12.096 Z" fill="#000000" fill-rule="evenodd" fill-opacity="1" /><path clip-path="url(#clip770)" d="M1033.93 32.4315 Q1027.93 32.4315 1024.45 37.1306 Q1020.97 41.7891 1020.97 49.9314 Q1020.97 58.0738 1024.41 62.7728 Q1027.89 67.4314 1033.93 67.4314 Q1039.88 67.4314 1043.37 62.7323 Q1046.85 58.0333 1046.85 49.9314 Q1046.85 41.8701 1043.37 37.1711 Q1039.88 32.4315 1033.93 32.4315 M1033.93 26.1121 Q1043.65 26.1121 1049.2 32.4315 Q1054.75 38.7509 1054.75 49.9314 Q1054.75 61.0714 1049.2 67.4314 Q1043.65 73.7508 1033.93 73.7508 Q1024.17 73.7508 1018.62 67.4314 Q1013.11 61.0714 1013.11 49.9314 Q1013.11 38.7509 1018.62 32.4315 Q1024.17 26.1121 1033.93 26.1121 Z" fill="#000000" fill-rule="evenodd" fill-opacity="1" /><path clip-path="url(#clip770)" d="M1096.96 34.0924 L1096.96 9.54393 L1104.41 9.54393 L1104.41 72.576 L1096.96 72.576 L1096.96 65.7705 Q1094.61 69.8214 1091.01 71.8063 Q1087.44 73.7508 1082.42 73.7508 Q1074.19 73.7508 1069.01 67.1883 Q1063.86 60.6258 1063.86 49.9314 Q1063.86 39.2371 1069.01 32.6746 Q1074.19 26.1121 1082.42 26.1121 Q1087.44 26.1121 1091.01 28.0971 Q1094.61 30.0415 1096.96 34.0924 M1071.56 49.9314 Q1071.56 58.1548 1074.92 62.8538 Q1078.33 67.5124 1084.24 67.5124 Q1090.15 67.5124 1093.56 62.8538 Q1096.96 58.1548 1096.96 49.9314 Q1096.96 41.7081 1093.56 37.0496 Q1090.15 32.3505 1084.24 32.3505 Q1078.33 32.3505 1074.92 37.0496 Q1071.56 41.7081 1071.56 49.9314 Z" fill="#000000" fill-rule="evenodd" fill-opacity="1" /><path clip-path="url(#clip770)" d="M1158.57 48.0275 L1158.57 51.6733 L1124.3 51.6733 Q1124.79 59.3701 1128.92 63.421 Q1133.09 67.4314 1140.51 67.4314 Q1144.8 67.4314 1148.81 66.3781 Q1152.86 65.3249 1156.83 63.2184 L1156.83 70.267 Q1152.82 71.9684 1148.61 72.8596 Q1144.4 73.7508 1140.06 73.7508 Q1129.21 73.7508 1122.85 67.4314 Q1116.53 61.1119 1116.53 50.3365 Q1116.53 39.1965 1122.52 32.6746 Q1128.56 26.1121 1138.77 26.1121 Q1147.92 26.1121 1153.23 32.0264 Q1158.57 37.9003 1158.57 48.0275 M1151.12 45.84 Q1151.04 39.7232 1147.68 36.0774 Q1144.36 32.4315 1138.85 32.4315 Q1132.61 32.4315 1128.84 35.9558 Q1125.11 39.4801 1124.55 45.8805 L1151.12 45.84 Z" fill="#000000" fill-rule="evenodd" fill-opacity="1" /><path clip-path="url(#clip770)" d="M1242.79 16.7545 L1242.79 25.383 Q1238.66 21.5346 1233.96 19.6307 Q1229.3 17.7268 1224.04 17.7268 Q1213.67 17.7268 1208.16 24.0867 Q1202.65 30.4061 1202.65 42.3968 Q1202.65 54.3469 1208.16 60.7069 Q1213.67 67.0263 1224.04 67.0263 Q1229.3 67.0263 1233.96 65.1223 Q1238.66 63.2184 1242.79 59.3701 L1242.79 67.9175 Q1238.5 70.8341 1233.68 72.2924 Q1228.9 73.7508 1223.55 73.7508 Q1209.82 73.7508 1201.92 65.3654 Q1194.02 56.9395 1194.02 42.3968 Q1194.02 27.8135 1201.92 19.4281 Q1209.82 11.0023 1223.55 11.0023 Q1228.98 11.0023 1233.76 12.4606 Q1238.58 13.8784 1242.79 16.7545 Z" fill="#000000" fill-rule="evenodd" fill-opacity="1" /><path clip-path="url(#clip770)" d="M1292.82 45.1919 L1292.82 72.576 L1285.37 72.576 L1285.37 45.4349 Q1285.37 38.994 1282.86 35.7938 Q1280.34 32.5936 1275.32 32.5936 Q1269.29 32.5936 1265.8 36.4419 Q1262.32 40.2903 1262.32 46.9338 L1262.32 72.576 L1254.82 72.576 L1254.82 9.54393 L1262.32 9.54393 L1262.32 34.2544 Q1264.99 30.163 1268.6 28.1376 Q1272.24 26.1121 1276.98 26.1121 Q1284.8 26.1121 1288.81 30.9732 Q1292.82 35.7938 1292.82 45.1919 Z" fill="#000000" fill-rule="evenodd" fill-opacity="1" /><path clip-path="url(#clip770)" d="M1328.31 49.7694 Q1319.27 49.7694 1315.79 51.8354 Q1312.31 53.9013 1312.31 58.8839 Q1312.31 62.8538 1314.9 65.2034 Q1317.53 67.5124 1322.03 67.5124 Q1328.23 67.5124 1331.95 63.1374 Q1335.72 58.7219 1335.72 51.4303 L1335.72 49.7694 L1328.31 49.7694 M1343.17 46.6907 L1343.17 72.576 L1335.72 72.576 L1335.72 65.6895 Q1333.17 69.8214 1329.36 71.8063 Q1325.55 73.7508 1320.04 73.7508 Q1313.08 73.7508 1308.94 69.8619 Q1304.85 65.9325 1304.85 59.3701 Q1304.85 51.7138 1309.96 47.825 Q1315.1 43.9361 1325.27 43.9361 L1335.72 43.9361 L1335.72 43.2069 Q1335.72 38.0623 1332.32 35.2672 Q1328.96 32.4315 1322.84 32.4315 Q1318.95 32.4315 1315.26 33.3632 Q1311.58 34.295 1308.17 36.1584 L1308.17 29.2718 Q1312.27 27.692 1316.11 26.9223 Q1319.96 26.1121 1323.61 26.1121 Q1333.45 26.1121 1338.31 31.2163 Q1343.17 36.3204 1343.17 46.6907 Z" fill="#000000" fill-rule="evenodd" fill-opacity="1" /><path clip-path="url(#clip770)" d="M1396.24 45.1919 L1396.24 72.576 L1388.79 72.576 L1388.79 45.4349 Q1388.79 38.994 1386.28 35.7938 Q1383.76 32.5936 1378.74 32.5936 Q1372.71 32.5936 1369.22 36.4419 Q1365.74 40.2903 1365.74 46.9338 L1365.74 72.576 L1358.24 72.576 L1358.24 27.2059 L1365.74 27.2059 L1365.74 34.2544 Q1368.41 30.163 1372.02 28.1376 Q1375.66 26.1121 1380.4 26.1121 Q1388.22 26.1121 1392.23 30.9732 Q1396.24 35.7938 1396.24 45.1919 Z" fill="#000000" fill-rule="evenodd" fill-opacity="1" /><path clip-path="url(#clip770)" d="M1440.96 49.3643 Q1440.96 41.2625 1437.6 36.8065 Q1434.28 32.3505 1428.24 32.3505 Q1422.25 32.3505 1418.89 36.8065 Q1415.56 41.2625 1415.56 49.3643 Q1415.56 57.4256 1418.89 61.8816 Q1422.25 66.3376 1428.24 66.3376 Q1434.28 66.3376 1437.6 61.8816 Q1440.96 57.4256 1440.96 49.3643 M1448.42 66.9452 Q1448.42 78.5308 1443.27 84.1616 Q1438.13 89.8329 1427.51 89.8329 Q1423.58 89.8329 1420.1 89.2252 Q1416.62 88.6581 1413.34 87.4428 L1413.34 80.1917 Q1416.62 81.9741 1419.82 82.8248 Q1423.02 83.6755 1426.34 83.6755 Q1433.67 83.6755 1437.32 79.8271 Q1440.96 76.0193 1440.96 68.282 L1440.96 64.5957 Q1438.65 68.6061 1435.05 70.5911 Q1431.44 72.576 1426.42 72.576 Q1418.08 72.576 1412.97 66.2161 Q1407.87 59.8562 1407.87 49.3643 Q1407.87 38.832 1412.97 32.472 Q1418.08 26.1121 1426.42 26.1121 Q1431.44 26.1121 1435.05 28.0971 Q1438.65 30.082 1440.96 34.0924 L1440.96 27.2059 L1448.42 27.2059 L1448.42 66.9452 Z" fill="#000000" fill-rule="evenodd" fill-opacity="1" /><path clip-path="url(#clip770)" d="M1502.58 48.0275 L1502.58 51.6733 L1468.31 51.6733 Q1468.79 59.3701 1472.92 63.421 Q1477.1 67.4314 1484.51 67.4314 Q1488.8 67.4314 1492.81 66.3781 Q1496.87 65.3249 1500.84 63.2184 L1500.84 70.267 Q1496.83 71.9684 1492.61 72.8596 Q1488.4 73.7508 1484.06 73.7508 Q1473.21 73.7508 1466.85 67.4314 Q1460.53 61.1119 1460.53 50.3365 Q1460.53 39.1965 1466.52 32.6746 Q1472.56 26.1121 1482.77 26.1121 Q1491.92 26.1121 1497.23 32.0264 Q1502.58 37.9003 1502.58 48.0275 M1495.12 45.84 Q1495.04 39.7232 1491.68 36.0774 Q1488.36 32.4315 1482.85 32.4315 Q1476.61 32.4315 1472.84 35.9558 Q1469.12 39.4801 1468.55 45.8805 L1495.12 45.84 Z" fill="#000000" fill-rule="evenodd" fill-opacity="1" /><path clip-path="url(#clip770)" d="M1549.69 18.8205 L1549.69 65.8515 L1559.57 65.8515 Q1572.09 65.8515 1577.88 60.1802 Q1583.72 54.509 1583.72 42.2752 Q1583.72 30.1225 1577.88 24.4918 Q1572.09 18.8205 1559.57 18.8205 L1549.69 18.8205 M1541.51 12.096 L1558.32 12.096 Q1575.9 12.096 1584.12 19.4281 Q1592.35 26.7198 1592.35 42.2752 Q1592.35 57.9117 1584.08 65.2439 Q1575.82 72.576 1558.32 72.576 L1541.51 72.576 L1541.51 12.096 Z" fill="#000000" fill-rule="evenodd" fill-opacity="1" /><path clip-path="url(#clip770)" d="M1643.87 48.0275 L1643.87 51.6733 L1609.6 51.6733 Q1610.09 59.3701 1614.22 63.421 Q1618.39 67.4314 1625.81 67.4314 Q1630.1 67.4314 1634.11 66.3781 Q1638.16 65.3249 1642.13 63.2184 L1642.13 70.267 Q1638.12 71.9684 1633.91 72.8596 Q1629.69 73.7508 1625.36 73.7508 Q1614.5 73.7508 1608.14 67.4314 Q1601.82 61.1119 1601.82 50.3365 Q1601.82 39.1965 1607.82 32.6746 Q1613.86 26.1121 1624.06 26.1121 Q1633.22 26.1121 1638.53 32.0264 Q1643.87 37.9003 1643.87 48.0275 M1636.42 45.84 Q1636.34 39.7232 1632.98 36.0774 Q1629.65 32.4315 1624.14 32.4315 Q1617.91 32.4315 1614.14 35.9558 Q1610.41 39.4801 1609.85 45.8805 L1636.42 45.84 Z" fill="#000000" fill-rule="evenodd" fill-opacity="1" /><path clip-path="url(#clip770)" d="M1663.48 14.324 L1663.48 27.2059 L1678.83 27.2059 L1678.83 32.9987 L1663.48 32.9987 L1663.48 57.6282 Q1663.48 63.1779 1664.98 64.7578 Q1666.52 66.3376 1671.18 66.3376 L1678.83 66.3376 L1678.83 72.576 L1671.18 72.576 Q1662.55 72.576 1659.27 69.3758 Q1655.99 66.1351 1655.99 57.6282 L1655.99 32.9987 L1650.52 32.9987 L1650.52 27.2059 L1655.99 27.2059 L1655.99 14.324 L1663.48 14.324 Z" fill="#000000" fill-rule="evenodd" fill-opacity="1" /><path clip-path="url(#clip770)" d="M1727.44 48.0275 L1727.44 51.6733 L1693.17 51.6733 Q1693.66 59.3701 1697.79 63.421 Q1701.96 67.4314 1709.38 67.4314 Q1713.67 67.4314 1717.68 66.3781 Q1721.73 65.3249 1725.7 63.2184 L1725.7 70.267 Q1721.69 71.9684 1717.48 72.8596 Q1713.26 73.7508 1708.93 73.7508 Q1698.07 73.7508 1691.71 67.4314 Q1685.39 61.1119 1685.39 50.3365 Q1685.39 39.1965 1691.39 32.6746 Q1697.43 26.1121 1707.63 26.1121 Q1716.79 26.1121 1722.1 32.0264 Q1727.44 37.9003 1727.44 48.0275 M1719.99 45.84 Q1719.91 39.7232 1716.55 36.0774 Q1713.22 32.4315 1707.72 32.4315 Q1701.48 32.4315 1697.71 35.9558 Q1693.98 39.4801 1693.42 45.8805 L1719.99 45.84 Z" fill="#000000" fill-rule="evenodd" fill-opacity="1" /><path clip-path="url(#clip770)" d="M1772.33 28.9478 L1772.33 35.9153 Q1769.17 34.1734 1765.97 33.3227 Q1762.81 32.4315 1759.57 32.4315 Q1752.32 32.4315 1748.31 37.0496 Q1744.29 41.6271 1744.29 49.9314 Q1744.29 58.2358 1748.31 62.8538 Q1752.32 67.4314 1759.57 67.4314 Q1762.81 67.4314 1765.97 66.5807 Q1769.17 65.6895 1772.33 63.9476 L1772.33 70.8341 Q1769.21 72.2924 1765.85 73.0216 Q1762.52 73.7508 1758.76 73.7508 Q1748.51 73.7508 1742.47 67.3098 Q1736.44 60.8689 1736.44 49.9314 Q1736.44 38.832 1742.51 32.472 Q1748.63 26.1121 1759.24 26.1121 Q1762.69 26.1121 1765.97 26.8413 Q1769.25 27.5299 1772.33 28.9478 Z" fill="#000000" fill-rule="evenodd" fill-opacity="1" /><path clip-path="url(#clip770)" d="M1792.66 14.324 L1792.66 27.2059 L1808.02 27.2059 L1808.02 32.9987 L1792.66 32.9987 L1792.66 57.6282 Q1792.66 63.1779 1794.16 64.7578 Q1795.7 66.3376 1800.36 66.3376 L1808.02 66.3376 L1808.02 72.576 L1800.36 72.576 Q1791.73 72.576 1788.45 69.3758 Q1785.17 66.1351 1785.17 57.6282 L1785.17 32.9987 L1779.7 32.9987 L1779.7 27.2059 L1785.17 27.2059 L1785.17 14.324 L1792.66 14.324 Z" fill="#000000" fill-rule="evenodd" fill-opacity="1" /><path clip-path="url(#clip770)" d="M1817.82 27.2059 L1825.27 27.2059 L1825.27 72.576 L1817.82 72.576 L1817.82 27.2059 M1817.82 9.54393 L1825.27 9.54393 L1825.27 18.9825 L1817.82 18.9825 L1817.82 9.54393 Z" fill="#000000" fill-rule="evenodd" fill-opacity="1" /><path clip-path="url(#clip770)" d="M1858.45 32.4315 Q1852.45 32.4315 1848.97 37.1306 Q1845.49 41.7891 1845.49 49.9314 Q1845.49 58.0738 1848.93 62.7728 Q1852.41 67.4314 1858.45 67.4314 Q1864.4 67.4314 1867.89 62.7323 Q1871.37 58.0333 1871.37 49.9314 Q1871.37 41.8701 1867.89 37.1711 Q1864.4 32.4315 1858.45 32.4315 M1858.45 26.1121 Q1868.17 26.1121 1873.72 32.4315 Q1879.27 38.7509 1879.27 49.9314 Q1879.27 61.0714 1873.72 67.4314 Q1868.17 73.7508 1858.45 73.7508 Q1848.69 73.7508 1843.14 67.4314 Q1837.63 61.0714 1837.63 49.9314 Q1837.63 38.7509 1843.14 32.4315 Q1848.69 26.1121 1858.45 26.1121 Z" fill="#000000" fill-rule="evenodd" fill-opacity="1" /><path clip-path="url(#clip770)" d="M1929.34 45.1919 L1929.34 72.576 L1921.89 72.576 L1921.89 45.4349 Q1921.89 38.994 1919.37 35.7938 Q1916.86 32.5936 1911.84 32.5936 Q1905.8 32.5936 1902.32 36.4419 Q1898.84 40.2903 1898.84 46.9338 L1898.84 72.576 L1891.34 72.576 L1891.34 27.2059 L1898.84 27.2059 L1898.84 34.2544 Q1901.51 30.163 1905.12 28.1376 Q1908.76 26.1121 1913.5 26.1121 Q1921.32 26.1121 1925.33 30.9732 Q1929.34 35.7938 1929.34 45.1919 Z" fill="#000000" fill-rule="evenodd" fill-opacity="1" /><polyline clip-path="url(#clip772)" style="stroke:#009af9; stroke-linecap:butt; stroke-linejoin:round; stroke-width:20; stroke-opacity:1; fill:none" points="
  237.067,160.256 465.297,589.788 693.526,1036.57 921.756,1308.3 1149.99,1386.4 1378.22,1386.15 1606.45,1386.14 1834.67,1386.13 2062.9,1386.13 2291.13,1386.1 
  
  "/>
<path clip-path="url(#clip772)" d="M221.067 144.256 L221.067 176.256 L253.067 176.256 L253.067 144.256 L221.067 144.256 Z" fill="#ff0000" fill-rule="evenodd" fill-opacity="1" stroke="#000000" stroke-opacity="1" stroke-width="3.2"/>
<path clip-path="url(#clip772)" d="M449.297 573.788 L449.297 605.788 L481.297 605.788 L481.297 573.788 L449.297 573.788 Z" fill="#ff0000" fill-rule="evenodd" fill-opacity="1" stroke="#000000" stroke-opacity="1" stroke-width="3.2"/>
<path clip-path="url(#clip772)" d="M677.526 1020.57 L677.526 1052.57 L709.526 1052.57 L709.526 1020.57 L677.526 1020.57 Z" fill="#ff0000" fill-rule="evenodd" fill-opacity="1" stroke="#000000" stroke-opacity="1" stroke-width="3.2"/>
<path clip-path="url(#clip772)" d="M905.756 1292.3 L905.756 1324.3 L937.756 1324.3 L937.756 1292.3 L905.756 1292.3 Z" fill="#ff0000" fill-rule="evenodd" fill-opacity="1" stroke="#000000" stroke-opacity="1" stroke-width="3.2"/>
<path clip-path="url(#clip772)" d="M1133.99 1370.4 L1133.99 1402.4 L1165.99 1402.4 L1165.99 1370.4 L1133.99 1370.4 Z" fill="#ff0000" fill-rule="evenodd" fill-opacity="1" stroke="#000000" stroke-opacity="1" stroke-width="3.2"/>
<path clip-path="url(#clip772)" d="M1362.22 1370.15 L1362.22 1402.15 L1394.22 1402.15 L1394.22 1370.15 L1362.22 1370.15 Z" fill="#ff0000" fill-rule="evenodd" fill-opacity="1" stroke="#000000" stroke-opacity="1" stroke-width="3.2"/>
<path clip-path="url(#clip772)" d="M1590.45 1370.14 L1590.45 1402.14 L1622.45 1402.14 L1622.45 1370.14 L1590.45 1370.14 Z" fill="#ff0000" fill-rule="evenodd" fill-opacity="1" stroke="#000000" stroke-opacity="1" stroke-width="3.2"/>
<path clip-path="url(#clip772)" d="M1818.67 1370.13 L1818.67 1402.13 L1850.67 1402.13 L1850.67 1370.13 L1818.67 1370.13 Z" fill="#ff0000" fill-rule="evenodd" fill-opacity="1" stroke="#000000" stroke-opacity="1" stroke-width="3.2"/>
<path clip-path="url(#clip772)" d="M2046.9 1370.13 L2046.9 1402.13 L2078.9 1402.13 L2078.9 1370.13 L2046.9 1370.13 Z" fill="#ff0000" fill-rule="evenodd" fill-opacity="1" stroke="#000000" stroke-opacity="1" stroke-width="3.2"/>
<path clip-path="url(#clip772)" d="M2275.13 1370.1 L2275.13 1402.1 L2307.13 1402.1 L2307.13 1370.1 L2275.13 1370.1 Z" fill="#ff0000" fill-rule="evenodd" fill-opacity="1" stroke="#000000" stroke-opacity="1" stroke-width="3.2"/>
</svg>
