<?xml version="1.0" encoding="utf-8" standalone="no"?>
<!DOCTYPE svg PUBLIC "-//W3C//DTD SVG 1.1//EN"
  "http://www.w3.org/Graphics/SVG/1.1/DTD/svg11.dtd">
<svg height="345.6pt" version="1.1" viewBox="0 0 460.8 345.6" width="460.8pt" xmlns="http://www.w3.org/2000/svg" xmlns:xlink="http://www.w3.org/1999/xlink">
 <metadata>
  <rdf:RDF xmlns:cc="http://creativecommons.org/ns#" xmlns:dc="http://purl.org/dc/elements/1.1/" xmlns:rdf="http://www.w3.org/1999/02/22-rdf-syntax-ns#">
   <cc:Work>
    <dc:type rdf:resource="http://purl.org/dc/dcmitype/StillImage"/>
    <dc:date>2021-12-15T11:08:17.033166</dc:date>
    <dc:format>image/svg+xml</dc:format>
    <dc:creator>
     <cc:Agent>
      <dc:title>Matplotlib v3.4.3, https://matplotlib.org/</dc:title>
     </cc:Agent>
    </dc:creator>
   </cc:Work>
  </rdf:RDF>
 </metadata>
 <defs>
  <style type="text/css">*{stroke-linecap:butt;stroke-linejoin:round;}</style>
 </defs>
 <g id="figure_1">
  <g id="patch_1">
   <path d="M 0 345.6 
L 460.8 345.6 
L 460.8 0 
L 0 0 
z
" style="fill:#ffffff;"/>
  </g>
  <g id="axes_1">
   <g id="patch_2">
    <path d="M 369.216 174.528 
C 369.216 157.055246 365.774248 139.752393 359.087715 123.609673 
C 352.401182 107.466954 342.599903 92.798303 330.2448 80.4432 
C 317.889697 68.088097 303.221046 58.286818 287.078327 51.600285 
C 270.935607 44.913752 253.632754 41.472 236.16 41.472 
C 218.687246 41.472 201.384393 44.913752 185.241673 51.600285 
C 169.098954 58.286818 154.430303 68.088097 142.0752 80.4432 
C 129.720097 92.798303 119.918818 107.466954 113.232285 123.609673 
C 106.545752 139.752393 103.104 157.055246 103.104 174.528 
C 103.104 192.000754 106.545752 209.303607 113.232285 225.446327 
C 119.918818 241.589046 129.720097 256.257697 142.0752 268.6128 
C 154.430303 280.967903 169.098954 290.769182 185.241673 297.455715 
C 201.384393 304.142248 218.687246 307.584 236.16 307.584 
C 253.632754 307.584 270.935607 304.142248 287.078327 297.455715 
C 303.221046 290.769182 317.889697 280.967903 330.2448 268.6128 
C 342.599903 256.257697 352.401182 241.589046 359.087715 225.446327 
C 365.774248 209.303607 369.216 192.000754 369.216 174.528 
M 236.16 174.528 
C 236.16 174.528 236.16 174.528 236.16 174.528 
C 236.16 174.528 236.16 174.528 236.16 174.528 
C 236.16 174.528 236.16 174.528 236.16 174.528 
C 236.16 174.528 236.16 174.528 236.16 174.528 
C 236.16 174.528 236.16 174.528 236.16 174.528 
C 236.16 174.528 236.16 174.528 236.16 174.528 
C 236.16 174.528 236.16 174.528 236.16 174.528 
C 236.16 174.528 236.16 174.528 236.16 174.528 
C 236.16 174.528 236.16 174.528 236.16 174.528 
C 236.16 174.528 236.16 174.528 236.16 174.528 
C 236.16 174.528 236.16 174.528 236.16 174.528 
C 236.16 174.528 236.16 174.528 236.16 174.528 
C 236.16 174.528 236.16 174.528 236.16 174.528 
C 236.16 174.528 236.16 174.528 236.16 174.528 
C 236.16 174.528 236.16 174.528 236.16 174.528 
C 236.16 174.528 236.16 174.528 236.16 174.528 
M 369.216 174.528 
z
" style="fill:#ffffff;"/>
   </g>
   <g id="patch_3">
    <path clip-path="url(#pd5bcce32e1)" d="M 236.16 174.528 
C 236.16 174.528 236.16 174.528 236.16 174.528 
C 236.16 174.528 236.16 174.528 236.16 174.528 
L 298.655852 164.099287 
C 299.230965 167.545748 299.52 171.033884 299.52 174.528 
C 299.52 178.022116 299.230965 181.510252 298.655852 184.956713 
z
" style="fill:#ff0000;opacity:0.5;"/>
   </g>
   <g id="patch_4">
    <path clip-path="url(#pd5bcce32e1)" d="M 236.16 174.528 
C 236.16 174.528 236.16 174.528 236.16 174.528 
C 236.16 174.528 236.16 174.528 236.16 174.528 
L 347.581841 114.229515 
C 350.907123 120.374099 353.718432 126.783237 355.986996 133.39134 
C 358.255561 139.999444 359.973618 146.783895 361.123584 153.675266 
z
" style="fill:#ff0000;opacity:0.5;"/>
   </g>
   <g id="patch_5">
    <path clip-path="url(#pd5bcce32e1)" d="M 236.16 174.528 
C 236.16 174.528 236.16 174.528 236.16 174.528 
C 236.16 174.528 236.16 174.528 236.16 174.528 
L 321.965812 81.318041 
C 327.106065 86.049977 331.846092 91.199019 336.137388 96.712476 
C 340.428683 102.225932 344.256558 108.084931 347.581841 114.229515 
z
" style="fill:#ff0000;opacity:0.5;"/>
   </g>
   <g id="patch_6">
    <path clip-path="url(#pd5bcce32e1)" d="M 236.16 174.528 
C 236.16 174.528 236.16 174.528 236.16 174.528 
C 236.16 174.528 236.16 174.528 236.16 174.528 
L 287.051392 58.507312 
C 293.449589 61.313821 299.60468 64.64479 305.453678 68.466131 
C 311.302675 72.287472 316.825559 76.586105 321.965812 81.318041 
z
" style="fill:#ff0000;opacity:0.5;"/>
   </g>
   <g id="patch_7">
    <path clip-path="url(#pd5bcce32e1)" d="M 236.16 174.528 
C 236.16 174.528 236.16 174.528 236.16 174.528 
C 236.16 174.528 236.16 174.528 236.16 174.528 
L 246.6221 48.269225 
C 253.584897 48.846179 260.488052 49.998111 267.260922 51.713235 
C 274.033792 53.428359 280.653195 55.700803 287.051392 58.507312 
z
" style="fill:#ff0000;opacity:0.5;"/>
   </g>
   <g id="patch_8">
    <path clip-path="url(#pd5bcce32e1)" d="M 236.16 174.528 
C 236.16 174.528 236.16 174.528 236.16 174.528 
C 236.16 174.528 236.16 174.528 236.16 174.528 
L 205.064007 51.732701 
C 211.835804 50.017849 218.737864 48.866099 225.699558 48.289237 
C 232.661251 47.712374 239.658749 47.712374 246.620442 48.289237 
z
" style="fill:#ff0000;opacity:0.5;"/>
   </g>
   <g id="patch_9">
    <path clip-path="url(#pd5bcce32e1)" d="M 236.16 174.528 
C 236.16 174.528 236.16 174.528 236.16 174.528 
C 236.16 174.528 236.16 174.528 236.16 174.528 
L 183.57998 94.048288 
C 188.018197 91.148656 192.688678 88.621118 197.543628 86.491539 
C 202.398578 84.361961 207.421379 82.637631 212.56063 81.336196 
z
" style="fill:#ff0000;opacity:0.5;"/>
   </g>
   <g id="patch_10">
    <path clip-path="url(#pd5bcce32e1)" d="M 236.16 174.528 
C 236.16 174.528 236.16 174.528 236.16 174.528 
C 236.16 174.528 236.16 174.528 236.16 174.528 
L 173.315306 125.614011 
C 176.012768 122.148313 178.992297 118.911681 182.223404 115.937238 
C 185.454511 112.962795 188.926135 110.260721 192.602751 107.858667 
z
" style="fill:#ff0000;opacity:0.5;"/>
   </g>
   <g id="patch_11">
    <path clip-path="url(#pd5bcce32e1)" d="M 236.16 174.528 
C 236.16 174.528 236.16 174.528 236.16 174.528 
C 236.16 174.528 236.16 174.528 236.16 174.528 
L 169.446001 151.625055 
C 170.70903 147.945976 172.274234 144.377672 174.125594 140.956658 
C 175.976954 137.535645 178.108133 134.273631 180.497323 131.204 
z
" style="fill:#ff0000;opacity:0.5;"/>
   </g>
   <g id="patch_12">
    <path clip-path="url(#pd5bcce32e1)" d="M 236.16 174.528 
C 236.16 174.528 236.16 174.528 236.16 174.528 
C 236.16 174.528 236.16 174.528 236.16 174.528 
L 170.234578 174.528 
C 170.234578 170.892409 170.535316 167.263039 171.133715 163.677032 
C 171.732114 160.091025 172.626125 156.560656 173.806599 153.122051 
z
" style="fill:#ff0000;opacity:0.5;"/>
   </g>
   <g id="patch_13">
    <path clip-path="url(#pd5bcce32e1)" d="M 236.16 174.528 
C 236.16 174.528 236.16 174.528 236.16 174.528 
C 236.16 174.528 236.16 174.528 236.16 174.528 
L 175.85179 195.231835 
C 174.710035 191.906016 173.845348 188.491442 173.266577 185.023056 
C 172.687805 181.55467 172.396931 178.044344 172.396931 174.528 
z
" style="fill:#ff0000;opacity:0.5;"/>
   </g>
   <g id="patch_14">
    <path clip-path="url(#pd5bcce32e1)" d="M 236.16 174.528 
C 236.16 174.528 236.16 174.528 236.16 174.528 
C 236.16 174.528 236.16 174.528 236.16 174.528 
L 184.763165 214.531762 
C 182.557077 211.697379 180.589225 208.685358 178.879748 205.526522 
C 177.170272 202.367686 175.725022 199.072847 174.558787 195.675723 
z
" style="fill:#ff0000;opacity:0.5;"/>
   </g>
   <g id="patch_15">
    <path clip-path="url(#pd5bcce32e1)" d="M 236.16 174.528 
C 236.16 174.528 236.16 174.528 236.16 174.528 
C 236.16 174.528 236.16 174.528 236.16 174.528 
L 197.896375 233.094839 
C 194.666587 230.984713 191.616878 228.611029 188.778456 225.998078 
C 185.940034 223.385126 183.322614 220.54185 180.952982 217.497347 
z
" style="fill:#ff0000;opacity:0.5;"/>
   </g>
   <g id="patch_16">
    <path clip-path="url(#pd5bcce32e1)" d="M 236.16 174.528 
C 236.16 174.528 236.16 174.528 236.16 174.528 
C 236.16 174.528 236.16 174.528 236.16 174.528 
L 216.706653 251.347529 
C 212.470284 250.274735 208.329907 248.853342 204.327893 247.097895 
C 200.325878 245.342449 196.475924 243.258958 192.817429 240.868744 
z
" style="fill:#ff0000;opacity:0.5;"/>
   </g>
   <g id="patch_17">
    <path clip-path="url(#pd5bcce32e1)" d="M 236.16 174.528 
C 236.16 174.528 236.16 174.528 236.16 174.528 
C 236.16 174.528 236.16 174.528 236.16 174.528 
L 244.228437 271.899555 
C 238.858685 272.344505 233.461315 272.344505 228.091563 271.899555 
C 222.72181 271.454604 217.398054 270.566227 212.174775 269.243513 
z
" style="fill:#ff0000;opacity:0.5;"/>
   </g>
   <g id="patch_18">
    <path clip-path="url(#pd5bcce32e1)" d="M 236.16 174.528 
C 236.16 174.528 236.16 174.528 236.16 174.528 
C 236.16 174.528 236.16 174.528 236.16 174.528 
L 287.057754 290.563192 
C 280.658758 293.370053 274.038527 295.642781 267.26481 297.358119 
C 260.491094 299.073457 253.587076 300.225534 246.623408 300.802559 
z
" style="fill:#ff0000;opacity:0.5;"/>
   </g>
   <g id="patch_19">
    <path clip-path="url(#pd5bcce32e1)" d="M 236.16 174.528 
C 236.16 174.528 236.16 174.528 236.16 174.528 
C 236.16 174.528 236.16 174.528 236.16 174.528 
L 321.976539 267.749612 
C 316.835644 272.482139 311.312069 276.78131 305.46234 280.603129 
C 299.612612 284.424947 293.456751 287.756332 287.057754 290.563192 
z
" style="fill:#ff0000;opacity:0.5;"/>
   </g>
   <g id="patch_20">
    <path clip-path="url(#pd5bcce32e1)" d="M 236.16 174.528 
C 236.16 174.528 236.16 174.528 236.16 174.528 
C 236.16 174.528 236.16 174.528 236.16 174.528 
L 347.59577 234.834023 
C 344.270072 240.979375 340.441718 246.839107 336.149886 252.353252 
C 331.858054 257.867398 327.117435 263.017084 321.976539 267.749612 
z
" style="fill:#ff0000;opacity:0.5;"/>
   </g>
   <g id="patch_21">
    <path clip-path="url(#pd5bcce32e1)" d="M 236.16 174.528 
C 236.16 174.528 236.16 174.528 236.16 174.528 
C 236.16 174.528 236.16 174.528 236.16 174.528 
L 361.139206 195.383341 
C 359.989096 202.275574 358.270825 209.060873 356.001977 215.669803 
C 353.733128 222.278732 350.921468 228.688671 347.59577 234.834023 
z
" style="fill:#ff0000;opacity:0.5;"/>
   </g>
   <g id="patch_22">
    <path clip-path="url(#pd5bcce32e1)" d="M 236.16 174.528 
C 236.16 174.528 236.16 174.528 236.16 174.528 
C 236.16 174.528 236.16 174.528 236.16 174.528 
L 361.139206 153.672659 
C 362.289317 160.564892 362.867329 167.540467 362.867329 174.528 
C 362.867329 181.515533 362.289317 188.491108 361.139206 195.383341 
z
" style="fill:#ff0000;opacity:0.5;"/>
   </g>
   <g id="patch_23">
    <path clip-path="url(#pd5bcce32e1)" d="M 236.16 174.528 
C 236.16 174.528 236.16 174.528 236.16 174.528 
C 236.16 174.528 236.16 174.528 236.16 174.528 
L 236.172498 174.525914 
C 236.172613 174.526604 236.172671 174.527301 236.172671 174.528 
C 236.172671 174.528699 236.172613 174.529396 236.172498 174.530086 
z
" style="fill:#0000ff;opacity:0.5;"/>
   </g>
   <g id="patch_24">
    <path clip-path="url(#pd5bcce32e1)" d="M 236.16 174.528 
C 236.16 174.528 236.16 174.528 236.16 174.528 
C 236.16 174.528 236.16 174.528 236.16 174.528 
L 236.173929 174.520462 
C 236.174345 174.52123 236.174696 174.522031 236.17498 174.522857 
C 236.175263 174.523684 236.175478 174.524532 236.175622 174.525393 
z
" style="fill:#0000ff;opacity:0.5;"/>
   </g>
   <g id="patch_25">
    <path clip-path="url(#pd5bcce32e1)" d="M 236.16 174.528 
C 236.16 174.528 236.16 174.528 236.16 174.528 
C 236.16 174.528 236.16 174.528 236.16 174.528 
L 236.172872 174.514018 
C 236.173643 174.514727 236.174354 174.5155 236.174998 174.516327 
C 236.175641 174.517154 236.176216 174.518033 236.176714 174.518955 
z
" style="fill:#0000ff;opacity:0.5;"/>
   </g>
   <g id="patch_26">
    <path clip-path="url(#pd5bcce32e1)" d="M 236.16 174.528 
C 236.16 174.528 236.16 174.528 236.16 174.528 
C 236.16 174.528 236.16 174.528 236.16 174.528 
L 236.168906 174.507695 
C 236.170026 174.508187 236.171103 174.50877 236.172127 174.509438 
C 236.173151 174.510107 236.174117 174.510859 236.175017 174.511687 
z
" style="fill:#0000ff;opacity:0.5;"/>
   </g>
   <g id="patch_27">
    <path clip-path="url(#pd5bcce32e1)" d="M 236.16 174.528 
C 236.16 174.528 236.16 174.528 236.16 174.528 
C 236.16 174.528 236.16 174.528 236.16 174.528 
L 236.162092 174.502748 
C 236.163485 174.502863 236.164866 174.503093 236.16622 174.503436 
C 236.167575 174.503779 236.168899 174.504234 236.170179 174.504795 
z
" style="fill:#0000ff;opacity:0.5;"/>
   </g>
   <g id="patch_28">
    <path clip-path="url(#pd5bcce32e1)" d="M 236.16 174.528 
C 236.16 174.528 236.16 174.528 236.16 174.528 
C 236.16 174.528 236.16 174.528 236.16 174.528 
L 230.468 152.050799 
C 231.707551 151.736902 232.970946 151.526079 234.245257 151.420486 
C 235.519568 151.314894 236.800432 151.314894 238.074743 151.420486 
z
" style="fill:#0000ff;opacity:0.5;"/>
   </g>
   <g id="patch_29">
    <path clip-path="url(#pd5bcce32e1)" d="M 236.16 174.528 
C 236.16 174.528 236.16 174.528 236.16 174.528 
C 236.16 174.528 236.16 174.528 236.16 174.528 
L 201.479382 121.445362 
C 204.406732 119.532829 207.487278 117.86572 210.689495 116.461098 
C 213.891713 115.056475 217.204641 113.919145 220.594378 113.060747 
z
" style="fill:#0000ff;opacity:0.5;"/>
   </g>
   <g id="patch_30">
    <path clip-path="url(#pd5bcce32e1)" d="M 236.16 174.528 
C 236.16 174.528 236.16 174.528 236.16 174.528 
C 236.16 174.528 236.16 174.528 236.16 174.528 
L 185.972803 135.465737 
C 188.126971 132.698062 190.506396 130.113317 193.086729 127.737954 
C 195.667061 125.362591 198.439468 123.20474 201.37558 121.286482 
z
" style="fill:#0000ff;opacity:0.5;"/>
   </g>
   <g id="patch_31">
    <path clip-path="url(#pd5bcce32e1)" d="M 236.16 174.528 
C 236.16 174.528 236.16 174.528 236.16 174.528 
C 236.16 174.528 236.16 174.528 236.16 174.528 
L 176.302064 153.978745 
C 177.435294 150.677757 178.839645 147.47616 180.500744 144.406717 
C 182.161844 141.337274 184.074006 138.410491 186.217664 135.65632 
z
" style="fill:#0000ff;opacity:0.5;"/>
   </g>
   <g id="patch_32">
    <path clip-path="url(#pd5bcce32e1)" d="M 236.16 174.528 
C 236.16 174.528 236.16 174.528 236.16 174.528 
C 236.16 174.528 236.16 174.528 236.16 174.528 
L 173.525842 174.528 
C 173.525842 171.073912 173.811566 167.625735 174.38009 164.218756 
C 174.948614 160.811778 175.797992 157.457658 176.919533 154.190722 
z
" style="fill:#0000ff;opacity:0.5;"/>
   </g>
   <g id="patch_33">
    <path clip-path="url(#pd5bcce32e1)" d="M 236.16 174.528 
C 236.16 174.528 236.16 174.528 236.16 174.528 
C 236.16 174.528 236.16 174.528 236.16 174.528 
L 175.725138 195.275314 
C 174.580985 191.942511 173.714482 188.520766 173.134495 185.045097 
C 172.554509 181.569427 172.263024 178.051729 172.263024 174.528 
z
" style="fill:#0000ff;opacity:0.5;"/>
   </g>
   <g id="patch_34">
    <path clip-path="url(#pd5bcce32e1)" d="M 236.16 174.528 
C 236.16 174.528 236.16 174.528 236.16 174.528 
C 236.16 174.528 236.16 174.528 236.16 174.528 
L 185.015853 214.335087 
C 182.820611 211.514639 180.862434 208.517426 179.161362 205.374121 
C 177.46029 202.230815 176.022145 198.952175 174.861644 195.571752 
z
" style="fill:#0000ff;opacity:0.5;"/>
   </g>
   <g id="patch_35">
    <path clip-path="url(#pd5bcce32e1)" d="M 236.16 174.528 
C 236.16 174.528 236.16 174.528 236.16 174.528 
C 236.16 174.528 236.16 174.528 236.16 174.528 
L 201.240476 227.976311 
C 198.29296 226.050602 195.509784 223.88437 192.91943 221.499781 
C 190.329075 219.115191 187.940409 216.520408 185.777874 213.741983 
z
" style="fill:#0000ff;opacity:0.5;"/>
   </g>
   <g id="patch_36">
    <path clip-path="url(#pd5bcce32e1)" d="M 236.16 174.528 
C 236.16 174.528 236.16 174.528 236.16 174.528 
C 236.16 174.528 236.16 174.528 236.16 174.528 
L 220.906437 234.76296 
C 217.584657 233.921771 214.338146 232.807242 211.200127 231.430779 
C 208.062107 230.054316 205.04332 228.42063 202.174657 226.546439 
z
" style="fill:#0000ff;opacity:0.5;"/>
   </g>
   <g id="patch_37">
    <path clip-path="url(#pd5bcce32e1)" d="M 236.16 174.528 
C 236.16 174.528 236.16 174.528 236.16 174.528 
C 236.16 174.528 236.16 174.528 236.16 174.528 
L 241.29769 236.530693 
C 237.878425 236.814021 234.441575 236.814021 231.02231 236.530693 
C 227.603046 236.247364 224.21307 235.681677 220.887074 234.839421 
z
" style="fill:#0000ff;opacity:0.5;"/>
   </g>
   <g id="patch_38">
    <path clip-path="url(#pd5bcce32e1)" d="M 236.16 174.528 
C 236.16 174.528 236.16 174.528 236.16 174.528 
C 236.16 174.528 236.16 174.528 236.16 174.528 
L 252.398819 211.548777 
C 250.357232 212.4443 248.245062 213.169409 246.083923 213.716684 
C 243.922783 214.263959 241.720071 214.631526 239.498328 214.815625 
z
" style="fill:#0000ff;opacity:0.5;"/>
   </g>
   <g id="patch_39">
    <path clip-path="url(#pd5bcce32e1)" d="M 236.16 174.528 
C 236.16 174.528 236.16 174.528 236.16 174.528 
C 236.16 174.528 236.16 174.528 236.16 174.528 
L 236.170883 174.539822 
C 236.170231 174.540422 236.169531 174.540967 236.168789 174.541452 
C 236.168047 174.541937 236.167266 174.542359 236.166455 174.542715 
z
" style="fill:#0000ff;opacity:0.5;"/>
   </g>
   <g id="patch_40">
    <path clip-path="url(#pd5bcce32e1)" d="M 236.16 174.528 
C 236.16 174.528 236.16 174.528 236.16 174.528 
C 236.16 174.528 236.16 174.528 236.16 174.528 
L 236.171347 174.534141 
C 236.171008 174.534766 236.170618 174.535363 236.170181 174.535925 
C 236.169744 174.536486 236.169262 174.53701 236.168738 174.537492 
z
" style="fill:#0000ff;opacity:0.5;"/>
   </g>
   <g id="patch_41">
    <path clip-path="url(#pd5bcce32e1)" d="M 236.16 174.528 
C 236.16 174.528 236.16 174.528 236.16 174.528 
C 236.16 174.528 236.16 174.528 236.16 174.528 
L 236.16989 174.52965 
C 236.169799 174.530196 236.169663 174.530733 236.169484 174.531256 
C 236.169304 174.531779 236.169082 174.532286 236.168819 174.532772 
z
" style="fill:#0000ff;opacity:0.5;"/>
   </g>
   <g id="patch_42">
    <path clip-path="url(#pd5bcce32e1)" d="M 236.16 174.528 
C 236.16 174.528 236.16 174.528 236.16 174.528 
C 236.16 174.528 236.16 174.528 236.16 174.528 
L 236.167441 174.526758 
C 236.16751 174.527169 236.167544 174.527584 236.167544 174.528 
C 236.167544 174.528416 236.16751 174.528831 236.167441 174.529242 
z
" style="fill:#0000ff;opacity:0.5;"/>
   </g>
   <g id="matplotlib.axis_1">
    <g id="xtick_1">
     <g id="line2d_1">
      <path clip-path="url(#pd5bcce32e1)" d="M 236.16 174.528 
L 369.216 174.528 
" style="fill:none;stroke:#b0b0b0;stroke-linecap:square;stroke-width:0.8;"/>
     </g>
     <g id="text_1">
      <!-- 0° -->
      <g transform="translate(377.53475 177.287375)scale(0.1 -0.1)">
       <defs>
        <path d="M 2034 4250 
Q 1547 4250 1301 3770 
Q 1056 3291 1056 2328 
Q 1056 1369 1301 889 
Q 1547 409 2034 409 
Q 2525 409 2770 889 
Q 3016 1369 3016 2328 
Q 3016 3291 2770 3770 
Q 2525 4250 2034 4250 
z
M 2034 4750 
Q 2819 4750 3233 4129 
Q 3647 3509 3647 2328 
Q 3647 1150 3233 529 
Q 2819 -91 2034 -91 
Q 1250 -91 836 529 
Q 422 1150 422 2328 
Q 422 3509 836 4129 
Q 1250 4750 2034 4750 
z
" id="DejaVuSans-30" transform="scale(0.015625)"/>
        <path d="M 1600 4347 
Q 1350 4347 1178 4173 
Q 1006 4000 1006 3750 
Q 1006 3503 1178 3333 
Q 1350 3163 1600 3163 
Q 1850 3163 2022 3333 
Q 2194 3503 2194 3750 
Q 2194 3997 2020 4172 
Q 1847 4347 1600 4347 
z
M 1600 4750 
Q 1800 4750 1984 4673 
Q 2169 4597 2303 4453 
Q 2447 4313 2519 4134 
Q 2591 3956 2591 3750 
Q 2591 3338 2302 3052 
Q 2013 2766 1594 2766 
Q 1172 2766 890 3047 
Q 609 3328 609 3750 
Q 609 4169 896 4459 
Q 1184 4750 1600 4750 
z
" id="DejaVuSans-b0" transform="scale(0.015625)"/>
       </defs>
       <use xlink:href="#DejaVuSans-30"/>
       <use x="63.623047" xlink:href="#DejaVuSans-b0"/>
      </g>
     </g>
    </g>
    <g id="xtick_2">
     <g id="line2d_2">
      <path clip-path="url(#pd5bcce32e1)" d="M 236.16 174.528 
L 330.2448 80.4432 
" style="fill:none;stroke:#b0b0b0;stroke-linecap:square;stroke-width:0.8;"/>
     </g>
     <g id="text_2">
      <!-- 45° -->
      <g transform="translate(331.281795 73.30308)scale(0.1 -0.1)">
       <defs>
        <path d="M 2419 4116 
L 825 1625 
L 2419 1625 
L 2419 4116 
z
M 2253 4666 
L 3047 4666 
L 3047 1625 
L 3713 1625 
L 3713 1100 
L 3047 1100 
L 3047 0 
L 2419 0 
L 2419 1100 
L 313 1100 
L 313 1709 
L 2253 4666 
z
" id="DejaVuSans-34" transform="scale(0.015625)"/>
        <path d="M 691 4666 
L 3169 4666 
L 3169 4134 
L 1269 4134 
L 1269 2991 
Q 1406 3038 1543 3061 
Q 1681 3084 1819 3084 
Q 2600 3084 3056 2656 
Q 3513 2228 3513 1497 
Q 3513 744 3044 326 
Q 2575 -91 1722 -91 
Q 1428 -91 1123 -41 
Q 819 9 494 109 
L 494 744 
Q 775 591 1075 516 
Q 1375 441 1709 441 
Q 2250 441 2565 725 
Q 2881 1009 2881 1497 
Q 2881 1984 2565 2268 
Q 2250 2553 1709 2553 
Q 1456 2553 1204 2497 
Q 953 2441 691 2322 
L 691 4666 
z
" id="DejaVuSans-35" transform="scale(0.015625)"/>
       </defs>
       <use xlink:href="#DejaVuSans-34"/>
       <use x="63.623047" xlink:href="#DejaVuSans-35"/>
       <use x="127.246094" xlink:href="#DejaVuSans-b0"/>
      </g>
     </g>
    </g>
    <g id="xtick_3">
     <g id="line2d_3">
      <path clip-path="url(#pd5bcce32e1)" d="M 236.16 174.528 
L 236.16 41.472 
" style="fill:none;stroke:#b0b0b0;stroke-linecap:square;stroke-width:0.8;"/>
     </g>
     <g id="text_3">
      <!-- 90° -->
      <g transform="translate(227.2975 30.231375)scale(0.1 -0.1)">
       <defs>
        <path d="M 703 97 
L 703 672 
Q 941 559 1184 500 
Q 1428 441 1663 441 
Q 2288 441 2617 861 
Q 2947 1281 2994 2138 
Q 2813 1869 2534 1725 
Q 2256 1581 1919 1581 
Q 1219 1581 811 2004 
Q 403 2428 403 3163 
Q 403 3881 828 4315 
Q 1253 4750 1959 4750 
Q 2769 4750 3195 4129 
Q 3622 3509 3622 2328 
Q 3622 1225 3098 567 
Q 2575 -91 1691 -91 
Q 1453 -91 1209 -44 
Q 966 3 703 97 
z
M 1959 2075 
Q 2384 2075 2632 2365 
Q 2881 2656 2881 3163 
Q 2881 3666 2632 3958 
Q 2384 4250 1959 4250 
Q 1534 4250 1286 3958 
Q 1038 3666 1038 3163 
Q 1038 2656 1286 2365 
Q 1534 2075 1959 2075 
z
" id="DejaVuSans-39" transform="scale(0.015625)"/>
       </defs>
       <use xlink:href="#DejaVuSans-39"/>
       <use x="63.623047" xlink:href="#DejaVuSans-30"/>
       <use x="127.246094" xlink:href="#DejaVuSans-b0"/>
      </g>
     </g>
    </g>
    <g id="xtick_4">
     <g id="line2d_4">
      <path clip-path="url(#pd5bcce32e1)" d="M 236.16 174.528 
L 142.0752 80.4432 
" style="fill:none;stroke:#b0b0b0;stroke-linecap:square;stroke-width:0.8;"/>
     </g>
     <g id="text_4">
      <!-- 135° -->
      <g transform="translate(120.131955 73.30308)scale(0.1 -0.1)">
       <defs>
        <path d="M 794 531 
L 1825 531 
L 1825 4091 
L 703 3866 
L 703 4441 
L 1819 4666 
L 2450 4666 
L 2450 531 
L 3481 531 
L 3481 0 
L 794 0 
L 794 531 
z
" id="DejaVuSans-31" transform="scale(0.015625)"/>
        <path d="M 2597 2516 
Q 3050 2419 3304 2112 
Q 3559 1806 3559 1356 
Q 3559 666 3084 287 
Q 2609 -91 1734 -91 
Q 1441 -91 1130 -33 
Q 819 25 488 141 
L 488 750 
Q 750 597 1062 519 
Q 1375 441 1716 441 
Q 2309 441 2620 675 
Q 2931 909 2931 1356 
Q 2931 1769 2642 2001 
Q 2353 2234 1838 2234 
L 1294 2234 
L 1294 2753 
L 1863 2753 
Q 2328 2753 2575 2939 
Q 2822 3125 2822 3475 
Q 2822 3834 2567 4026 
Q 2313 4219 1838 4219 
Q 1578 4219 1281 4162 
Q 984 4106 628 3988 
L 628 4550 
Q 988 4650 1302 4700 
Q 1616 4750 1894 4750 
Q 2613 4750 3031 4423 
Q 3450 4097 3450 3541 
Q 3450 3153 3228 2886 
Q 3006 2619 2597 2516 
z
" id="DejaVuSans-33" transform="scale(0.015625)"/>
       </defs>
       <use xlink:href="#DejaVuSans-31"/>
       <use x="63.623047" xlink:href="#DejaVuSans-33"/>
       <use x="127.246094" xlink:href="#DejaVuSans-35"/>
       <use x="190.869141" xlink:href="#DejaVuSans-b0"/>
      </g>
     </g>
    </g>
    <g id="xtick_5">
     <g id="line2d_5">
      <path clip-path="url(#pd5bcce32e1)" d="M 236.16 174.528 
L 103.104 174.528 
" style="fill:none;stroke:#b0b0b0;stroke-linecap:square;stroke-width:0.8;"/>
     </g>
     <g id="text_5">
      <!-- 180° -->
      <g transform="translate(77.06025 177.287375)scale(0.1 -0.1)">
       <defs>
        <path d="M 2034 2216 
Q 1584 2216 1326 1975 
Q 1069 1734 1069 1313 
Q 1069 891 1326 650 
Q 1584 409 2034 409 
Q 2484 409 2743 651 
Q 3003 894 3003 1313 
Q 3003 1734 2745 1975 
Q 2488 2216 2034 2216 
z
M 1403 2484 
Q 997 2584 770 2862 
Q 544 3141 544 3541 
Q 544 4100 942 4425 
Q 1341 4750 2034 4750 
Q 2731 4750 3128 4425 
Q 3525 4100 3525 3541 
Q 3525 3141 3298 2862 
Q 3072 2584 2669 2484 
Q 3125 2378 3379 2068 
Q 3634 1759 3634 1313 
Q 3634 634 3220 271 
Q 2806 -91 2034 -91 
Q 1263 -91 848 271 
Q 434 634 434 1313 
Q 434 1759 690 2068 
Q 947 2378 1403 2484 
z
M 1172 3481 
Q 1172 3119 1398 2916 
Q 1625 2713 2034 2713 
Q 2441 2713 2670 2916 
Q 2900 3119 2900 3481 
Q 2900 3844 2670 4047 
Q 2441 4250 2034 4250 
Q 1625 4250 1398 4047 
Q 1172 3844 1172 3481 
z
" id="DejaVuSans-38" transform="scale(0.015625)"/>
       </defs>
       <use xlink:href="#DejaVuSans-31"/>
       <use x="63.623047" xlink:href="#DejaVuSans-38"/>
       <use x="127.246094" xlink:href="#DejaVuSans-30"/>
       <use x="190.869141" xlink:href="#DejaVuSans-b0"/>
      </g>
     </g>
    </g>
    <g id="xtick_6">
     <g id="line2d_6">
      <path clip-path="url(#pd5bcce32e1)" d="M 236.16 174.528 
L 142.0752 268.6128 
" style="fill:none;stroke:#b0b0b0;stroke-linecap:square;stroke-width:0.8;"/>
     </g>
     <g id="text_6">
      <!-- 225° -->
      <g transform="translate(120.131955 281.27167)scale(0.1 -0.1)">
       <defs>
        <path d="M 1228 531 
L 3431 531 
L 3431 0 
L 469 0 
L 469 531 
Q 828 903 1448 1529 
Q 2069 2156 2228 2338 
Q 2531 2678 2651 2914 
Q 2772 3150 2772 3378 
Q 2772 3750 2511 3984 
Q 2250 4219 1831 4219 
Q 1534 4219 1204 4116 
Q 875 4013 500 3803 
L 500 4441 
Q 881 4594 1212 4672 
Q 1544 4750 1819 4750 
Q 2544 4750 2975 4387 
Q 3406 4025 3406 3419 
Q 3406 3131 3298 2873 
Q 3191 2616 2906 2266 
Q 2828 2175 2409 1742 
Q 1991 1309 1228 531 
z
" id="DejaVuSans-32" transform="scale(0.015625)"/>
       </defs>
       <use xlink:href="#DejaVuSans-32"/>
       <use x="63.623047" xlink:href="#DejaVuSans-32"/>
       <use x="127.246094" xlink:href="#DejaVuSans-35"/>
       <use x="190.869141" xlink:href="#DejaVuSans-b0"/>
      </g>
     </g>
    </g>
    <g id="xtick_7">
     <g id="line2d_7">
      <path clip-path="url(#pd5bcce32e1)" d="M 236.16 174.528 
L 236.16 307.584 
" style="fill:none;stroke:#b0b0b0;stroke-linecap:square;stroke-width:0.8;"/>
     </g>
     <g id="text_7">
      <!-- 270° -->
      <g transform="translate(224.11625 324.343375)scale(0.1 -0.1)">
       <defs>
        <path d="M 525 4666 
L 3525 4666 
L 3525 4397 
L 1831 0 
L 1172 0 
L 2766 4134 
L 525 4134 
L 525 4666 
z
" id="DejaVuSans-37" transform="scale(0.015625)"/>
       </defs>
       <use xlink:href="#DejaVuSans-32"/>
       <use x="63.623047" xlink:href="#DejaVuSans-37"/>
       <use x="127.246094" xlink:href="#DejaVuSans-30"/>
       <use x="190.869141" xlink:href="#DejaVuSans-b0"/>
      </g>
     </g>
    </g>
    <g id="xtick_8">
     <g id="line2d_8">
      <path clip-path="url(#pd5bcce32e1)" d="M 236.16 174.528 
L 330.2448 268.6128 
" style="fill:none;stroke:#b0b0b0;stroke-linecap:square;stroke-width:0.8;"/>
     </g>
     <g id="text_8">
      <!-- 315° -->
      <g transform="translate(328.100545 281.27167)scale(0.1 -0.1)">
       <use xlink:href="#DejaVuSans-33"/>
       <use x="63.623047" xlink:href="#DejaVuSans-31"/>
       <use x="127.246094" xlink:href="#DejaVuSans-35"/>
       <use x="190.869141" xlink:href="#DejaVuSans-b0"/>
      </g>
     </g>
    </g>
   </g>
   <g id="matplotlib.axis_2">
    <g id="ytick_1">
     <g id="line2d_9">
      <path clip-path="url(#pd5bcce32e1)" d="M 261.504 174.528 
C 261.504 171.199856 260.848428 167.904075 259.574803 164.829271 
C 258.301177 161.754467 256.434267 158.960439 254.080914 156.607086 
C 251.727561 154.253733 248.933533 152.386823 245.858729 151.113197 
C 242.783925 149.839572 239.488144 149.184 236.16 149.184 
C 232.831856 149.184 229.536075 149.839572 226.461271 151.113197 
C 223.386467 152.386823 220.592439 154.253733 218.239086 156.607086 
C 215.885733 158.960439 214.018823 161.754467 212.745197 164.829271 
C 211.471572 167.904075 210.816 171.199856 210.816 174.528 
C 210.816 177.856144 211.471572 181.151925 212.745197 184.226729 
C 214.018823 187.301533 215.885733 190.095561 218.239086 192.448914 
C 220.592439 194.802267 223.386467 196.669177 226.461271 197.942803 
C 229.536075 199.216428 232.831856 199.872 236.16 199.872 
C 239.488144 199.872 242.783925 199.216428 245.858729 197.942803 
C 248.933533 196.669177 251.727561 194.802267 254.080914 192.448914 
C 256.434267 190.095561 258.301177 187.301533 259.574803 184.226729 
C 260.848428 181.151925 261.504 177.856144 261.504 174.528 
" style="fill:none;stroke:#b0b0b0;stroke-linecap:square;stroke-width:0.8;"/>
     </g>
     <g id="text_9">
      <!-- 0.2 -->
      <g transform="translate(259.574803 162.749584)scale(0.1 -0.1)">
       <defs>
        <path d="M 684 794 
L 1344 794 
L 1344 0 
L 684 0 
L 684 794 
z
" id="DejaVuSans-2e" transform="scale(0.015625)"/>
       </defs>
       <use xlink:href="#DejaVuSans-30"/>
       <use x="63.623047" xlink:href="#DejaVuSans-2e"/>
       <use x="95.410156" xlink:href="#DejaVuSans-32"/>
      </g>
     </g>
    </g>
    <g id="ytick_2">
     <g id="line2d_10">
      <path clip-path="url(#pd5bcce32e1)" d="M 286.848 174.528 
C 286.848 167.871713 285.536857 161.28015 282.989606 155.130542 
C 280.442355 148.980935 276.708534 143.392877 272.001829 138.686171 
C 267.295123 133.979466 261.707065 130.245645 255.557458 127.698394 
C 249.40785 125.151143 242.816287 123.84 236.16 123.84 
C 229.503713 123.84 222.91215 125.151143 216.762542 127.698394 
C 210.612935 130.245645 205.024877 133.979466 200.318171 138.686171 
C 195.611466 143.392877 191.877645 148.980935 189.330394 155.130542 
C 186.783143 161.28015 185.472 167.871713 185.472 174.528 
C 185.472 181.184287 186.783143 187.77585 189.330394 193.925458 
C 191.877645 200.075065 195.611466 205.663123 200.318171 210.369829 
C 205.024877 215.076534 210.612935 218.810355 216.762542 221.357606 
C 222.91215 223.904857 229.503713 225.216 236.16 225.216 
C 242.816287 225.216 249.40785 223.904857 255.557458 221.357606 
C 261.707065 218.810355 267.295123 215.076534 272.001829 210.369829 
C 276.708534 205.663123 280.442355 200.075065 282.989606 193.925458 
C 285.536857 187.77585 286.848 181.184287 286.848 174.528 
" style="fill:none;stroke:#b0b0b0;stroke-linecap:square;stroke-width:0.8;"/>
     </g>
     <g id="text_10">
      <!-- 0.4 -->
      <g transform="translate(282.989606 153.050855)scale(0.1 -0.1)">
       <use xlink:href="#DejaVuSans-30"/>
       <use x="63.623047" xlink:href="#DejaVuSans-2e"/>
       <use x="95.410156" xlink:href="#DejaVuSans-34"/>
      </g>
     </g>
    </g>
    <g id="ytick_3">
     <g id="line2d_11">
      <path clip-path="url(#pd5bcce32e1)" d="M 312.192 174.528 
C 312.192 164.543569 310.225285 154.656224 306.404409 145.431813 
C 302.583532 136.207402 296.982801 127.825316 289.922743 120.765257 
C 282.862684 113.705199 274.480598 108.104468 265.256187 104.283591 
C 256.031776 100.462715 246.144431 98.496 236.16 98.496 
C 226.175569 98.496 216.288224 100.462715 207.063813 104.283591 
C 197.839402 108.104468 189.457316 113.705199 182.397257 120.765257 
C 175.337199 127.825316 169.736468 136.207402 165.915591 145.431813 
C 162.094715 154.656224 160.128 164.543569 160.128 174.528 
C 160.128 184.512431 162.094715 194.399776 165.915591 203.624187 
C 169.736468 212.848598 175.337199 221.230684 182.397257 228.290743 
C 189.457316 235.350801 197.839402 240.951532 207.063813 244.772409 
C 216.288224 248.593285 226.175569 250.56 236.16 250.56 
C 246.144431 250.56 256.031776 248.593285 265.256187 244.772409 
C 274.480598 240.951532 282.862684 235.350801 289.922743 228.290743 
C 296.982801 221.230684 302.583532 212.848598 306.404409 203.624187 
C 310.225285 194.399776 312.192 184.512431 312.192 174.528 
" style="fill:none;stroke:#b0b0b0;stroke-linecap:square;stroke-width:0.8;"/>
     </g>
     <g id="text_11">
      <!-- 0.6 -->
      <g transform="translate(306.404409 143.352126)scale(0.1 -0.1)">
       <defs>
        <path d="M 2113 2584 
Q 1688 2584 1439 2293 
Q 1191 2003 1191 1497 
Q 1191 994 1439 701 
Q 1688 409 2113 409 
Q 2538 409 2786 701 
Q 3034 994 3034 1497 
Q 3034 2003 2786 2293 
Q 2538 2584 2113 2584 
z
M 3366 4563 
L 3366 3988 
Q 3128 4100 2886 4159 
Q 2644 4219 2406 4219 
Q 1781 4219 1451 3797 
Q 1122 3375 1075 2522 
Q 1259 2794 1537 2939 
Q 1816 3084 2150 3084 
Q 2853 3084 3261 2657 
Q 3669 2231 3669 1497 
Q 3669 778 3244 343 
Q 2819 -91 2113 -91 
Q 1303 -91 875 529 
Q 447 1150 447 2328 
Q 447 3434 972 4092 
Q 1497 4750 2381 4750 
Q 2619 4750 2861 4703 
Q 3103 4656 3366 4563 
z
" id="DejaVuSans-36" transform="scale(0.015625)"/>
       </defs>
       <use xlink:href="#DejaVuSans-30"/>
       <use x="63.623047" xlink:href="#DejaVuSans-2e"/>
       <use x="95.410156" xlink:href="#DejaVuSans-36"/>
      </g>
     </g>
    </g>
    <g id="ytick_4">
     <g id="line2d_12">
      <path clip-path="url(#pd5bcce32e1)" d="M 337.536 174.528 
C 337.536 161.215426 334.913713 148.032299 329.819211 135.733084 
C 324.72471 123.433869 317.257069 112.257755 307.843657 102.844343 
C 298.430245 93.430931 287.254131 85.96329 274.954916 80.868789 
C 262.655701 75.774287 249.472574 73.152 236.16 73.152 
C 222.847426 73.152 209.664299 75.774287 197.365084 80.868789 
C 185.065869 85.96329 173.889755 93.430931 164.476343 102.844343 
C 155.062931 112.257755 147.59529 123.433869 142.500789 135.733084 
C 137.406287 148.032299 134.784 161.215426 134.784 174.528 
C 134.784 187.840574 137.406287 201.023701 142.500789 213.322916 
C 147.59529 225.622131 155.062931 236.798245 164.476343 246.211657 
C 173.889755 255.625069 185.065869 263.09271 197.365084 268.187211 
C 209.664299 273.281713 222.847426 275.904 236.16 275.904 
C 249.472574 275.904 262.655701 273.281713 274.954916 268.187211 
C 287.254131 263.09271 298.430245 255.625069 307.843657 246.211657 
C 317.257069 236.798245 324.72471 225.622131 329.819211 213.322916 
C 334.913713 201.023701 337.536 187.840574 337.536 174.528 
" style="fill:none;stroke:#b0b0b0;stroke-linecap:square;stroke-width:0.8;"/>
     </g>
     <g id="text_12">
      <!-- 0.8 -->
      <g transform="translate(329.819211 133.653397)scale(0.1 -0.1)">
       <use xlink:href="#DejaVuSans-30"/>
       <use x="63.623047" xlink:href="#DejaVuSans-2e"/>
       <use x="95.410156" xlink:href="#DejaVuSans-38"/>
      </g>
     </g>
    </g>
    <g id="ytick_5">
     <g id="line2d_13">
      <path clip-path="url(#pd5bcce32e1)" d="M 362.88 174.528 
C 362.88 157.887282 359.602141 141.408374 353.234014 126.034355 
C 346.865887 110.660337 337.531336 96.690193 325.764571 84.923429 
C 313.997807 73.156664 300.027663 63.822113 284.653645 57.453986 
C 269.279626 51.085859 252.800718 47.808 236.16 47.808 
C 219.519282 47.808 203.040374 51.085859 187.666355 57.453986 
C 172.292337 63.822113 158.322193 73.156664 146.555429 84.923429 
C 134.788664 96.690193 125.454113 110.660337 119.085986 126.034355 
C 112.717859 141.408374 109.44 157.887282 109.44 174.528 
C 109.44 191.168718 112.717859 207.647626 119.085986 223.021645 
C 125.454113 238.395663 134.788664 252.365807 146.555429 264.132571 
C 158.322193 275.899336 172.292337 285.233887 187.666355 291.602014 
C 203.040374 297.970141 219.519282 301.248 236.16 301.248 
C 252.800718 301.248 269.279626 297.970141 284.653645 291.602014 
C 300.027663 285.233887 313.997807 275.899336 325.764571 264.132571 
C 337.531336 252.365807 346.865887 238.395663 353.234014 223.021645 
C 359.602141 207.647626 362.88 191.168718 362.88 174.528 
" style="fill:none;stroke:#b0b0b0;stroke-linecap:square;stroke-width:0.8;"/>
     </g>
     <g id="text_13">
      <!-- 1.0 -->
      <g transform="translate(353.234014 123.954668)scale(0.1 -0.1)">
       <use xlink:href="#DejaVuSans-31"/>
       <use x="63.623047" xlink:href="#DejaVuSans-2e"/>
       <use x="95.410156" xlink:href="#DejaVuSans-30"/>
      </g>
     </g>
    </g>
   </g>
   <g id="line2d_14">
    <path clip-path="url(#pd5bcce32e1)" d="M 236.16 174.528 
L 239.429304 173.405647 
L 246.775352 166.26574 
L 251.968148 150.331829 
L 247.976268 127.866612 
L 230.456807 105.700693 
L 200.239906 92.638435 
L 163.689351 95.803889 
L 130.710126 117.461382 
L 111.168296 153.670574 
L 111.168296 195.385426 
L 130.710126 231.594618 
L 163.689351 253.252111 
L 200.239906 256.417565 
L 230.456807 243.355307 
L 247.976268 221.189388 
L 251.968148 198.724171 
L 246.775352 182.79026 
L 239.429304 175.650353 
L 236.16 174.528 
" style="fill:none;stroke:#008000;stroke-linecap:square;stroke-width:1.5;"/>
   </g>
   <g id="patch_43">
    <path d="M 369.216 174.528 
C 369.216 157.055246 365.774248 139.752393 359.087715 123.609673 
C 352.401182 107.466954 342.599903 92.798303 330.2448 80.4432 
C 317.889697 68.088097 303.221046 58.286818 287.078327 51.600285 
C 270.935607 44.913752 253.632754 41.472 236.16 41.472 
C 218.687246 41.472 201.384393 44.913752 185.241673 51.600285 
C 169.098954 58.286818 154.430303 68.088097 142.0752 80.4432 
C 129.720097 92.798303 119.918818 107.466954 113.232285 123.609673 
C 106.545752 139.752393 103.104 157.055246 103.104 174.528 
C 103.104 192.000754 106.545752 209.303607 113.232285 225.446327 
C 119.918818 241.589046 129.720097 256.257697 142.0752 268.6128 
C 154.430303 280.967903 169.098954 290.769182 185.241673 297.455715 
C 201.384393 304.142248 218.687246 307.584 236.16 307.584 
C 253.632754 307.584 270.935607 304.142248 287.078327 297.455715 
C 303.221046 290.769182 317.889697 280.967903 330.2448 268.6128 
C 342.599903 256.257697 352.401182 241.589046 359.087715 225.446327 
C 365.774248 209.303607 369.216 192.000754 369.216 174.528 
" style="fill:none;stroke:#000000;stroke-linecap:square;stroke-linejoin:miter;stroke-width:0.8;"/>
   </g>
  </g>
 </g>
 <defs>
  <clipPath id="pd5bcce32e1">
   <path d="M 369.216 174.528 
C 369.216 157.055246 365.774248 139.752393 359.087715 123.609673 
C 352.401182 107.466954 342.599903 92.798303 330.2448 80.4432 
C 317.889697 68.088097 303.221046 58.286818 287.078327 51.600285 
C 270.935607 44.913752 253.632754 41.472 236.16 41.472 
C 218.687246 41.472 201.384393 44.913752 185.241673 51.600285 
C 169.098954 58.286818 154.430303 68.088097 142.0752 80.4432 
C 129.720097 92.798303 119.918818 107.466954 113.232285 123.609673 
C 106.545752 139.752393 103.104 157.055246 103.104 174.528 
C 103.104 192.000754 106.545752 209.303607 113.232285 225.446327 
C 119.918818 241.589046 129.720097 256.257697 142.0752 268.6128 
C 154.430303 280.967903 169.098954 290.769182 185.241673 297.455715 
C 201.384393 304.142248 218.687246 307.584 236.16 307.584 
C 253.632754 307.584 270.935607 304.142248 287.078327 297.455715 
C 303.221046 290.769182 317.889697 280.967903 330.2448 268.6128 
C 342.599903 256.257697 352.401182 241.589046 359.087715 225.446327 
C 365.774248 209.303607 369.216 192.000754 369.216 174.528 
M 236.16 174.528 
C 236.16 174.528 236.16 174.528 236.16 174.528 
C 236.16 174.528 236.16 174.528 236.16 174.528 
C 236.16 174.528 236.16 174.528 236.16 174.528 
C 236.16 174.528 236.16 174.528 236.16 174.528 
C 236.16 174.528 236.16 174.528 236.16 174.528 
C 236.16 174.528 236.16 174.528 236.16 174.528 
C 236.16 174.528 236.16 174.528 236.16 174.528 
C 236.16 174.528 236.16 174.528 236.16 174.528 
C 236.16 174.528 236.16 174.528 236.16 174.528 
C 236.16 174.528 236.16 174.528 236.16 174.528 
C 236.16 174.528 236.16 174.528 236.16 174.528 
C 236.16 174.528 236.16 174.528 236.16 174.528 
C 236.16 174.528 236.16 174.528 236.16 174.528 
C 236.16 174.528 236.16 174.528 236.16 174.528 
C 236.16 174.528 236.16 174.528 236.16 174.528 
C 236.16 174.528 236.16 174.528 236.16 174.528 
M 369.216 174.528 
z
"/>
  </clipPath>
 </defs>
</svg>
