<?xml version="1.0" encoding="utf-8"?>
<svg xmlns="http://www.w3.org/2000/svg" xmlns:xlink="http://www.w3.org/1999/xlink" width="600" height="400" viewBox="0 0 2400 1600">
<defs>
  <clipPath id="clip560">
    <rect x="0" y="0" width="2400" height="1600"/>
  </clipPath>
</defs>
<path clip-path="url(#clip560)" d="
M0 1600 L2400 1600 L2400 0 L0 0  Z
  " fill="#ffffff" fill-rule="evenodd" fill-opacity="1"/>
<defs>
  <clipPath id="clip561">
    <rect x="480" y="0" width="1681" height="1600"/>
  </clipPath>
</defs>
<path clip-path="url(#clip560)" d="
M112.177 1486.45 L2352.76 1486.45 L2352.76 123.472 L112.177 123.472  Z
  " fill="#ffffff" fill-rule="evenodd" fill-opacity="1"/>
<defs>
  <clipPath id="clip562">
    <rect x="112" y="123" width="2242" height="1364"/>
  </clipPath>
</defs>
<defs>
  <clipPath id="clip563">
    <rect x="606" y="235" width="1252" height="1252"/>
  </clipPath>
</defs>
<polyline clip-path="url(#clip563)" style="stroke:#000000; stroke-linecap:butt; stroke-linejoin:round; stroke-width:2; stroke-opacity:0.1; fill:none" points="
  1857.94,860.974 1232.47,860.974 
  "/>
<polyline clip-path="url(#clip563)" style="stroke:#000000; stroke-linecap:butt; stroke-linejoin:round; stroke-width:2; stroke-opacity:0.1; fill:none" points="
  1674.74,1303.25 1232.47,860.974 
  "/>
<polyline clip-path="url(#clip563)" style="stroke:#000000; stroke-linecap:butt; stroke-linejoin:round; stroke-width:2; stroke-opacity:0.1; fill:none" points="
  1232.47,1486.45 1232.47,860.974 
  "/>
<polyline clip-path="url(#clip563)" style="stroke:#000000; stroke-linecap:butt; stroke-linejoin:round; stroke-width:2; stroke-opacity:0.1; fill:none" points="
  790.19,1303.25 1232.47,860.974 
  "/>
<polyline clip-path="url(#clip563)" style="stroke:#000000; stroke-linecap:butt; stroke-linejoin:round; stroke-width:2; stroke-opacity:0.1; fill:none" points="
  606.993,860.974 1232.47,860.974 
  "/>
<polyline clip-path="url(#clip563)" style="stroke:#000000; stroke-linecap:butt; stroke-linejoin:round; stroke-width:2; stroke-opacity:0.1; fill:none" points="
  790.19,418.698 1232.47,860.974 
  "/>
<polyline clip-path="url(#clip563)" style="stroke:#000000; stroke-linecap:butt; stroke-linejoin:round; stroke-width:2; stroke-opacity:0.1; fill:none" points="
  1232.47,235.501 1232.47,860.974 
  "/>
<polyline clip-path="url(#clip563)" style="stroke:#000000; stroke-linecap:butt; stroke-linejoin:round; stroke-width:2; stroke-opacity:0.1; fill:none" points="
  1674.74,418.698 1232.47,860.974 
  "/>
<polyline clip-path="url(#clip563)" style="stroke:#000000; stroke-linecap:butt; stroke-linejoin:round; stroke-width:2; stroke-opacity:0.1; fill:none" points="
  1232.47,860.974 1232.47,860.974 
  
  
  
  
  
  
  
  
  
  
  
  
  
  
  
  
  
  
  
  
  
  
  
  
  
  
  
  
  
  
  
  
  
  
  
  
  "/>
<polyline clip-path="url(#clip563)" style="stroke:#000000; stroke-linecap:butt; stroke-linejoin:round; stroke-width:2; stroke-opacity:0.1; fill:none" points="
  1374.62,860.974 1374.6,858.494 1374.53,856.013 1374.42,853.535 1374.27,851.058 1374.08,848.585 1373.84,846.115 1373.56,843.65 1373.24,841.191 1372.87,838.737 
  1372.46,836.29 1372.01,833.85 1371.51,831.419 1370.98,828.997 1370.4,826.585 1369.78,824.183 1369.11,821.792 1368.41,819.413 1367.66,817.047 1366.87,814.694 
  1366.05,812.355 1365.18,810.031 1364.27,807.723 1363.32,805.431 1362.33,803.156 1361.3,800.898 1360.23,798.659 1359.13,796.438 1357.98,794.238 1356.8,792.057 
  1355.57,789.898 1354.32,787.76 1353.02,785.645 1351.69,783.552 1350.32,781.483 1348.91,779.439 1347.47,777.419 1346,775.425 1344.48,773.456 1342.94,771.515 
  1341.36,769.6 1339.75,767.714 1338.11,765.856 1336.43,764.026 1334.72,762.227 1332.98,760.457 1331.21,758.718 1329.41,757.01 1327.59,755.334 1325.73,753.69 
  1323.84,752.079 1321.93,750.501 1319.98,748.956 1318.02,747.446 1316.02,745.97 1314,744.53 1311.96,743.124 1309.89,741.755 1307.8,740.422 1305.68,739.126 
  1303.54,737.866 1301.38,736.645 1299.2,735.461 1297,734.315 1294.78,733.208 1292.54,732.14 1290.29,731.111 1288.01,730.122 1285.72,729.172 1283.41,728.263 
  1281.09,727.394 1278.75,726.566 1276.39,725.779 1274.03,725.033 1271.65,724.328 1269.26,723.665 1266.86,723.044 1264.44,722.465 1262.02,721.928 1259.59,721.433 
  1257.15,720.981 1254.7,720.572 1252.25,720.205 1249.79,719.881 1247.33,719.6 1244.86,719.362 1242.38,719.168 1239.91,719.016 1237.43,718.908 1234.95,718.843 
  1232.47,718.821 1229.99,718.843 1227.51,718.908 1225.03,719.016 1222.55,719.168 1220.08,719.362 1217.61,719.6 1215.14,719.881 1212.68,720.205 1210.23,720.572 
  1207.78,720.981 1205.34,721.433 1202.91,721.928 1200.49,722.465 1198.08,723.044 1195.67,723.665 1193.28,724.328 1190.91,725.033 1188.54,725.779 1186.19,726.566 
  1183.85,727.394 1181.52,728.263 1179.22,729.172 1176.92,730.122 1174.65,731.111 1172.39,732.14 1170.15,733.208 1167.93,734.315 1165.73,735.461 1163.55,736.645 
  1161.39,737.866 1159.25,739.126 1157.14,740.422 1155.04,741.755 1152.98,743.124 1150.93,744.53 1148.91,745.97 1146.92,747.446 1144.95,748.956 1143.01,750.501 
  1141.09,752.079 1139.21,753.69 1137.35,755.334 1135.52,757.01 1133.72,758.718 1131.95,760.457 1130.21,762.227 1128.5,764.026 1126.83,765.856 1125.18,767.714 
  1123.57,769.6 1121.99,771.515 1120.45,773.456 1118.94,775.425 1117.46,777.419 1116.02,779.439 1114.62,781.483 1113.25,783.552 1111.91,785.645 1110.62,787.76 
  1109.36,789.898 1108.14,792.057 1106.95,794.238 1105.81,796.438 1104.7,798.659 1103.63,800.898 1102.6,803.156 1101.61,805.431 1100.66,807.723 1099.76,810.031 
  1098.89,812.355 1098.06,814.694 1097.27,817.047 1096.52,819.413 1095.82,821.792 1095.16,824.183 1094.54,826.585 1093.96,828.997 1093.42,831.419 1092.93,833.85 
  1092.47,836.29 1092.06,838.737 1091.7,841.191 1091.37,843.65 1091.09,846.115 1090.85,848.585 1090.66,851.058 1090.51,853.535 1090.4,856.013 1090.34,858.494 
  1090.31,860.974 1090.34,863.455 1090.4,865.936 1090.51,868.414 1090.66,870.891 1090.85,873.364 1091.09,875.834 1091.37,878.299 1091.7,880.758 1092.06,883.212 
  1092.47,885.659 1092.93,888.099 1093.42,890.53 1093.96,892.952 1094.54,895.364 1095.16,897.766 1095.82,900.157 1096.52,902.536 1097.27,904.902 1098.06,907.255 
  1098.89,909.594 1099.76,911.918 1100.66,914.226 1101.61,916.518 1102.6,918.793 1103.63,921.051 1104.7,923.29 1105.81,925.511 1106.95,927.711 1108.14,929.892 
  1109.36,932.051 1110.62,934.189 1111.91,936.304 1113.25,938.397 1114.62,940.465 1116.02,942.51 1117.46,944.53 1118.94,946.524 1120.45,948.493 1121.99,950.434 
  1123.57,952.349 1125.18,954.235 1126.83,956.093 1128.5,957.923 1130.21,959.722 1131.95,961.492 1133.72,963.231 1135.52,964.939 1137.35,966.615 1139.21,968.259 
  1141.09,969.87 1143.01,971.448 1144.95,972.993 1146.92,974.503 1148.91,975.979 1150.93,977.419 1152.98,978.825 1155.04,980.194 1157.14,981.527 1159.25,982.823 
  1161.39,984.083 1163.55,985.304 1165.73,986.488 1167.93,987.634 1170.15,988.741 1172.39,989.809 1174.65,990.838 1176.92,991.827 1179.22,992.776 1181.52,993.686 
  1183.85,994.555 1186.19,995.383 1188.54,996.17 1190.91,996.916 1193.28,997.621 1195.67,998.284 1198.08,998.905 1200.49,999.484 1202.91,1000.02 1205.34,1000.52 
  1207.78,1000.97 1210.23,1001.38 1212.68,1001.74 1215.14,1002.07 1217.61,1002.35 1220.08,1002.59 1222.55,1002.78 1225.03,1002.93 1227.51,1003.04 1229.99,1003.11 
  1232.47,1003.13 1234.95,1003.11 1237.43,1003.04 1239.91,1002.93 1242.38,1002.78 1244.86,1002.59 1247.33,1002.35 1249.79,1002.07 1252.25,1001.74 1254.7,1001.38 
  1257.15,1000.97 1259.59,1000.52 1262.02,1000.02 1264.44,999.484 1266.86,998.905 1269.26,998.284 1271.65,997.621 1274.03,996.916 1276.39,996.17 1278.75,995.383 
  1281.09,994.555 1283.41,993.686 1285.72,992.776 1288.01,991.827 1290.29,990.838 1292.54,989.809 1294.78,988.741 1297,987.634 1299.2,986.488 1301.38,985.304 
  1303.54,984.083 1305.68,982.823 1307.8,981.527 1309.89,980.194 1311.96,978.825 1314,977.419 1316.02,975.979 1318.02,974.503 1319.98,972.993 1321.93,971.448 
  1323.84,969.87 1325.73,968.259 1327.59,966.615 1329.41,964.939 1331.21,963.231 1332.98,961.492 1334.72,959.722 1336.43,957.923 1338.11,956.093 1339.75,954.235 
  1341.36,952.349 1342.94,950.434 1344.48,948.493 1346,946.524 1347.47,944.53 1348.91,942.51 1350.32,940.465 1351.69,938.397 1353.02,936.304 1354.32,934.189 
  1355.57,932.051 1356.8,929.892 1357.98,927.711 1359.13,925.511 1360.23,923.29 1361.3,921.051 1362.33,918.793 1363.32,916.518 1364.27,914.226 1365.18,911.918 
  1366.05,909.594 1366.87,907.255 1367.66,904.902 1368.41,902.536 1369.11,900.157 1369.78,897.766 1370.4,895.364 1370.98,892.952 1371.51,890.53 1372.01,888.099 
  1372.46,885.659 1372.87,883.212 1373.24,880.758 1373.56,878.299 1373.84,875.834 1374.08,873.364 1374.27,870.891 1374.42,868.414 1374.53,865.936 1374.6,863.455 
  
  "/>
<polyline clip-path="url(#clip563)" style="stroke:#000000; stroke-linecap:butt; stroke-linejoin:round; stroke-width:2; stroke-opacity:0.1; fill:none" points="
  1516.77,860.974 1516.73,856.013 1516.6,851.052 1516.38,846.095 1516.08,841.142 1515.69,836.196 1515.22,831.256 1514.65,826.326 1514.01,821.407 1513.27,816.499 
  1512.45,811.605 1511.55,806.726 1510.56,801.864 1509.49,797.02 1508.33,792.195 1507.09,787.391 1505.76,782.609 1504.35,777.851 1502.86,773.119 1501.28,768.413 
  1499.63,763.736 1497.89,759.088 1496.07,754.472 1494.17,749.887 1492.19,745.337 1490.14,740.822 1488,736.343 1485.79,731.902 1483.49,727.501 1481.13,723.14 
  1478.68,718.821 1476.16,714.546 1473.57,710.315 1470.91,706.13 1468.17,701.993 1465.36,697.903 1462.48,693.864 1459.52,689.875 1456.5,685.938 1453.41,682.055 
  1450.26,678.226 1447.04,674.453 1443.75,670.737 1440.39,667.078 1436.98,663.479 1433.5,659.94 1429.96,656.462 1426.36,653.046 1422.7,649.694 1418.99,646.406 
  1415.21,643.183 1411.39,640.027 1407.5,636.938 1403.57,633.918 1399.58,630.966 1395.54,628.085 1391.45,625.274 1387.31,622.535 1383.13,619.869 1378.9,617.277 
  1374.62,614.758 1370.3,612.315 1365.94,609.947 1361.54,607.656 1357.1,605.442 1352.62,603.306 1348.1,601.248 1343.55,599.269 1338.97,597.37 1334.35,595.552 
  1329.7,593.814 1325.03,592.158 1320.32,590.583 1315.59,589.091 1310.83,587.682 1306.05,586.356 1301.25,585.113 1296.42,583.955 1291.58,582.881 1286.71,581.892 
  1281.84,580.988 1276.94,580.169 1272.03,579.435 1267.11,578.788 1262.18,578.226 1257.25,577.75 1252.3,577.361 1247.35,577.058 1242.39,576.842 1237.43,576.712 
  1232.47,576.668 1227.5,576.712 1222.54,576.842 1217.59,577.058 1212.63,577.361 1207.69,577.75 1202.75,578.226 1197.82,578.788 1192.9,579.435 1187.99,580.169 
  1183.1,580.988 1178.22,581.892 1173.36,582.881 1168.51,583.955 1163.69,585.113 1158.88,586.356 1154.1,587.682 1149.34,589.091 1144.61,590.583 1139.91,592.158 
  1135.23,593.814 1130.58,595.552 1125.96,597.37 1121.38,599.269 1116.83,601.248 1112.31,603.306 1107.83,605.442 1103.39,607.656 1098.99,609.947 1094.63,612.315 
  1090.31,614.758 1086.04,617.277 1081.81,619.869 1077.62,622.535 1073.48,625.274 1069.4,628.085 1065.36,630.966 1061.37,633.918 1057.43,636.938 1053.55,640.027 
  1049.72,643.183 1045.94,646.406 1042.23,649.694 1038.57,653.046 1034.97,656.462 1031.43,659.94 1027.95,663.479 1024.54,667.078 1021.19,670.737 1017.9,674.453 
  1014.68,678.226 1011.52,682.055 1008.43,685.938 1005.41,689.875 1002.46,693.864 999.577,697.903 996.766,701.993 994.027,706.13 991.361,710.315 988.769,714.546 
  986.25,718.821 983.807,723.14 981.439,727.501 979.148,731.902 976.934,736.343 974.798,740.822 972.74,745.337 970.761,749.887 968.863,754.472 967.044,759.088 
  965.306,763.736 963.65,768.413 962.075,773.119 960.583,777.851 959.174,782.609 957.848,787.391 956.606,792.195 955.447,797.02 954.373,801.864 953.384,806.726 
  952.48,811.605 951.661,816.499 950.927,821.407 950.28,826.326 949.718,831.256 949.242,836.196 948.853,841.142 948.55,846.095 948.334,851.052 948.204,856.013 
  948.16,860.974 948.204,865.936 948.334,870.897 948.55,875.854 948.853,880.807 949.242,885.753 949.718,890.693 950.28,895.623 950.927,900.542 951.661,905.45 
  952.48,910.344 953.384,915.223 954.373,920.085 955.447,924.929 956.606,929.754 957.848,934.558 959.174,939.34 960.583,944.098 962.075,948.83 963.65,953.535 
  965.306,958.213 967.044,962.861 968.863,967.477 970.761,972.062 972.74,976.612 974.798,981.127 976.934,985.606 979.148,990.047 981.439,994.448 983.807,998.809 
  986.25,1003.13 988.769,1007.4 991.361,1011.63 994.027,1015.82 996.766,1019.96 999.577,1024.05 1002.46,1028.09 1005.41,1032.07 1008.43,1036.01 1011.52,1039.89 
  1014.68,1043.72 1017.9,1047.5 1021.19,1051.21 1024.54,1054.87 1027.95,1058.47 1031.43,1062.01 1034.97,1065.49 1038.57,1068.9 1042.23,1072.26 1045.94,1075.54 
  1049.72,1078.77 1053.55,1081.92 1057.43,1085.01 1061.37,1088.03 1065.36,1090.98 1069.4,1093.86 1073.48,1096.67 1077.62,1099.41 1081.81,1102.08 1086.04,1104.67 
  1090.31,1107.19 1094.63,1109.63 1098.99,1112 1103.39,1114.29 1107.83,1116.51 1112.31,1118.64 1116.83,1120.7 1121.38,1122.68 1125.96,1124.58 1130.58,1126.4 
  1135.23,1128.13 1139.91,1129.79 1144.61,1131.37 1149.34,1132.86 1154.1,1134.27 1158.88,1135.59 1163.69,1136.84 1168.51,1137.99 1173.36,1139.07 1178.22,1140.06 
  1183.1,1140.96 1187.99,1141.78 1192.9,1142.51 1197.82,1143.16 1202.75,1143.72 1207.69,1144.2 1212.63,1144.59 1217.59,1144.89 1222.54,1145.11 1227.5,1145.24 
  1232.47,1145.28 1237.43,1145.24 1242.39,1145.11 1247.35,1144.89 1252.3,1144.59 1257.25,1144.2 1262.18,1143.72 1267.11,1143.16 1272.03,1142.51 1276.94,1141.78 
  1281.84,1140.96 1286.71,1140.06 1291.58,1139.07 1296.42,1137.99 1301.25,1136.84 1306.05,1135.59 1310.83,1134.27 1315.59,1132.86 1320.32,1131.37 1325.03,1129.79 
  1329.7,1128.13 1334.35,1126.4 1338.97,1124.58 1343.55,1122.68 1348.1,1120.7 1352.62,1118.64 1357.1,1116.51 1361.54,1114.29 1365.94,1112 1370.3,1109.63 
  1374.62,1107.19 1378.9,1104.67 1383.13,1102.08 1387.31,1099.41 1391.45,1096.67 1395.54,1093.86 1399.58,1090.98 1403.57,1088.03 1407.5,1085.01 1411.39,1081.92 
  1415.21,1078.77 1418.99,1075.54 1422.7,1072.26 1426.36,1068.9 1429.96,1065.49 1433.5,1062.01 1436.98,1058.47 1440.39,1054.87 1443.75,1051.21 1447.04,1047.5 
  1450.26,1043.72 1453.41,1039.89 1456.5,1036.01 1459.52,1032.07 1462.48,1028.09 1465.36,1024.05 1468.17,1019.96 1470.91,1015.82 1473.57,1011.63 1476.16,1007.4 
  1478.68,1003.13 1481.13,998.809 1483.49,994.448 1485.79,990.047 1488,985.606 1490.14,981.127 1492.19,976.612 1494.17,972.062 1496.07,967.477 1497.89,962.861 
  1499.63,958.213 1501.28,953.535 1502.86,948.83 1504.35,944.098 1505.76,939.34 1507.09,934.558 1508.33,929.754 1509.49,924.929 1510.56,920.085 1511.55,915.223 
  1512.45,910.344 1513.27,905.45 1514.01,900.542 1514.65,895.623 1515.22,890.693 1515.69,885.753 1516.08,880.807 1516.38,875.854 1516.6,870.897 1516.73,865.936 
  
  "/>
<polyline clip-path="url(#clip563)" style="stroke:#000000; stroke-linecap:butt; stroke-linejoin:round; stroke-width:2; stroke-opacity:0.1; fill:none" points="
  1658.93,860.974 1658.86,853.532 1658.67,846.091 1658.34,838.655 1657.89,831.226 1657.3,823.806 1656.59,816.397 1655.75,809.002 1654.78,801.623 1653.68,794.262 
  1652.45,786.921 1651.09,779.602 1649.61,772.309 1648,765.042 1646.26,757.805 1644.39,750.599 1642.41,743.426 1640.29,736.29 1638.05,729.191 1635.69,722.133 
  1633.21,715.117 1630.6,708.145 1627.87,701.22 1625.02,694.344 1622.06,687.518 1618.97,680.745 1615.77,674.027 1612.44,667.366 1609.01,660.764 1605.46,654.223 
  1601.79,647.745 1598.01,641.332 1594.12,634.986 1590.13,628.708 1586.02,622.502 1581.8,616.368 1577.48,610.308 1573.05,604.325 1568.52,598.42 1563.89,592.595 
  1559.15,586.852 1554.32,581.192 1549.39,575.618 1544.36,570.13 1539.24,564.731 1534.02,559.422 1528.71,554.205 1523.31,549.082 1517.82,544.054 1512.25,539.122 
  1506.59,534.288 1500.85,529.553 1495.02,524.92 1489.12,520.389 1483.13,515.962 1477.07,511.64 1470.94,507.424 1464.73,503.316 1458.46,499.317 1452.11,495.428 
  1445.7,491.65 1439.22,487.985 1432.68,484.433 1426.07,480.997 1419.41,477.676 1412.7,474.471 1405.92,471.385 1399.1,468.417 1392.22,465.568 1385.3,462.841 
  1378.32,460.234 1371.31,457.749 1364.25,455.388 1357.15,453.15 1350.01,451.036 1342.84,449.047 1335.64,447.183 1328.4,445.445 1321.13,443.834 1313.84,442.351 
  1306.52,440.994 1299.18,439.766 1291.82,438.666 1284.44,437.694 1277.04,436.852 1269.63,436.138 1262.21,435.554 1254.79,435.1 1247.35,434.775 1239.91,434.58 
  1232.47,434.515 1225.02,434.58 1217.58,434.775 1210.15,435.1 1202.72,435.554 1195.3,436.138 1187.89,436.852 1180.49,437.694 1173.11,438.666 1165.75,439.766 
  1158.41,440.994 1151.09,442.351 1143.8,443.834 1136.53,445.445 1129.3,447.183 1122.09,449.047 1114.92,451.036 1107.78,453.15 1100.68,455.388 1093.63,457.749 
  1086.61,460.234 1079.64,462.841 1072.71,465.568 1065.84,468.417 1059.01,471.385 1052.24,474.471 1045.52,477.676 1038.86,480.997 1032.26,484.433 1025.72,487.985 
  1019.24,491.65 1012.82,495.428 1006.48,499.317 1000.2,503.316 993.994,507.424 987.86,511.64 981.8,515.962 975.817,520.389 969.912,524.92 964.087,529.553 
  958.344,534.288 952.684,539.122 947.11,544.054 941.622,549.082 936.223,554.205 930.914,559.422 925.698,564.731 920.574,570.13 915.546,575.618 910.614,581.192 
  905.78,586.852 901.046,592.595 896.412,598.42 891.881,604.325 887.454,610.308 883.132,616.368 878.916,622.502 874.808,628.708 870.809,634.986 866.92,641.332 
  863.142,647.745 859.477,654.223 855.925,660.764 852.489,667.366 849.168,674.027 845.963,680.745 842.877,687.518 839.909,694.344 837.061,701.22 834.333,708.145 
  831.726,715.117 829.242,722.133 826.88,729.191 824.642,736.29 822.528,743.426 820.539,750.599 818.675,757.805 816.938,765.042 815.327,772.309 813.843,779.602 
  812.486,786.921 811.258,794.262 810.158,801.623 809.186,809.002 808.344,816.397 807.63,823.806 807.046,831.226 806.592,838.655 806.267,846.091 806.072,853.532 
  806.007,860.974 806.072,868.417 806.267,875.858 806.592,883.294 807.046,890.723 807.63,898.143 808.344,905.552 809.186,912.947 810.158,920.326 811.258,927.687 
  812.486,935.028 813.843,942.347 815.327,949.64 816.938,956.907 818.675,964.144 820.539,971.35 822.528,978.523 824.642,985.659 826.88,992.758 829.242,999.816 
  831.726,1006.83 834.333,1013.8 837.061,1020.73 839.909,1027.61 842.877,1034.43 845.963,1041.2 849.168,1047.92 852.489,1054.58 855.925,1061.18 859.477,1067.73 
  863.142,1074.2 866.92,1080.62 870.809,1086.96 874.808,1093.24 878.916,1099.45 883.132,1105.58 887.454,1111.64 891.881,1117.62 896.412,1123.53 901.046,1129.35 
  905.78,1135.1 910.614,1140.76 915.546,1146.33 920.574,1151.82 925.698,1157.22 930.914,1162.53 936.223,1167.74 941.622,1172.87 947.11,1177.9 952.684,1182.83 
  958.344,1187.66 964.087,1192.4 969.912,1197.03 975.817,1201.56 981.8,1205.99 987.86,1210.31 993.994,1214.53 1000.2,1218.63 1006.48,1222.63 1012.82,1226.52 
  1019.24,1230.3 1025.72,1233.96 1032.26,1237.52 1038.86,1240.95 1045.52,1244.27 1052.24,1247.48 1059.01,1250.56 1065.84,1253.53 1072.71,1256.38 1079.64,1259.11 
  1086.61,1261.71 1093.63,1264.2 1100.68,1266.56 1107.78,1268.8 1114.92,1270.91 1122.09,1272.9 1129.3,1274.77 1136.53,1276.5 1143.8,1278.11 1151.09,1279.6 
  1158.41,1280.95 1165.75,1282.18 1173.11,1283.28 1180.49,1284.25 1187.89,1285.1 1195.3,1285.81 1202.72,1286.39 1210.15,1286.85 1217.58,1287.17 1225.02,1287.37 
  1232.47,1287.43 1239.91,1287.37 1247.35,1287.17 1254.79,1286.85 1262.21,1286.39 1269.63,1285.81 1277.04,1285.1 1284.44,1284.25 1291.82,1283.28 1299.18,1282.18 
  1306.52,1280.95 1313.84,1279.6 1321.13,1278.11 1328.4,1276.5 1335.64,1274.77 1342.84,1272.9 1350.01,1270.91 1357.15,1268.8 1364.25,1266.56 1371.31,1264.2 
  1378.32,1261.71 1385.3,1259.11 1392.22,1256.38 1399.1,1253.53 1405.92,1250.56 1412.7,1247.48 1419.41,1244.27 1426.07,1240.95 1432.68,1237.52 1439.22,1233.96 
  1445.7,1230.3 1452.11,1226.52 1458.46,1222.63 1464.73,1218.63 1470.94,1214.53 1477.07,1210.31 1483.13,1205.99 1489.12,1201.56 1495.02,1197.03 1500.85,1192.4 
  1506.59,1187.66 1512.25,1182.83 1517.82,1177.9 1523.31,1172.87 1528.71,1167.74 1534.02,1162.53 1539.24,1157.22 1544.36,1151.82 1549.39,1146.33 1554.32,1140.76 
  1559.15,1135.1 1563.89,1129.35 1568.52,1123.53 1573.05,1117.62 1577.48,1111.64 1581.8,1105.58 1586.02,1099.45 1590.13,1093.24 1594.12,1086.96 1598.01,1080.62 
  1601.79,1074.2 1605.46,1067.73 1609.01,1061.18 1612.44,1054.58 1615.77,1047.92 1618.97,1041.2 1622.06,1034.43 1625.02,1027.61 1627.87,1020.73 1630.6,1013.8 
  1633.21,1006.83 1635.69,999.816 1638.05,992.758 1640.29,985.659 1642.41,978.523 1644.39,971.35 1646.26,964.144 1648,956.907 1649.61,949.64 1651.09,942.347 
  1652.45,935.028 1653.68,927.687 1654.78,920.326 1655.75,912.947 1656.59,905.552 1657.3,898.143 1657.89,890.723 1658.34,883.294 1658.67,875.858 1658.86,868.417 
  
  "/>
<polyline clip-path="url(#clip563)" style="stroke:#000000; stroke-linecap:butt; stroke-linejoin:round; stroke-width:2; stroke-opacity:0.1; fill:none" points="
  1801.08,860.974 1800.99,851.051 1800.73,841.13 1800.3,831.216 1799.69,821.31 1798.91,811.417 1797.96,801.538 1796.84,791.678 1795.55,781.839 1794.08,772.024 
  1792.44,762.236 1790.63,752.478 1788.65,742.753 1786.51,733.065 1784.19,723.415 1781.7,713.807 1779.05,704.244 1776.23,694.728 1773.25,685.264 1770.1,675.852 
  1766.79,666.498 1763.31,657.202 1759.67,647.969 1755.88,638.8 1751.92,629.699 1747.8,620.669 1743.53,611.711 1739.1,602.83 1734.52,594.027 1729.79,585.306 
  1724.9,576.668 1719.86,568.118 1714.68,559.656 1709.34,551.286 1703.87,543.011 1698.25,534.832 1692.48,526.753 1686.58,518.775 1680.54,510.902 1674.36,503.135 
  1668.05,495.478 1661.6,487.931 1655.03,480.499 1648.32,473.182 1641.49,465.983 1634.54,458.905 1627.46,451.949 1620.26,445.118 1612.94,438.413 1605.51,431.837 
  1597.96,425.392 1590.31,419.08 1582.54,412.902 1574.67,406.861 1566.69,400.958 1558.61,395.195 1550.43,389.574 1542.15,384.096 1533.79,378.764 1525.32,373.579 
  1516.77,368.542 1508.14,363.655 1499.41,358.92 1490.61,354.337 1481.73,349.909 1472.77,345.637 1463.74,341.521 1454.64,337.564 1445.47,333.766 1436.24,330.129 
  1426.94,326.654 1417.59,323.341 1408.18,320.192 1398.71,317.208 1389.2,314.389 1379.63,311.737 1370.03,309.252 1360.38,306.936 1350.69,304.788 1340.96,302.809 
  1331.21,301.001 1321.42,299.363 1311.6,297.896 1301.76,296.601 1291.9,295.477 1282.02,294.526 1272.13,293.747 1262.23,293.142 1252.31,292.709 1242.39,292.449 
  1232.47,292.362 1222.54,292.449 1212.62,292.709 1202.71,293.142 1192.8,293.747 1182.91,294.526 1173.03,295.477 1163.17,296.601 1153.33,297.896 1143.52,299.363 
  1133.73,301.001 1123.97,302.809 1114.25,304.788 1104.56,306.936 1094.91,309.252 1085.3,311.737 1075.74,314.389 1066.22,317.208 1056.76,320.192 1047.34,323.341 
  1037.99,326.654 1028.69,330.129 1019.46,333.766 1010.29,337.564 1001.19,341.521 992.161,345.637 983.203,349.909 974.322,354.337 965.519,358.92 956.798,363.655 
  948.16,368.542 939.61,373.579 931.148,378.764 922.778,384.096 914.503,389.574 906.324,395.195 898.245,400.958 890.267,406.861 882.394,412.902 874.627,419.08 
  866.97,425.392 859.423,431.837 851.991,438.413 844.674,445.118 837.475,451.949 830.397,458.905 823.441,465.983 816.61,473.182 809.905,480.499 803.329,487.931 
  796.884,495.478 790.572,503.135 784.394,510.902 778.353,518.775 772.45,526.753 766.687,534.832 761.066,543.011 755.588,551.286 750.256,559.656 745.071,568.118 
  740.034,576.668 735.147,585.306 730.412,594.027 725.829,602.83 721.401,611.711 717.129,620.669 713.013,629.699 709.056,638.8 705.259,647.969 701.621,657.202 
  698.146,666.498 694.833,675.852 691.684,685.264 688.7,694.728 685.881,704.244 683.229,713.807 680.745,723.415 678.428,733.065 676.28,742.753 674.301,752.478 
  672.493,762.236 670.855,772.024 669.388,781.839 668.093,791.678 666.969,801.538 666.018,811.417 665.239,821.31 664.634,831.216 664.201,841.13 663.941,851.051 
  663.854,860.974 663.941,870.898 664.201,880.819 664.634,890.733 665.239,900.639 666.018,910.532 666.969,920.411 668.093,930.271 669.388,940.11 670.855,949.925 
  672.493,959.713 674.301,969.471 676.28,979.196 678.428,988.884 680.745,998.534 683.229,1008.14 685.881,1017.71 688.7,1027.22 691.684,1036.69 694.833,1046.1 
  698.146,1055.45 701.621,1064.75 705.259,1073.98 709.056,1083.15 713.013,1092.25 717.129,1101.28 721.401,1110.24 725.829,1119.12 730.412,1127.92 735.147,1136.64 
  740.034,1145.28 745.071,1153.83 750.256,1162.29 755.588,1170.66 761.066,1178.94 766.687,1187.12 772.45,1195.2 778.353,1203.17 784.394,1211.05 790.572,1218.81 
  796.884,1226.47 803.329,1234.02 809.905,1241.45 816.61,1248.77 823.441,1255.97 830.397,1263.04 837.475,1270 844.674,1276.83 851.991,1283.54 859.423,1290.11 
  866.97,1296.56 874.627,1302.87 882.394,1309.05 890.267,1315.09 898.245,1320.99 906.324,1326.75 914.503,1332.38 922.778,1337.85 931.148,1343.18 939.61,1348.37 
  948.16,1353.41 956.798,1358.29 965.519,1363.03 974.322,1367.61 983.203,1372.04 992.161,1376.31 1001.19,1380.43 1010.29,1384.38 1019.46,1388.18 1028.69,1391.82 
  1037.99,1395.3 1047.34,1398.61 1056.76,1401.76 1066.22,1404.74 1075.74,1407.56 1085.3,1410.21 1094.91,1412.7 1104.56,1415.01 1114.25,1417.16 1123.97,1419.14 
  1133.73,1420.95 1143.52,1422.59 1153.33,1424.05 1163.17,1425.35 1173.03,1426.47 1182.91,1427.42 1192.8,1428.2 1202.71,1428.81 1212.62,1429.24 1222.54,1429.5 
  1232.47,1429.59 1242.39,1429.5 1252.31,1429.24 1262.23,1428.81 1272.13,1428.2 1282.02,1427.42 1291.9,1426.47 1301.76,1425.35 1311.6,1424.05 1321.42,1422.59 
  1331.21,1420.95 1340.96,1419.14 1350.69,1417.16 1360.38,1415.01 1370.03,1412.7 1379.63,1410.21 1389.2,1407.56 1398.71,1404.74 1408.18,1401.76 1417.59,1398.61 
  1426.94,1395.3 1436.24,1391.82 1445.47,1388.18 1454.64,1384.38 1463.74,1380.43 1472.77,1376.31 1481.73,1372.04 1490.61,1367.61 1499.41,1363.03 1508.14,1358.29 
  1516.77,1353.41 1525.32,1348.37 1533.79,1343.18 1542.15,1337.85 1550.43,1332.38 1558.61,1326.75 1566.69,1320.99 1574.67,1315.09 1582.54,1309.05 1590.31,1302.87 
  1597.96,1296.56 1605.51,1290.11 1612.94,1283.54 1620.26,1276.83 1627.46,1270 1634.54,1263.04 1641.49,1255.97 1648.32,1248.77 1655.03,1241.45 1661.6,1234.02 
  1668.05,1226.47 1674.36,1218.81 1680.54,1211.05 1686.58,1203.17 1692.48,1195.2 1698.25,1187.12 1703.87,1178.94 1709.34,1170.66 1714.68,1162.29 1719.86,1153.83 
  1724.9,1145.28 1729.79,1136.64 1734.52,1127.92 1739.1,1119.12 1743.53,1110.24 1747.8,1101.28 1751.92,1092.25 1755.88,1083.15 1759.67,1073.98 1763.31,1064.75 
  1766.79,1055.45 1770.1,1046.1 1773.25,1036.69 1776.23,1027.22 1779.05,1017.71 1781.7,1008.14 1784.19,998.534 1786.51,988.884 1788.65,979.196 1790.63,969.471 
  1792.44,959.713 1794.08,949.925 1795.55,940.11 1796.84,930.271 1797.96,920.411 1798.91,910.532 1799.69,900.639 1800.3,890.733 1800.73,880.819 1800.99,870.898 
  
  "/>
<polyline clip-path="url(#clip563)" style="stroke:#000000; stroke-linecap:butt; stroke-linejoin:round; stroke-width:2; stroke-opacity:0.1; fill:none" points="
  1857.94,860.974 1857.84,850.058 1857.56,839.146 1857.08,828.24 1856.42,817.344 1855.56,806.461 1854.51,795.595 1853.28,784.748 1851.85,773.925 1850.24,763.129 
  1848.44,752.362 1846.45,741.629 1844.27,730.931 1841.91,720.274 1839.36,709.659 1836.63,699.09 1833.71,688.571 1830.61,678.104 1827.33,667.693 1823.86,657.34 
  1820.22,647.05 1816.4,636.825 1812.4,626.668 1808.22,616.583 1803.86,606.572 1799.34,596.638 1794.64,586.785 1789.77,577.015 1784.73,567.332 1779.52,557.739 
  1774.14,548.238 1768.6,538.832 1762.9,529.524 1757.03,520.317 1751.01,511.214 1744.82,502.218 1738.49,493.33 1731.99,484.555 1725.35,475.895 1718.55,467.351 
  1711.61,458.928 1704.52,450.627 1697.28,442.451 1689.91,434.403 1682.39,426.484 1674.74,418.698 1666.96,411.047 1659.04,403.532 1650.99,396.157 1642.81,388.924 
  1634.51,381.834 1626.09,374.89 1617.55,368.095 1608.89,361.449 1600.11,354.956 1591.22,348.617 1582.23,342.434 1573.12,336.408 1563.92,330.543 1554.61,324.839 
  1545.2,319.299 1535.7,313.923 1526.11,308.714 1516.43,303.674 1506.66,298.803 1496.8,294.103 1486.87,289.576 1476.86,285.223 1466.77,281.046 1456.62,277.045 
  1446.39,273.222 1436.1,269.578 1425.75,266.114 1415.34,262.831 1404.87,259.731 1394.35,256.814 1383.78,254.08 1373.17,251.532 1362.51,249.169 1351.81,246.993 
  1341.08,245.003 1330.31,243.202 1319.52,241.588 1308.69,240.163 1297.85,238.927 1286.98,237.881 1276.1,237.025 1265.2,236.358 1254.3,235.882 1243.38,235.596 
  1232.47,235.501 1221.55,235.596 1210.64,235.882 1199.73,236.358 1188.84,237.025 1177.95,237.881 1167.09,238.927 1156.24,240.163 1145.42,241.588 1134.62,243.202 
  1123.85,245.003 1113.12,246.993 1102.42,249.169 1091.77,251.532 1081.15,254.08 1070.58,256.814 1060.06,259.731 1049.6,262.831 1039.18,266.114 1028.83,269.578 
  1018.54,273.222 1008.32,277.045 998.16,281.046 988.075,285.223 978.064,289.576 968.13,294.103 958.277,298.803 948.508,303.674 938.825,308.714 929.231,313.923 
  919.73,319.299 910.324,324.839 901.016,330.543 891.809,336.408 882.706,342.434 873.71,348.617 864.822,354.956 856.047,361.449 847.387,368.095 838.843,374.89 
  830.42,381.834 822.119,388.924 813.943,396.157 805.895,403.532 797.976,411.047 790.19,418.698 782.539,426.484 775.024,434.403 767.649,442.451 760.416,450.627 
  753.326,458.928 746.382,467.351 739.587,475.895 732.941,484.555 726.448,493.33 720.109,502.218 713.926,511.214 707.9,520.317 702.035,529.524 696.331,538.832 
  690.791,548.238 685.415,557.739 680.206,567.332 675.166,577.015 670.295,586.785 665.595,596.638 661.068,606.572 656.715,616.583 652.538,626.668 648.537,636.825 
  644.714,647.05 641.07,657.34 637.606,667.693 634.323,678.104 631.223,688.571 628.306,699.09 625.572,709.659 623.024,720.274 620.661,730.931 618.485,741.629 
  616.495,752.362 614.694,763.129 613.08,773.925 611.655,784.748 610.42,795.595 609.373,806.461 608.517,817.344 607.85,828.24 607.374,839.146 607.088,850.058 
  606.993,860.974 607.088,871.89 607.374,882.803 607.85,893.709 608.517,904.605 609.373,915.488 610.42,926.354 611.655,937.201 613.08,948.024 614.694,958.82 
  616.495,969.587 618.485,980.32 620.661,991.018 623.024,1001.68 625.572,1012.29 628.306,1022.86 631.223,1033.38 634.323,1043.85 637.606,1054.26 641.07,1064.61 
  644.714,1074.9 648.537,1085.12 652.538,1095.28 656.715,1105.37 661.068,1115.38 665.595,1125.31 670.295,1135.16 675.166,1144.93 680.206,1154.62 685.415,1164.21 
  690.791,1173.71 696.331,1183.12 702.035,1192.42 707.9,1201.63 713.926,1210.73 720.109,1219.73 726.448,1228.62 732.941,1237.39 739.587,1246.05 746.382,1254.6 
  753.326,1263.02 760.416,1271.32 767.649,1279.5 775.024,1287.55 782.539,1295.46 790.19,1303.25 797.976,1310.9 805.895,1318.42 813.943,1325.79 822.119,1333.03 
  830.42,1340.11 838.843,1347.06 847.387,1353.85 856.047,1360.5 864.822,1366.99 873.71,1373.33 882.706,1379.52 891.809,1385.54 901.016,1391.41 910.324,1397.11 
  919.73,1402.65 929.231,1408.03 938.825,1413.23 948.508,1418.28 958.277,1423.15 968.13,1427.85 978.064,1432.37 988.075,1436.73 998.16,1440.9 1008.32,1444.9 
  1018.54,1448.73 1028.83,1452.37 1039.18,1455.84 1049.6,1459.12 1060.06,1462.22 1070.58,1465.14 1081.15,1467.87 1091.77,1470.42 1102.42,1472.78 1113.12,1474.96 
  1123.85,1476.95 1134.62,1478.75 1145.42,1480.36 1156.24,1481.79 1167.09,1483.02 1177.95,1484.07 1188.84,1484.92 1199.73,1485.59 1210.64,1486.07 1221.55,1486.35 
  1232.47,1486.45 1243.38,1486.35 1254.3,1486.07 1265.2,1485.59 1276.1,1484.92 1286.98,1484.07 1297.85,1483.02 1308.69,1481.79 1319.52,1480.36 1330.31,1478.75 
  1341.08,1476.95 1351.81,1474.96 1362.51,1472.78 1373.17,1470.42 1383.78,1467.87 1394.35,1465.14 1404.87,1462.22 1415.34,1459.12 1425.75,1455.84 1436.1,1452.37 
  1446.39,1448.73 1456.62,1444.9 1466.77,1440.9 1476.86,1436.73 1486.87,1432.37 1496.8,1427.85 1506.66,1423.15 1516.43,1418.28 1526.11,1413.23 1535.7,1408.03 
  1545.2,1402.65 1554.61,1397.11 1563.92,1391.41 1573.12,1385.54 1582.23,1379.52 1591.22,1373.33 1600.11,1366.99 1608.89,1360.5 1617.55,1353.85 1626.09,1347.06 
  1634.51,1340.11 1642.81,1333.03 1650.99,1325.79 1659.04,1318.42 1666.96,1310.9 1674.74,1303.25 1682.39,1295.46 1689.91,1287.55 1697.28,1279.5 1704.52,1271.32 
  1711.61,1263.02 1718.55,1254.6 1725.35,1246.05 1731.99,1237.39 1738.49,1228.62 1744.82,1219.73 1751.01,1210.73 1757.03,1201.63 1762.9,1192.42 1768.6,1183.12 
  1774.14,1173.71 1779.52,1164.21 1784.73,1154.62 1789.77,1144.93 1794.64,1135.16 1799.34,1125.31 1803.86,1115.38 1808.22,1105.37 1812.4,1095.28 1816.4,1085.12 
  1820.22,1074.9 1823.86,1064.61 1827.33,1054.26 1830.61,1043.85 1833.71,1033.38 1836.63,1022.86 1839.36,1012.29 1841.91,1001.68 1844.27,991.018 1846.45,980.32 
  1848.44,969.587 1850.24,958.82 1851.85,948.024 1853.28,937.201 1854.51,926.354 1855.56,915.488 1856.42,904.605 1857.08,893.709 1857.56,882.803 1857.84,871.89 
  
  "/>
<polyline clip-path="url(#clip563)" style="stroke:#ededed; stroke-linecap:butt; stroke-linejoin:round; stroke-width:2; stroke-opacity:1; fill:none" points="
  1857.94,860.974 1857.84,850.058 1857.56,839.146 1857.08,828.24 1856.42,817.344 1855.56,806.461 1854.51,795.595 1853.28,784.748 1851.85,773.925 1850.24,763.129 
  1848.44,752.362 1846.45,741.629 1844.27,730.931 1841.91,720.274 1839.36,709.659 1836.63,699.09 1833.71,688.571 1830.61,678.104 1827.33,667.693 1823.86,657.34 
  1820.22,647.05 1816.4,636.825 1812.4,626.668 1808.22,616.583 1803.86,606.572 1799.34,596.638 1794.64,586.785 1789.77,577.015 1784.73,567.332 1779.52,557.739 
  1774.14,548.238 1768.6,538.832 1762.9,529.524 1757.03,520.317 1751.01,511.214 1744.82,502.218 1738.49,493.33 1731.99,484.555 1725.35,475.895 1718.55,467.351 
  1711.61,458.928 1704.52,450.627 1697.28,442.451 1689.91,434.403 1682.39,426.484 1674.74,418.698 1666.96,411.047 1659.04,403.532 1650.99,396.157 1642.81,388.924 
  1634.51,381.834 1626.09,374.89 1617.55,368.095 1608.89,361.449 1600.11,354.956 1591.22,348.617 1582.23,342.434 1573.12,336.408 1563.92,330.543 1554.61,324.839 
  1545.2,319.299 1535.7,313.923 1526.11,308.714 1516.43,303.674 1506.66,298.803 1496.8,294.103 1486.87,289.576 1476.86,285.223 1466.77,281.046 1456.62,277.045 
  1446.39,273.222 1436.1,269.578 1425.75,266.114 1415.34,262.831 1404.87,259.731 1394.35,256.814 1383.78,254.08 1373.17,251.532 1362.51,249.169 1351.81,246.993 
  1341.08,245.003 1330.31,243.202 1319.52,241.588 1308.69,240.163 1297.85,238.927 1286.98,237.881 1276.1,237.025 1265.2,236.358 1254.3,235.882 1243.38,235.596 
  1232.47,235.501 1221.55,235.596 1210.64,235.882 1199.73,236.358 1188.84,237.025 1177.95,237.881 1167.09,238.927 1156.24,240.163 1145.42,241.588 1134.62,243.202 
  1123.85,245.003 1113.12,246.993 1102.42,249.169 1091.77,251.532 1081.15,254.08 1070.58,256.814 1060.06,259.731 1049.6,262.831 1039.18,266.114 1028.83,269.578 
  1018.54,273.222 1008.32,277.045 998.16,281.046 988.075,285.223 978.064,289.576 968.13,294.103 958.277,298.803 948.508,303.674 938.825,308.714 929.231,313.923 
  919.73,319.299 910.324,324.839 901.016,330.543 891.809,336.408 882.706,342.434 873.71,348.617 864.822,354.956 856.047,361.449 847.387,368.095 838.843,374.89 
  830.42,381.834 822.119,388.924 813.943,396.157 805.895,403.532 797.976,411.047 790.19,418.698 782.539,426.484 775.024,434.403 767.649,442.451 760.416,450.627 
  753.326,458.928 746.382,467.351 739.587,475.895 732.941,484.555 726.448,493.33 720.109,502.218 713.926,511.214 707.9,520.317 702.035,529.524 696.331,538.832 
  690.791,548.238 685.415,557.739 680.206,567.332 675.166,577.015 670.295,586.785 665.595,596.638 661.068,606.572 656.715,616.583 652.538,626.668 648.537,636.825 
  644.714,647.05 641.07,657.34 637.606,667.693 634.323,678.104 631.223,688.571 628.306,699.09 625.572,709.659 623.024,720.274 620.661,730.931 618.485,741.629 
  616.495,752.362 614.694,763.129 613.08,773.925 611.655,784.748 610.42,795.595 609.373,806.461 608.517,817.344 607.85,828.24 607.374,839.146 607.088,850.058 
  606.993,860.974 607.088,871.89 607.374,882.803 607.85,893.709 608.517,904.605 609.373,915.488 610.42,926.354 611.655,937.201 613.08,948.024 614.694,958.82 
  616.495,969.587 618.485,980.32 620.661,991.018 623.024,1001.68 625.572,1012.29 628.306,1022.86 631.223,1033.38 634.323,1043.85 637.606,1054.26 641.07,1064.61 
  644.714,1074.9 648.537,1085.12 652.538,1095.28 656.715,1105.37 661.068,1115.38 665.595,1125.31 670.295,1135.16 675.166,1144.93 680.206,1154.62 685.415,1164.21 
  690.791,1173.71 696.331,1183.12 702.035,1192.42 707.9,1201.63 713.926,1210.73 720.109,1219.73 726.448,1228.62 732.941,1237.39 739.587,1246.05 746.382,1254.6 
  753.326,1263.02 760.416,1271.32 767.649,1279.5 775.024,1287.55 782.539,1295.46 790.19,1303.25 797.976,1310.9 805.895,1318.42 813.943,1325.79 822.119,1333.03 
  830.42,1340.11 838.843,1347.06 847.387,1353.85 856.047,1360.5 864.822,1366.99 873.71,1373.33 882.706,1379.52 891.809,1385.54 901.016,1391.41 910.324,1397.11 
  919.73,1402.65 929.231,1408.03 938.825,1413.23 948.508,1418.28 958.277,1423.15 968.13,1427.85 978.064,1432.37 988.075,1436.73 998.16,1440.9 1008.32,1444.9 
  1018.54,1448.73 1028.83,1452.37 1039.18,1455.84 1049.6,1459.12 1060.06,1462.22 1070.58,1465.14 1081.15,1467.87 1091.77,1470.42 1102.42,1472.78 1113.12,1474.96 
  1123.85,1476.95 1134.62,1478.75 1145.42,1480.36 1156.24,1481.79 1167.09,1483.02 1177.95,1484.07 1188.84,1484.92 1199.73,1485.59 1210.64,1486.07 1221.55,1486.35 
  1232.47,1486.45 1243.38,1486.35 1254.3,1486.07 1265.2,1485.59 1276.1,1484.92 1286.98,1484.07 1297.85,1483.02 1308.69,1481.79 1319.52,1480.36 1330.31,1478.75 
  1341.08,1476.95 1351.81,1474.96 1362.51,1472.78 1373.17,1470.42 1383.78,1467.87 1394.35,1465.14 1404.87,1462.22 1415.34,1459.12 1425.75,1455.84 1436.1,1452.37 
  1446.39,1448.73 1456.62,1444.9 1466.77,1440.9 1476.86,1436.73 1486.87,1432.37 1496.8,1427.85 1506.66,1423.15 1516.43,1418.28 1526.11,1413.23 1535.7,1408.03 
  1545.2,1402.65 1554.61,1397.11 1563.92,1391.41 1573.12,1385.54 1582.23,1379.52 1591.22,1373.33 1600.11,1366.99 1608.89,1360.5 1617.55,1353.85 1626.09,1347.06 
  1634.51,1340.11 1642.81,1333.03 1650.99,1325.79 1659.04,1318.42 1666.96,1310.9 1674.74,1303.25 1682.39,1295.46 1689.91,1287.55 1697.28,1279.5 1704.52,1271.32 
  1711.61,1263.02 1718.55,1254.6 1725.35,1246.05 1731.99,1237.39 1738.49,1228.62 1744.82,1219.73 1751.01,1210.73 1757.03,1201.63 1762.9,1192.42 1768.6,1183.12 
  1774.14,1173.71 1779.52,1164.21 1784.73,1154.62 1789.77,1144.93 1794.64,1135.16 1799.34,1125.31 1803.86,1115.38 1808.22,1105.37 1812.4,1095.28 1816.4,1085.12 
  1820.22,1074.9 1823.86,1064.61 1827.33,1054.26 1830.61,1043.85 1833.71,1033.38 1836.63,1022.86 1839.36,1012.29 1841.91,1001.68 1844.27,991.018 1846.45,980.32 
  1848.44,969.587 1850.24,958.82 1851.85,948.024 1853.28,937.201 1854.51,926.354 1855.56,915.488 1856.42,904.605 1857.08,893.709 1857.56,882.803 1857.84,871.89 
  
  "/>
<path clip-path="url(#clip560)" d="M1910.82 853.221 Q1907.21 853.221 1905.38 856.786 Q1903.57 860.327 1903.57 867.457 Q1903.57 874.563 1905.38 878.128 Q1907.21 881.67 1910.82 881.67 Q1914.45 881.67 1916.26 878.128 Q1918.09 874.563 1918.09 867.457 Q1918.09 860.327 1916.26 856.786 Q1914.45 853.221 1910.82 853.221 M1910.82 849.517 Q1916.63 849.517 1919.69 854.124 Q1922.76 858.707 1922.76 867.457 Q1922.76 876.184 1919.69 880.79 Q1916.63 885.373 1910.82 885.373 Q1905.01 885.373 1901.93 880.79 Q1898.88 876.184 1898.88 867.457 Q1898.88 858.707 1901.93 854.124 Q1905.01 849.517 1910.82 849.517 Z" fill="#000000" fill-rule="evenodd" fill-opacity="1" /><path clip-path="url(#clip560)" d="M1932.43 838.653 Q1929.65 838.653 1928.03 840.835 Q1926.41 842.998 1926.41 846.778 Q1926.41 850.558 1928.01 852.74 Q1929.63 854.903 1932.43 854.903 Q1935.2 854.903 1936.81 852.721 Q1938.43 850.54 1938.43 846.778 Q1938.43 843.035 1936.81 840.854 Q1935.2 838.653 1932.43 838.653 M1932.43 835.719 Q1936.95 835.719 1939.52 838.653 Q1942.1 841.587 1942.1 846.778 Q1942.1 851.95 1939.52 854.903 Q1936.95 857.837 1932.43 857.837 Q1927.9 857.837 1925.32 854.903 Q1922.76 851.95 1922.76 846.778 Q1922.76 841.587 1925.32 838.653 Q1927.9 835.719 1932.43 835.719 Z" fill="#000000" fill-rule="evenodd" fill-opacity="1" /><path clip-path="url(#clip560)" d="M1683.56 1352.57 Q1686.92 1353.29 1688.79 1355.56 Q1690.69 1357.83 1690.69 1361.16 Q1690.69 1366.28 1687.17 1369.08 Q1683.66 1371.88 1677.17 1371.88 Q1675 1371.88 1672.68 1371.44 Q1670.39 1371.02 1667.94 1370.16 L1667.94 1365.65 Q1669.88 1366.78 1672.2 1367.36 Q1674.51 1367.94 1677.04 1367.94 Q1681.43 1367.94 1683.72 1366.21 Q1686.04 1364.47 1686.04 1361.16 Q1686.04 1358.1 1683.89 1356.39 Q1681.76 1354.66 1677.94 1354.66 L1673.91 1354.66 L1673.91 1350.81 L1678.12 1350.81 Q1681.57 1350.81 1683.4 1349.45 Q1685.23 1348.06 1685.23 1345.47 Q1685.23 1342.8 1683.33 1341.39 Q1681.46 1339.96 1677.94 1339.96 Q1676.02 1339.96 1673.82 1340.37 Q1671.62 1340.79 1668.98 1341.67 L1668.98 1337.5 Q1671.64 1336.76 1673.96 1336.39 Q1676.29 1336.02 1678.35 1336.02 Q1683.68 1336.02 1686.78 1338.45 Q1689.88 1340.86 1689.88 1344.98 Q1689.88 1347.85 1688.24 1349.84 Q1686.6 1351.81 1683.56 1352.57 Z" fill="#000000" fill-rule="evenodd" fill-opacity="1" /><path clip-path="url(#clip560)" d="M1700.37 1367.27 L1708.01 1367.27 L1708.01 1340.91 L1699.7 1342.57 L1699.7 1338.31 L1707.96 1336.65 L1712.64 1336.65 L1712.64 1367.27 L1720.28 1367.27 L1720.28 1371.21 L1700.37 1371.21 L1700.37 1367.27 Z" fill="#000000" fill-rule="evenodd" fill-opacity="1" /><path clip-path="url(#clip560)" d="M1729.77 1336.65 L1748.12 1336.65 L1748.12 1340.58 L1734.05 1340.58 L1734.05 1349.05 Q1735.07 1348.71 1736.09 1348.54 Q1737.1 1348.36 1738.12 1348.36 Q1743.91 1348.36 1747.29 1351.53 Q1750.67 1354.7 1750.67 1360.12 Q1750.67 1365.7 1747.2 1368.8 Q1743.72 1371.88 1737.41 1371.88 Q1735.23 1371.88 1732.96 1371.51 Q1730.72 1371.14 1728.31 1370.4 L1728.31 1365.7 Q1730.39 1366.83 1732.61 1367.39 Q1734.84 1367.94 1737.31 1367.94 Q1741.32 1367.94 1743.66 1365.84 Q1745.99 1363.73 1745.99 1360.12 Q1745.99 1356.51 1743.66 1354.4 Q1741.32 1352.29 1737.31 1352.29 Q1735.44 1352.29 1733.56 1352.71 Q1731.71 1353.13 1729.77 1354.01 L1729.77 1336.65 Z" fill="#000000" fill-rule="evenodd" fill-opacity="1" /><path clip-path="url(#clip560)" d="M1760.34 1325.16 Q1757.55 1325.16 1755.94 1327.34 Q1754.32 1329.5 1754.32 1333.28 Q1754.32 1337.06 1755.92 1339.24 Q1757.53 1341.41 1760.34 1341.41 Q1763.1 1341.41 1764.72 1339.23 Q1766.34 1337.04 1766.34 1333.28 Q1766.34 1329.54 1764.72 1327.36 Q1763.1 1325.16 1760.34 1325.16 M1760.34 1322.22 Q1764.85 1322.22 1767.43 1325.16 Q1770 1328.09 1770 1333.28 Q1770 1338.45 1767.43 1341.41 Q1764.85 1344.34 1760.34 1344.34 Q1755.8 1344.34 1753.23 1341.41 Q1750.67 1338.45 1750.67 1333.28 Q1750.67 1328.09 1753.23 1325.16 Q1755.8 1322.22 1760.34 1322.22 Z" fill="#000000" fill-rule="evenodd" fill-opacity="1" /><path clip-path="url(#clip560)" d="M1186.49 1568.79 L1202.81 1568.79 L1202.81 1572.72 L1180.87 1572.72 L1180.87 1568.79 Q1183.53 1566.03 1188.11 1561.4 Q1192.72 1556.75 1193.9 1555.41 Q1196.14 1552.88 1197.02 1551.15 Q1197.93 1549.39 1197.93 1547.7 Q1197.93 1544.95 1195.98 1543.21 Q1194.06 1541.47 1190.96 1541.47 Q1188.76 1541.47 1186.31 1542.24 Q1183.88 1543 1181.1 1544.55 L1181.1 1539.83 Q1183.92 1538.7 1186.38 1538.12 Q1188.83 1537.54 1190.87 1537.54 Q1196.24 1537.54 1199.43 1540.22 Q1202.63 1542.91 1202.63 1547.4 Q1202.63 1549.53 1201.82 1551.45 Q1201.03 1553.35 1198.92 1555.94 Q1198.34 1556.61 1195.24 1559.83 Q1192.14 1563.02 1186.49 1568.79 Z" fill="#000000" fill-rule="evenodd" fill-opacity="1" /><path clip-path="url(#clip560)" d="M1211.45 1538.16 L1233.67 1538.16 L1233.67 1540.15 L1221.12 1572.72 L1216.24 1572.72 L1228.04 1542.1 L1211.45 1542.1 L1211.45 1538.16 Z" fill="#000000" fill-rule="evenodd" fill-opacity="1" /><path clip-path="url(#clip560)" d="M1252.79 1541.24 Q1249.18 1541.24 1247.35 1544.81 Q1245.54 1548.35 1245.54 1555.48 Q1245.54 1562.58 1247.35 1566.15 Q1249.18 1569.69 1252.79 1569.69 Q1256.42 1569.69 1258.23 1566.15 Q1260.06 1562.58 1260.06 1555.48 Q1260.06 1548.35 1258.23 1544.81 Q1256.42 1541.24 1252.79 1541.24 M1252.79 1537.54 Q1258.6 1537.54 1261.65 1542.14 Q1264.73 1546.73 1264.73 1555.48 Q1264.73 1564.2 1261.65 1568.81 Q1258.6 1573.39 1252.79 1573.39 Q1246.98 1573.39 1243.9 1568.81 Q1240.84 1564.2 1240.84 1555.48 Q1240.84 1546.73 1243.9 1542.14 Q1246.98 1537.54 1252.79 1537.54 Z" fill="#000000" fill-rule="evenodd" fill-opacity="1" /><path clip-path="url(#clip560)" d="M1274.4 1526.67 Q1271.62 1526.67 1270 1528.86 Q1268.38 1531.02 1268.38 1534.8 Q1268.38 1538.58 1269.98 1540.76 Q1271.6 1542.92 1274.4 1542.92 Q1277.16 1542.92 1278.78 1540.74 Q1280.4 1538.56 1280.4 1534.8 Q1280.4 1531.06 1278.78 1528.87 Q1277.16 1526.67 1274.4 1526.67 M1274.4 1523.74 Q1278.91 1523.74 1281.49 1526.67 Q1284.07 1529.61 1284.07 1534.8 Q1284.07 1539.97 1281.49 1542.92 Q1278.91 1545.86 1274.4 1545.86 Q1269.87 1545.86 1267.29 1542.92 Q1264.73 1539.97 1264.73 1534.8 Q1264.73 1529.61 1267.29 1526.67 Q1269.87 1523.74 1274.4 1523.74 Z" fill="#000000" fill-rule="evenodd" fill-opacity="1" /><path clip-path="url(#clip560)" d="M700.485 1367.27 L716.805 1367.27 L716.805 1371.21 L694.86 1371.21 L694.86 1367.27 Q697.522 1364.52 702.106 1359.89 Q706.712 1355.23 707.893 1353.89 Q710.138 1351.37 711.018 1349.63 Q711.92 1347.87 711.92 1346.18 Q711.92 1343.43 709.976 1341.69 Q708.055 1339.96 704.953 1339.96 Q702.754 1339.96 700.3 1340.72 Q697.869 1341.48 695.092 1343.04 L695.092 1338.31 Q697.916 1337.18 700.369 1336.6 Q702.823 1336.02 704.86 1336.02 Q710.231 1336.02 713.425 1338.71 Q716.619 1341.39 716.619 1345.88 Q716.619 1348.01 715.809 1349.93 Q715.022 1351.83 712.916 1354.42 Q712.337 1355.1 709.235 1358.31 Q706.133 1361.51 700.485 1367.27 Z" fill="#000000" fill-rule="evenodd" fill-opacity="1" /><path clip-path="url(#clip560)" d="M730.647 1367.27 L746.966 1367.27 L746.966 1371.21 L725.022 1371.21 L725.022 1367.27 Q727.684 1364.52 732.267 1359.89 Q736.874 1355.23 738.054 1353.89 Q740.3 1351.37 741.179 1349.63 Q742.082 1347.87 742.082 1346.18 Q742.082 1343.43 740.138 1341.69 Q738.216 1339.96 735.115 1339.96 Q732.916 1339.96 730.462 1340.72 Q728.031 1341.48 725.254 1343.04 L725.254 1338.31 Q728.078 1337.18 730.531 1336.6 Q732.985 1336.02 735.022 1336.02 Q740.392 1336.02 743.587 1338.71 Q746.781 1341.39 746.781 1345.88 Q746.781 1348.01 745.971 1349.93 Q745.184 1351.83 743.078 1354.42 Q742.499 1355.1 739.397 1358.31 Q736.295 1361.51 730.647 1367.27 Z" fill="#000000" fill-rule="evenodd" fill-opacity="1" /><path clip-path="url(#clip560)" d="M756.828 1336.65 L775.184 1336.65 L775.184 1340.58 L761.11 1340.58 L761.11 1349.05 Q762.128 1348.71 763.147 1348.54 Q764.165 1348.36 765.184 1348.36 Q770.971 1348.36 774.351 1351.53 Q777.73 1354.7 777.73 1360.12 Q777.73 1365.7 774.258 1368.8 Q770.786 1371.88 764.466 1371.88 Q762.29 1371.88 760.022 1371.51 Q757.777 1371.14 755.369 1370.4 L755.369 1365.7 Q757.453 1366.83 759.675 1367.39 Q761.897 1367.94 764.374 1367.94 Q768.378 1367.94 770.716 1365.84 Q773.054 1363.73 773.054 1360.12 Q773.054 1356.51 770.716 1354.4 Q768.378 1352.29 764.374 1352.29 Q762.499 1352.29 760.624 1352.71 Q758.772 1353.13 756.828 1354.01 L756.828 1336.65 Z" fill="#000000" fill-rule="evenodd" fill-opacity="1" /><path clip-path="url(#clip560)" d="M787.397 1325.16 Q784.614 1325.16 782.996 1327.34 Q781.379 1329.5 781.379 1333.28 Q781.379 1337.06 782.978 1339.24 Q784.595 1341.41 787.397 1341.41 Q790.162 1341.41 791.78 1339.23 Q793.397 1337.04 793.397 1333.28 Q793.397 1329.54 791.78 1327.36 Q790.162 1325.16 787.397 1325.16 M787.397 1322.22 Q791.911 1322.22 794.488 1325.16 Q797.065 1328.09 797.065 1333.28 Q797.065 1338.45 794.488 1341.41 Q791.911 1344.34 787.397 1344.34 Q782.865 1344.34 780.288 1341.41 Q777.73 1338.45 777.73 1333.28 Q777.73 1328.09 780.288 1325.16 Q782.865 1322.22 787.397 1322.22 Z" fill="#000000" fill-rule="evenodd" fill-opacity="1" /><path clip-path="url(#clip560)" d="M494.385 880.767 L502.024 880.767 L502.024 854.401 L493.714 856.068 L493.714 851.809 L501.978 850.142 L506.654 850.142 L506.654 880.767 L514.293 880.767 L514.293 884.702 L494.385 884.702 L494.385 880.767 Z" fill="#000000" fill-rule="evenodd" fill-opacity="1" /><path clip-path="url(#clip560)" d="M533.737 868.29 Q530.404 868.29 528.482 870.073 Q526.584 871.855 526.584 874.98 Q526.584 878.105 528.482 879.887 Q530.404 881.67 533.737 881.67 Q537.07 881.67 538.992 879.887 Q540.913 878.082 540.913 874.98 Q540.913 871.855 538.992 870.073 Q537.093 868.29 533.737 868.29 M529.061 866.299 Q526.052 865.559 524.362 863.498 Q522.695 861.438 522.695 858.475 Q522.695 854.332 525.635 851.924 Q528.598 849.517 533.737 849.517 Q538.899 849.517 541.839 851.924 Q544.779 854.332 544.779 858.475 Q544.779 861.438 543.089 863.498 Q541.422 865.559 538.436 866.299 Q541.816 867.086 543.691 869.378 Q545.589 871.67 545.589 874.98 Q545.589 880.003 542.51 882.688 Q539.455 885.373 533.737 885.373 Q528.019 885.373 524.941 882.688 Q521.885 880.003 521.885 874.98 Q521.885 871.67 523.783 869.378 Q525.681 867.086 529.061 866.299 M527.348 858.915 Q527.348 861.6 529.015 863.105 Q530.705 864.61 533.737 864.61 Q536.746 864.61 538.436 863.105 Q540.149 861.6 540.149 858.915 Q540.149 856.23 538.436 854.725 Q536.746 853.221 533.737 853.221 Q530.705 853.221 529.015 854.725 Q527.348 856.23 527.348 858.915 Z" fill="#000000" fill-rule="evenodd" fill-opacity="1" /><path clip-path="url(#clip560)" d="M563.899 853.221 Q560.288 853.221 558.459 856.786 Q556.653 860.327 556.653 867.457 Q556.653 874.563 558.459 878.128 Q560.288 881.67 563.899 881.67 Q567.533 881.67 569.339 878.128 Q571.167 874.563 571.167 867.457 Q571.167 860.327 569.339 856.786 Q567.533 853.221 563.899 853.221 M563.899 849.517 Q569.709 849.517 572.765 854.124 Q575.843 858.707 575.843 867.457 Q575.843 876.184 572.765 880.79 Q569.709 885.373 563.899 885.373 Q558.089 885.373 555.01 880.79 Q551.954 876.184 551.954 867.457 Q551.954 858.707 555.01 854.124 Q558.089 849.517 563.899 849.517 Z" fill="#000000" fill-rule="evenodd" fill-opacity="1" /><path clip-path="url(#clip560)" d="M585.51 838.653 Q582.727 838.653 581.109 840.835 Q579.492 842.998 579.492 846.778 Q579.492 850.558 581.091 852.74 Q582.708 854.903 585.51 854.903 Q588.275 854.903 589.893 852.721 Q591.51 850.54 591.51 846.778 Q591.51 843.035 589.893 840.854 Q588.275 838.653 585.51 838.653 M585.51 835.719 Q590.024 835.719 592.601 838.653 Q595.178 841.587 595.178 846.778 Q595.178 851.95 592.601 854.903 Q590.024 857.837 585.51 857.837 Q580.978 857.837 578.401 854.903 Q575.843 851.95 575.843 846.778 Q575.843 841.587 578.401 838.653 Q580.978 835.719 585.51 835.719 Z" fill="#000000" fill-rule="evenodd" fill-opacity="1" /><path clip-path="url(#clip560)" d="M696.4 394.263 L704.038 394.263 L704.038 367.897 L695.728 369.564 L695.728 365.305 L703.992 363.638 L708.668 363.638 L708.668 394.263 L716.307 394.263 L716.307 398.198 L696.4 398.198 L696.4 394.263 Z" fill="#000000" fill-rule="evenodd" fill-opacity="1" /><path clip-path="url(#clip560)" d="M739.918 379.564 Q743.274 380.281 745.149 382.55 Q747.047 384.818 747.047 388.152 Q747.047 393.267 743.529 396.068 Q740.01 398.869 733.529 398.869 Q731.353 398.869 729.038 398.429 Q726.747 398.013 724.293 397.156 L724.293 392.642 Q726.237 393.777 728.552 394.355 Q730.867 394.934 733.39 394.934 Q737.788 394.934 740.08 393.198 Q742.395 391.462 742.395 388.152 Q742.395 385.096 740.242 383.383 Q738.112 381.647 734.293 381.647 L730.265 381.647 L730.265 377.805 L734.478 377.805 Q737.927 377.805 739.756 376.439 Q741.585 375.05 741.585 372.457 Q741.585 369.795 739.686 368.383 Q737.811 366.948 734.293 366.948 Q732.372 366.948 730.173 367.365 Q727.973 367.781 725.335 368.661 L725.335 364.494 Q727.997 363.754 730.311 363.383 Q732.649 363.013 734.71 363.013 Q740.034 363.013 743.135 365.443 Q746.237 367.851 746.237 371.971 Q746.237 374.842 744.594 376.832 Q742.95 378.8 739.918 379.564 Z" fill="#000000" fill-rule="evenodd" fill-opacity="1" /><path clip-path="url(#clip560)" d="M755.959 363.638 L774.316 363.638 L774.316 367.573 L760.242 367.573 L760.242 376.045 Q761.26 375.698 762.279 375.536 Q763.297 375.351 764.316 375.351 Q770.103 375.351 773.483 378.522 Q776.862 381.693 776.862 387.11 Q776.862 392.689 773.39 395.791 Q769.918 398.869 763.598 398.869 Q761.422 398.869 759.154 398.499 Q756.909 398.128 754.501 397.388 L754.501 392.689 Q756.584 393.823 758.807 394.379 Q761.029 394.934 763.506 394.934 Q767.51 394.934 769.848 392.828 Q772.186 390.721 772.186 387.11 Q772.186 383.499 769.848 381.392 Q767.51 379.286 763.506 379.286 Q761.631 379.286 759.756 379.703 Q757.904 380.119 755.959 380.999 L755.959 363.638 Z" fill="#000000" fill-rule="evenodd" fill-opacity="1" /><path clip-path="url(#clip560)" d="M786.529 352.149 Q783.746 352.149 782.128 354.331 Q780.511 356.494 780.511 360.274 Q780.511 364.054 782.109 366.236 Q783.727 368.399 786.529 368.399 Q789.294 368.399 790.912 366.217 Q792.529 364.036 792.529 360.274 Q792.529 356.531 790.912 354.35 Q789.294 352.149 786.529 352.149 M786.529 349.215 Q791.043 349.215 793.62 352.149 Q796.197 355.083 796.197 360.274 Q796.197 365.446 793.62 368.399 Q791.043 371.333 786.529 371.333 Q781.997 371.333 779.42 368.399 Q776.862 365.446 776.862 360.274 Q776.862 355.083 779.42 352.149 Q781.997 349.215 786.529 349.215 Z" fill="#000000" fill-rule="evenodd" fill-opacity="1" /><path clip-path="url(#clip560)" d="M1197.93 195.964 L1197.93 191.704 Q1199.69 192.538 1201.49 192.978 Q1203.3 193.417 1205.03 193.417 Q1209.66 193.417 1212.09 190.316 Q1214.55 187.191 1214.89 180.848 Q1213.55 182.839 1211.49 183.904 Q1209.43 184.968 1206.93 184.968 Q1201.75 184.968 1198.71 181.843 Q1195.7 178.695 1195.7 173.256 Q1195.7 167.931 1198.85 164.714 Q1202 161.496 1207.23 161.496 Q1213.23 161.496 1216.38 166.103 Q1219.55 170.686 1219.55 179.436 Q1219.55 187.607 1215.66 192.492 Q1211.79 197.353 1205.24 197.353 Q1203.48 197.353 1201.68 197.005 Q1199.87 196.658 1197.93 195.964 M1207.23 181.311 Q1210.38 181.311 1212.21 179.158 Q1214.06 177.006 1214.06 173.256 Q1214.06 169.529 1212.21 167.376 Q1210.38 165.2 1207.23 165.2 Q1204.08 165.2 1202.23 167.376 Q1200.4 169.529 1200.4 173.256 Q1200.4 177.006 1202.23 179.158 Q1204.08 181.311 1207.23 181.311 Z" fill="#000000" fill-rule="evenodd" fill-opacity="1" /><path clip-path="url(#clip560)" d="M1237.95 165.2 Q1234.34 165.2 1232.51 168.765 Q1230.7 172.306 1230.7 179.436 Q1230.7 186.542 1232.51 190.107 Q1234.34 193.649 1237.95 193.649 Q1241.58 193.649 1243.39 190.107 Q1245.22 186.542 1245.22 179.436 Q1245.22 172.306 1243.39 168.765 Q1241.58 165.2 1237.95 165.2 M1237.95 161.496 Q1243.76 161.496 1246.82 166.103 Q1249.89 170.686 1249.89 179.436 Q1249.89 188.163 1246.82 192.769 Q1243.76 197.353 1237.95 197.353 Q1232.14 197.353 1229.06 192.769 Q1226.01 188.163 1226.01 179.436 Q1226.01 170.686 1229.06 166.103 Q1232.14 161.496 1237.95 161.496 Z" fill="#000000" fill-rule="evenodd" fill-opacity="1" /><path clip-path="url(#clip560)" d="M1259.56 150.632 Q1256.78 150.632 1255.16 152.814 Q1253.54 154.977 1253.54 158.757 Q1253.54 162.538 1255.14 164.719 Q1256.76 166.882 1259.56 166.882 Q1262.33 166.882 1263.94 164.701 Q1265.56 162.519 1265.56 158.757 Q1265.56 155.015 1263.94 152.833 Q1262.33 150.632 1259.56 150.632 M1259.56 147.698 Q1264.08 147.698 1266.65 150.632 Q1269.23 153.566 1269.23 158.757 Q1269.23 163.93 1266.65 166.882 Q1264.08 169.816 1259.56 169.816 Q1255.03 169.816 1252.45 166.882 Q1249.89 163.93 1249.89 158.757 Q1249.89 153.566 1252.45 150.632 Q1255.03 147.698 1259.56 147.698 Z" fill="#000000" fill-rule="evenodd" fill-opacity="1" /><path clip-path="url(#clip560)" d="M1697.97 367.712 L1686.17 386.161 L1697.97 386.161 L1697.97 367.712 M1696.75 363.638 L1702.63 363.638 L1702.63 386.161 L1707.56 386.161 L1707.56 390.05 L1702.63 390.05 L1702.63 398.198 L1697.97 398.198 L1697.97 390.05 L1682.37 390.05 L1682.37 385.536 L1696.75 363.638 Z" fill="#000000" fill-rule="evenodd" fill-opacity="1" /><path clip-path="url(#clip560)" d="M1715.33 363.638 L1733.69 363.638 L1733.69 367.573 L1719.62 367.573 L1719.62 376.045 Q1720.63 375.698 1721.65 375.536 Q1722.67 375.351 1723.69 375.351 Q1729.48 375.351 1732.86 378.522 Q1736.24 381.693 1736.24 387.11 Q1736.24 392.689 1732.76 395.791 Q1729.29 398.869 1722.97 398.869 Q1720.8 398.869 1718.53 398.499 Q1716.28 398.128 1713.88 397.388 L1713.88 392.689 Q1715.96 393.823 1718.18 394.379 Q1720.4 394.934 1722.88 394.934 Q1726.88 394.934 1729.22 392.828 Q1731.56 390.721 1731.56 387.11 Q1731.56 383.499 1729.22 381.392 Q1726.88 379.286 1722.88 379.286 Q1721 379.286 1719.13 379.703 Q1717.28 380.119 1715.33 380.999 L1715.33 363.638 Z" fill="#000000" fill-rule="evenodd" fill-opacity="1" /><path clip-path="url(#clip560)" d="M1745.9 352.149 Q1743.12 352.149 1741.5 354.331 Q1739.88 356.494 1739.88 360.274 Q1739.88 364.054 1741.48 366.236 Q1743.1 368.399 1745.9 368.399 Q1748.67 368.399 1750.29 366.217 Q1751.9 364.036 1751.9 360.274 Q1751.9 356.531 1750.29 354.35 Q1748.67 352.149 1745.9 352.149 M1745.9 349.215 Q1750.42 349.215 1752.99 352.149 Q1755.57 355.083 1755.57 360.274 Q1755.57 365.446 1752.99 368.399 Q1750.42 371.333 1745.9 371.333 Q1741.37 371.333 1738.79 368.399 Q1736.24 365.446 1736.24 360.274 Q1736.24 355.083 1738.79 352.149 Q1741.37 349.215 1745.9 349.215 Z" fill="#000000" fill-rule="evenodd" fill-opacity="1" /><path clip-path="url(#clip560)" d="M1263.74 846.773 Q1260.13 846.773 1258.3 850.338 Q1256.49 853.88 1256.49 861.009 Q1256.49 868.116 1258.3 871.68 Q1260.13 875.222 1263.74 875.222 Q1267.37 875.222 1269.18 871.68 Q1271.01 868.116 1271.01 861.009 Q1271.01 853.88 1269.18 850.338 Q1267.37 846.773 1263.74 846.773 M1263.74 843.069 Q1269.55 843.069 1272.61 847.676 Q1275.68 852.259 1275.68 861.009 Q1275.68 869.736 1272.61 874.342 Q1269.55 878.926 1263.74 878.926 Q1257.93 878.926 1254.85 874.342 Q1251.8 869.736 1251.8 861.009 Q1251.8 852.259 1254.85 847.676 Q1257.93 843.069 1263.74 843.069 Z" fill="#000000" fill-rule="evenodd" fill-opacity="1" /><path clip-path="url(#clip560)" d="M1254.12 732.166 L1261.76 732.166 L1261.76 705.801 L1253.45 707.467 L1253.45 703.208 L1261.71 701.541 L1266.39 701.541 L1266.39 732.166 L1274.03 732.166 L1274.03 736.101 L1254.12 736.101 L1254.12 732.166 Z" fill="#000000" fill-rule="evenodd" fill-opacity="1" /><path clip-path="url(#clip560)" d="M1258.39 590.013 L1274.71 590.013 L1274.71 593.948 L1252.77 593.948 L1252.77 590.013 Q1255.43 587.259 1260.01 582.629 Q1264.62 577.976 1265.8 576.634 Q1268.05 574.111 1268.93 572.374 Q1269.83 570.615 1269.83 568.925 Q1269.83 566.171 1267.88 564.435 Q1265.96 562.699 1262.86 562.699 Q1260.66 562.699 1258.21 563.462 Q1255.78 564.226 1253 565.777 L1253 561.055 Q1255.82 559.921 1258.28 559.342 Q1260.73 558.763 1262.77 558.763 Q1268.14 558.763 1271.33 561.449 Q1274.53 564.134 1274.53 568.624 Q1274.53 570.754 1273.72 572.675 Q1272.93 574.573 1270.82 577.166 Q1270.24 577.837 1267.14 581.055 Q1264.04 584.249 1258.39 590.013 Z" fill="#000000" fill-rule="evenodd" fill-opacity="1" /><path clip-path="url(#clip560)" d="M1267.99 433.161 Q1271.34 433.879 1273.22 436.147 Q1275.12 438.416 1275.12 441.749 Q1275.12 446.865 1271.6 449.666 Q1268.08 452.467 1261.6 452.467 Q1259.42 452.467 1257.11 452.027 Q1254.82 451.61 1252.36 450.754 L1252.36 446.24 Q1254.31 447.374 1256.62 447.953 Q1258.94 448.531 1261.46 448.531 Q1265.86 448.531 1268.15 446.795 Q1270.46 445.059 1270.46 441.749 Q1270.46 438.694 1268.31 436.981 Q1266.18 435.244 1262.36 435.244 L1258.34 435.244 L1258.34 431.402 L1262.55 431.402 Q1266 431.402 1267.83 430.036 Q1269.65 428.647 1269.65 426.055 Q1269.65 423.393 1267.76 421.981 Q1265.88 420.545 1262.36 420.545 Q1260.44 420.545 1258.24 420.962 Q1256.04 421.379 1253.4 422.258 L1253.4 418.092 Q1256.07 417.351 1258.38 416.981 Q1260.72 416.61 1262.78 416.61 Q1268.1 416.61 1271.21 419.041 Q1274.31 421.448 1274.31 425.569 Q1274.31 428.439 1272.66 430.43 Q1271.02 432.397 1267.99 433.161 Z" fill="#000000" fill-rule="evenodd" fill-opacity="1" /><path clip-path="url(#clip560)" d="M1266.75 279.156 L1254.94 297.605 L1266.75 297.605 L1266.75 279.156 M1265.52 275.082 L1271.4 275.082 L1271.4 297.605 L1276.33 297.605 L1276.33 301.494 L1271.4 301.494 L1271.4 309.642 L1266.75 309.642 L1266.75 301.494 L1251.15 301.494 L1251.15 296.98 L1265.52 275.082 Z" fill="#000000" fill-rule="evenodd" fill-opacity="1" /><path clip-path="url(#clip560)" d="M834.182 18.8205 L834.182 41.5461 L844.471 41.5461 Q850.183 41.5461 853.302 38.5889 Q856.421 35.6318 856.421 30.163 Q856.421 24.7348 853.302 21.7777 Q850.183 18.8205 844.471 18.8205 L834.182 18.8205 M825.999 12.096 L844.471 12.096 Q854.639 12.096 859.824 16.714 Q865.05 21.2916 865.05 30.163 Q865.05 39.1155 859.824 43.6931 Q854.639 48.2706 844.471 48.2706 L834.182 48.2706 L834.182 72.576 L825.999 72.576 L825.999 12.096 Z" fill="#000000" fill-rule="evenodd" fill-opacity="1" /><path clip-path="url(#clip560)" d="M890.327 32.4315 Q884.332 32.4315 880.848 37.1306 Q877.364 41.7891 877.364 49.9314 Q877.364 58.0738 880.808 62.7728 Q884.291 67.4314 890.327 67.4314 Q896.282 67.4314 899.766 62.7323 Q903.25 58.0333 903.25 49.9314 Q903.25 41.8701 899.766 37.1711 Q896.282 32.4315 890.327 32.4315 M890.327 26.1121 Q900.049 26.1121 905.599 32.4315 Q911.149 38.7509 911.149 49.9314 Q911.149 61.0714 905.599 67.4314 Q900.049 73.7508 890.327 73.7508 Q880.564 73.7508 875.015 67.4314 Q869.506 61.0714 869.506 49.9314 Q869.506 38.7509 875.015 32.4315 Q880.564 26.1121 890.327 26.1121 Z" fill="#000000" fill-rule="evenodd" fill-opacity="1" /><path clip-path="url(#clip560)" d="M923.504 9.54393 L930.958 9.54393 L930.958 72.576 L923.504 72.576 L923.504 9.54393 Z" fill="#000000" fill-rule="evenodd" fill-opacity="1" /><path clip-path="url(#clip560)" d="M967.173 49.7694 Q958.139 49.7694 954.656 51.8354 Q951.172 53.9013 951.172 58.8839 Q951.172 62.8538 953.764 65.2034 Q956.397 67.5124 960.894 67.5124 Q967.092 67.5124 970.819 63.1374 Q974.586 58.7219 974.586 51.4303 L974.586 49.7694 L967.173 49.7694 M982.04 46.6907 L982.04 72.576 L974.586 72.576 L974.586 65.6895 Q972.034 69.8214 968.226 71.8063 Q964.418 73.7508 958.909 73.7508 Q951.941 73.7508 947.81 69.8619 Q943.718 65.9325 943.718 59.3701 Q943.718 51.7138 948.822 47.825 Q953.967 43.9361 964.135 43.9361 L974.586 43.9361 L974.586 43.2069 Q974.586 38.0623 971.183 35.2672 Q967.821 32.4315 961.704 32.4315 Q957.815 32.4315 954.129 33.3632 Q950.443 34.295 947.04 36.1584 L947.04 29.2718 Q951.131 27.692 954.98 26.9223 Q958.828 26.1121 962.474 26.1121 Q972.317 26.1121 977.179 31.2163 Q982.04 36.3204 982.04 46.6907 Z" fill="#000000" fill-rule="evenodd" fill-opacity="1" /><path clip-path="url(#clip560)" d="M1023.68 34.1734 Q1022.43 33.4443 1020.93 33.1202 Q1019.47 32.7556 1017.69 32.7556 Q1011.37 32.7556 1007.97 36.8875 Q1004.6 40.9789 1004.6 48.6757 L1004.6 72.576 L997.109 72.576 L997.109 27.2059 L1004.6 27.2059 L1004.6 34.2544 Q1006.95 30.1225 1010.72 28.1376 Q1014.49 26.1121 1019.88 26.1121 Q1020.64 26.1121 1021.58 26.2337 Q1022.51 26.3147 1023.64 26.5172 L1023.68 34.1734 Z" fill="#000000" fill-rule="evenodd" fill-opacity="1" /><path clip-path="url(#clip560)" d="M1086.88 44.2197 Q1089.51 45.1109 1091.98 48.0275 Q1094.49 50.9442 1097 56.0483 L1105.31 72.576 L1096.52 72.576 L1088.78 57.061 Q1085.78 50.9847 1082.95 48.9997 Q1080.15 47.0148 1075.29 47.0148 L1066.38 47.0148 L1066.38 72.576 L1058.2 72.576 L1058.2 12.096 L1076.67 12.096 Q1087.04 12.096 1092.14 16.4305 Q1097.25 20.7649 1097.25 29.5149 Q1097.25 35.2267 1094.57 38.994 Q1091.94 42.7613 1086.88 44.2197 M1066.38 18.8205 L1066.38 40.2903 L1076.67 40.2903 Q1082.58 40.2903 1085.58 37.5762 Q1088.62 34.8216 1088.62 29.5149 Q1088.62 24.2082 1085.58 21.5346 Q1082.58 18.8205 1076.67 18.8205 L1066.38 18.8205 Z" fill="#000000" fill-rule="evenodd" fill-opacity="1" /><path clip-path="url(#clip560)" d="M1150.6 48.0275 L1150.6 51.6733 L1116.33 51.6733 Q1116.81 59.3701 1120.95 63.421 Q1125.12 67.4314 1132.53 67.4314 Q1136.82 67.4314 1140.84 66.3781 Q1144.89 65.3249 1148.86 63.2184 L1148.86 70.267 Q1144.85 71.9684 1140.63 72.8596 Q1136.42 73.7508 1132.09 73.7508 Q1121.23 73.7508 1114.87 67.4314 Q1108.55 61.1119 1108.55 50.3365 Q1108.55 39.1965 1114.54 32.6746 Q1120.58 26.1121 1130.79 26.1121 Q1139.94 26.1121 1145.25 32.0264 Q1150.6 37.9003 1150.6 48.0275 M1143.14 45.84 Q1143.06 39.7232 1139.7 36.0774 Q1136.38 32.4315 1130.87 32.4315 Q1124.63 32.4315 1120.86 35.9558 Q1117.14 39.4801 1116.57 45.8805 L1143.14 45.84 Z" fill="#000000" fill-rule="evenodd" fill-opacity="1" /><path clip-path="url(#clip560)" d="M1158.5 27.2059 L1165.95 27.2059 L1175.27 62.6108 L1184.54 27.2059 L1193.33 27.2059 L1202.65 62.6108 L1211.93 27.2059 L1219.38 27.2059 L1207.51 72.576 L1198.72 72.576 L1188.96 35.3887 L1179.16 72.576 L1170.37 72.576 L1158.5 27.2059 Z" fill="#000000" fill-rule="evenodd" fill-opacity="1" /><path clip-path="url(#clip560)" d="M1251.3 49.7694 Q1242.27 49.7694 1238.79 51.8354 Q1235.3 53.9013 1235.3 58.8839 Q1235.3 62.8538 1237.89 65.2034 Q1240.53 67.5124 1245.02 67.5124 Q1251.22 67.5124 1254.95 63.1374 Q1258.72 58.7219 1258.72 51.4303 L1258.72 49.7694 L1251.3 49.7694 M1266.17 46.6907 L1266.17 72.576 L1258.72 72.576 L1258.72 65.6895 Q1256.16 69.8214 1252.36 71.8063 Q1248.55 73.7508 1243.04 73.7508 Q1236.07 73.7508 1231.94 69.8619 Q1227.85 65.9325 1227.85 59.3701 Q1227.85 51.7138 1232.95 47.825 Q1238.1 43.9361 1248.27 43.9361 L1258.72 43.9361 L1258.72 43.2069 Q1258.72 38.0623 1255.31 35.2672 Q1251.95 32.4315 1245.83 32.4315 Q1241.95 32.4315 1238.26 33.3632 Q1234.57 34.295 1231.17 36.1584 L1231.17 29.2718 Q1235.26 27.692 1239.11 26.9223 Q1242.96 26.1121 1246.6 26.1121 Q1256.45 26.1121 1261.31 31.2163 Q1266.17 36.3204 1266.17 46.6907 Z" fill="#000000" fill-rule="evenodd" fill-opacity="1" /><path clip-path="url(#clip560)" d="M1307.81 34.1734 Q1306.56 33.4443 1305.06 33.1202 Q1303.6 32.7556 1301.82 32.7556 Q1295.5 32.7556 1292.1 36.8875 Q1288.73 40.9789 1288.73 48.6757 L1288.73 72.576 L1281.24 72.576 L1281.24 27.2059 L1288.73 27.2059 L1288.73 34.2544 Q1291.08 30.1225 1294.85 28.1376 Q1298.62 26.1121 1304.01 26.1121 Q1304.78 26.1121 1305.71 26.2337 Q1306.64 26.3147 1307.77 26.5172 L1307.81 34.1734 Z" fill="#000000" fill-rule="evenodd" fill-opacity="1" /><path clip-path="url(#clip560)" d="M1344.03 34.0924 L1344.03 9.54393 L1351.48 9.54393 L1351.48 72.576 L1344.03 72.576 L1344.03 65.7705 Q1341.68 69.8214 1338.07 71.8063 Q1334.51 73.7508 1329.49 73.7508 Q1321.26 73.7508 1316.08 67.1883 Q1310.93 60.6258 1310.93 49.9314 Q1310.93 39.2371 1316.08 32.6746 Q1321.26 26.1121 1329.49 26.1121 Q1334.51 26.1121 1338.07 28.0971 Q1341.68 30.0415 1344.03 34.0924 M1318.63 49.9314 Q1318.63 58.1548 1321.99 62.8538 Q1325.39 67.5124 1331.31 67.5124 Q1337.22 67.5124 1340.63 62.8538 Q1344.03 58.1548 1344.03 49.9314 Q1344.03 41.7081 1340.63 37.0496 Q1337.22 32.3505 1331.31 32.3505 Q1325.39 32.3505 1321.99 37.0496 Q1318.63 41.7081 1318.63 49.9314 Z" fill="#000000" fill-rule="evenodd" fill-opacity="1" /><path clip-path="url(#clip560)" d="M1401.71 18.8205 L1401.71 41.5461 L1412 41.5461 Q1417.71 41.5461 1420.83 38.5889 Q1423.95 35.6318 1423.95 30.163 Q1423.95 24.7348 1420.83 21.7777 Q1417.71 18.8205 1412 18.8205 L1401.71 18.8205 M1393.53 12.096 L1412 12.096 Q1422.17 12.096 1427.36 16.714 Q1432.58 21.2916 1432.58 30.163 Q1432.58 39.1155 1427.36 43.6931 Q1422.17 48.2706 1412 48.2706 L1401.71 48.2706 L1401.71 72.576 L1393.53 72.576 L1393.53 12.096 Z" fill="#000000" fill-rule="evenodd" fill-opacity="1" /><path clip-path="url(#clip560)" d="M1468.07 34.1734 Q1466.81 33.4443 1465.31 33.1202 Q1463.85 32.7556 1462.07 32.7556 Q1455.75 32.7556 1452.35 36.8875 Q1448.99 40.9789 1448.99 48.6757 L1448.99 72.576 L1441.49 72.576 L1441.49 27.2059 L1448.99 27.2059 L1448.99 34.2544 Q1451.34 30.1225 1455.1 28.1376 Q1458.87 26.1121 1464.26 26.1121 Q1465.03 26.1121 1465.96 26.2337 Q1466.89 26.3147 1468.03 26.5172 L1468.07 34.1734 Z" fill="#000000" fill-rule="evenodd" fill-opacity="1" /><path clip-path="url(#clip560)" d="M1491.64 32.4315 Q1485.65 32.4315 1482.16 37.1306 Q1478.68 41.7891 1478.68 49.9314 Q1478.68 58.0738 1482.12 62.7728 Q1485.61 67.4314 1491.64 67.4314 Q1497.6 67.4314 1501.08 62.7323 Q1504.57 58.0333 1504.57 49.9314 Q1504.57 41.8701 1501.08 37.1711 Q1497.6 32.4315 1491.64 32.4315 M1491.64 26.1121 Q1501.37 26.1121 1506.92 32.4315 Q1512.47 38.7509 1512.47 49.9314 Q1512.47 61.0714 1506.92 67.4314 Q1501.37 73.7508 1491.64 73.7508 Q1481.88 73.7508 1476.33 67.4314 Q1470.82 61.0714 1470.82 49.9314 Q1470.82 38.7509 1476.33 32.4315 Q1481.88 26.1121 1491.64 26.1121 Z" fill="#000000" fill-rule="evenodd" fill-opacity="1" /><path clip-path="url(#clip560)" d="M1547.79 9.54393 L1547.79 15.7418 L1540.66 15.7418 Q1536.65 15.7418 1535.07 17.3622 Q1533.53 18.9825 1533.53 23.1955 L1533.53 27.2059 L1545.8 27.2059 L1545.8 32.9987 L1533.53 32.9987 L1533.53 72.576 L1526.04 72.576 L1526.04 32.9987 L1518.91 32.9987 L1518.91 27.2059 L1526.04 27.2059 L1526.04 24.0462 Q1526.04 16.471 1529.56 13.0277 Q1533.08 9.54393 1540.74 9.54393 L1547.79 9.54393 Z" fill="#000000" fill-rule="evenodd" fill-opacity="1" /><path clip-path="url(#clip560)" d="M1554.03 27.2059 L1561.48 27.2059 L1561.48 72.576 L1554.03 72.576 L1554.03 27.2059 M1554.03 9.54393 L1561.48 9.54393 L1561.48 18.9825 L1554.03 18.9825 L1554.03 9.54393 Z" fill="#000000" fill-rule="evenodd" fill-opacity="1" /><path clip-path="url(#clip560)" d="M1577.08 9.54393 L1584.53 9.54393 L1584.53 72.576 L1577.08 72.576 L1577.08 9.54393 Z" fill="#000000" fill-rule="evenodd" fill-opacity="1" /><path clip-path="url(#clip560)" d="M1638.93 48.0275 L1638.93 51.6733 L1604.66 51.6733 Q1605.15 59.3701 1609.28 63.421 Q1613.45 67.4314 1620.87 67.4314 Q1625.16 67.4314 1629.17 66.3781 Q1633.22 65.3249 1637.19 63.2184 L1637.19 70.267 Q1633.18 71.9684 1628.97 72.8596 Q1624.76 73.7508 1620.42 73.7508 Q1609.57 73.7508 1603.21 67.4314 Q1596.89 61.1119 1596.89 50.3365 Q1596.89 39.1965 1602.88 32.6746 Q1608.92 26.1121 1619.13 26.1121 Q1628.28 26.1121 1633.59 32.0264 Q1638.93 37.9003 1638.93 48.0275 M1631.48 45.84 Q1631.4 39.7232 1628.04 36.0774 Q1624.72 32.4315 1619.21 32.4315 Q1612.97 32.4315 1609.2 35.9558 Q1605.47 39.4801 1604.91 45.8805 L1631.48 45.84 Z" fill="#000000" fill-rule="evenodd" fill-opacity="1" /><polyline clip-path="url(#clip563)" style="stroke:#009af9; stroke-linecap:butt; stroke-linejoin:round; stroke-width:12; stroke-opacity:1; fill:none" points="
  1232.47,860.974 1276.39,829.059 1293.17,674.139 1117.46,507.028 816.377,558.668 663.854,860.974 816.377,1163.28 1117.46,1214.92 1293.17,1047.81 1276.39,892.89 
  1232.47,860.974 
  "/>
</svg>
